G04 #@! TF.GenerationSoftware,KiCad,Pcbnew,5.0.0-fee4fd1~65~ubuntu16.04.1*
G04 #@! TF.CreationDate,2018-10-30T20:03:04+09:00*
G04 #@! TF.ProjectId,SSL_BLDC,53534C5F424C44432E6B696361645F70,rev?*
G04 #@! TF.SameCoordinates,Original*
G04 #@! TF.FileFunction,Copper,L2,Bot,Signal*
G04 #@! TF.FilePolarity,Positive*
%FSLAX46Y46*%
G04 Gerber Fmt 4.6, Leading zero omitted, Abs format (unit mm)*
G04 Created by KiCad (PCBNEW 5.0.0-fee4fd1~65~ubuntu16.04.1) date Tue Oct 30 20:03:04 2018*
%MOMM*%
%LPD*%
G01*
G04 APERTURE LIST*
G04 #@! TA.AperFunction,Conductor*
%ADD10C,0.100000*%
G04 #@! TD*
G04 #@! TA.AperFunction,SMDPad,CuDef*
%ADD11C,0.950000*%
G04 #@! TD*
G04 #@! TA.AperFunction,ComponentPad*
%ADD12C,1.900000*%
G04 #@! TD*
G04 #@! TA.AperFunction,ComponentPad*
%ADD13C,2.550000*%
G04 #@! TD*
G04 #@! TA.AperFunction,ComponentPad*
%ADD14C,1.875000*%
G04 #@! TD*
G04 #@! TA.AperFunction,ComponentPad*
%ADD15C,0.675000*%
G04 #@! TD*
G04 #@! TA.AperFunction,SMDPad,CuDef*
%ADD16R,1.525000X0.700000*%
G04 #@! TD*
G04 #@! TA.AperFunction,SMDPad,CuDef*
%ADD17R,1.200000X0.600000*%
G04 #@! TD*
G04 #@! TA.AperFunction,SMDPad,CuDef*
%ADD18R,0.600000X1.200000*%
G04 #@! TD*
G04 #@! TA.AperFunction,SMDPad,CuDef*
%ADD19R,3.370000X1.900000*%
G04 #@! TD*
G04 #@! TA.AperFunction,SMDPad,CuDef*
%ADD20R,1.550000X0.600000*%
G04 #@! TD*
G04 #@! TA.AperFunction,SMDPad,CuDef*
%ADD21C,0.300000*%
G04 #@! TD*
G04 #@! TA.AperFunction,ViaPad*
%ADD22C,0.600000*%
G04 #@! TD*
G04 #@! TA.AperFunction,Conductor*
%ADD23C,2.000000*%
G04 #@! TD*
G04 #@! TA.AperFunction,Conductor*
%ADD24C,0.250000*%
G04 #@! TD*
G04 #@! TA.AperFunction,Conductor*
%ADD25C,0.254000*%
G04 #@! TD*
G04 APERTURE END LIST*
D10*
G04 #@! TO.N,H1*
G04 #@! TO.C,C1*
G36*
X55060779Y-31988144D02*
X55083834Y-31991563D01*
X55106443Y-31997227D01*
X55128387Y-32005079D01*
X55149457Y-32015044D01*
X55169448Y-32027026D01*
X55188168Y-32040910D01*
X55205438Y-32056562D01*
X55221090Y-32073832D01*
X55234974Y-32092552D01*
X55246956Y-32112543D01*
X55256921Y-32133613D01*
X55264773Y-32155557D01*
X55270437Y-32178166D01*
X55273856Y-32201221D01*
X55275000Y-32224500D01*
X55275000Y-32799500D01*
X55273856Y-32822779D01*
X55270437Y-32845834D01*
X55264773Y-32868443D01*
X55256921Y-32890387D01*
X55246956Y-32911457D01*
X55234974Y-32931448D01*
X55221090Y-32950168D01*
X55205438Y-32967438D01*
X55188168Y-32983090D01*
X55169448Y-32996974D01*
X55149457Y-33008956D01*
X55128387Y-33018921D01*
X55106443Y-33026773D01*
X55083834Y-33032437D01*
X55060779Y-33035856D01*
X55037500Y-33037000D01*
X54562500Y-33037000D01*
X54539221Y-33035856D01*
X54516166Y-33032437D01*
X54493557Y-33026773D01*
X54471613Y-33018921D01*
X54450543Y-33008956D01*
X54430552Y-32996974D01*
X54411832Y-32983090D01*
X54394562Y-32967438D01*
X54378910Y-32950168D01*
X54365026Y-32931448D01*
X54353044Y-32911457D01*
X54343079Y-32890387D01*
X54335227Y-32868443D01*
X54329563Y-32845834D01*
X54326144Y-32822779D01*
X54325000Y-32799500D01*
X54325000Y-32224500D01*
X54326144Y-32201221D01*
X54329563Y-32178166D01*
X54335227Y-32155557D01*
X54343079Y-32133613D01*
X54353044Y-32112543D01*
X54365026Y-32092552D01*
X54378910Y-32073832D01*
X54394562Y-32056562D01*
X54411832Y-32040910D01*
X54430552Y-32027026D01*
X54450543Y-32015044D01*
X54471613Y-32005079D01*
X54493557Y-31997227D01*
X54516166Y-31991563D01*
X54539221Y-31988144D01*
X54562500Y-31987000D01*
X55037500Y-31987000D01*
X55060779Y-31988144D01*
X55060779Y-31988144D01*
G37*
D11*
G04 #@! TD*
G04 #@! TO.P,C1,1*
G04 #@! TO.N,H1*
X54800000Y-32512000D03*
D10*
G04 #@! TO.N,GND*
G04 #@! TO.C,C1*
G36*
X55060779Y-30238144D02*
X55083834Y-30241563D01*
X55106443Y-30247227D01*
X55128387Y-30255079D01*
X55149457Y-30265044D01*
X55169448Y-30277026D01*
X55188168Y-30290910D01*
X55205438Y-30306562D01*
X55221090Y-30323832D01*
X55234974Y-30342552D01*
X55246956Y-30362543D01*
X55256921Y-30383613D01*
X55264773Y-30405557D01*
X55270437Y-30428166D01*
X55273856Y-30451221D01*
X55275000Y-30474500D01*
X55275000Y-31049500D01*
X55273856Y-31072779D01*
X55270437Y-31095834D01*
X55264773Y-31118443D01*
X55256921Y-31140387D01*
X55246956Y-31161457D01*
X55234974Y-31181448D01*
X55221090Y-31200168D01*
X55205438Y-31217438D01*
X55188168Y-31233090D01*
X55169448Y-31246974D01*
X55149457Y-31258956D01*
X55128387Y-31268921D01*
X55106443Y-31276773D01*
X55083834Y-31282437D01*
X55060779Y-31285856D01*
X55037500Y-31287000D01*
X54562500Y-31287000D01*
X54539221Y-31285856D01*
X54516166Y-31282437D01*
X54493557Y-31276773D01*
X54471613Y-31268921D01*
X54450543Y-31258956D01*
X54430552Y-31246974D01*
X54411832Y-31233090D01*
X54394562Y-31217438D01*
X54378910Y-31200168D01*
X54365026Y-31181448D01*
X54353044Y-31161457D01*
X54343079Y-31140387D01*
X54335227Y-31118443D01*
X54329563Y-31095834D01*
X54326144Y-31072779D01*
X54325000Y-31049500D01*
X54325000Y-30474500D01*
X54326144Y-30451221D01*
X54329563Y-30428166D01*
X54335227Y-30405557D01*
X54343079Y-30383613D01*
X54353044Y-30362543D01*
X54365026Y-30342552D01*
X54378910Y-30323832D01*
X54394562Y-30306562D01*
X54411832Y-30290910D01*
X54430552Y-30277026D01*
X54450543Y-30265044D01*
X54471613Y-30255079D01*
X54493557Y-30247227D01*
X54516166Y-30241563D01*
X54539221Y-30238144D01*
X54562500Y-30237000D01*
X55037500Y-30237000D01*
X55060779Y-30238144D01*
X55060779Y-30238144D01*
G37*
D11*
G04 #@! TD*
G04 #@! TO.P,C1,2*
G04 #@! TO.N,GND*
X54800000Y-30762000D03*
D12*
G04 #@! TO.P,J2,1*
G04 #@! TO.N,+BATT*
X88940000Y-35520000D03*
G04 #@! TO.P,J2,2*
G04 #@! TO.N,+3V3*
X91440000Y-35520000D03*
G04 #@! TO.P,J2,3*
G04 #@! TO.N,Net-(J2-Pad3)*
X93940000Y-35520000D03*
G04 #@! TO.P,J2,4*
G04 #@! TO.N,Net-(J2-Pad4)*
X88940000Y-33020000D03*
G04 #@! TO.P,J2,5*
G04 #@! TO.N,GND*
X91440000Y-33020000D03*
G04 #@! TO.P,J2,6*
X93940000Y-33020000D03*
D13*
G04 #@! TO.P,J2,7*
G04 #@! TO.N,N/C*
X93940000Y-25840000D03*
G04 #@! TO.P,J2,8*
X88940000Y-25840000D03*
G04 #@! TD*
D10*
G04 #@! TO.N,GND*
G04 #@! TO.C,C3*
G36*
X57860779Y-30238144D02*
X57883834Y-30241563D01*
X57906443Y-30247227D01*
X57928387Y-30255079D01*
X57949457Y-30265044D01*
X57969448Y-30277026D01*
X57988168Y-30290910D01*
X58005438Y-30306562D01*
X58021090Y-30323832D01*
X58034974Y-30342552D01*
X58046956Y-30362543D01*
X58056921Y-30383613D01*
X58064773Y-30405557D01*
X58070437Y-30428166D01*
X58073856Y-30451221D01*
X58075000Y-30474500D01*
X58075000Y-31049500D01*
X58073856Y-31072779D01*
X58070437Y-31095834D01*
X58064773Y-31118443D01*
X58056921Y-31140387D01*
X58046956Y-31161457D01*
X58034974Y-31181448D01*
X58021090Y-31200168D01*
X58005438Y-31217438D01*
X57988168Y-31233090D01*
X57969448Y-31246974D01*
X57949457Y-31258956D01*
X57928387Y-31268921D01*
X57906443Y-31276773D01*
X57883834Y-31282437D01*
X57860779Y-31285856D01*
X57837500Y-31287000D01*
X57362500Y-31287000D01*
X57339221Y-31285856D01*
X57316166Y-31282437D01*
X57293557Y-31276773D01*
X57271613Y-31268921D01*
X57250543Y-31258956D01*
X57230552Y-31246974D01*
X57211832Y-31233090D01*
X57194562Y-31217438D01*
X57178910Y-31200168D01*
X57165026Y-31181448D01*
X57153044Y-31161457D01*
X57143079Y-31140387D01*
X57135227Y-31118443D01*
X57129563Y-31095834D01*
X57126144Y-31072779D01*
X57125000Y-31049500D01*
X57125000Y-30474500D01*
X57126144Y-30451221D01*
X57129563Y-30428166D01*
X57135227Y-30405557D01*
X57143079Y-30383613D01*
X57153044Y-30362543D01*
X57165026Y-30342552D01*
X57178910Y-30323832D01*
X57194562Y-30306562D01*
X57211832Y-30290910D01*
X57230552Y-30277026D01*
X57250543Y-30265044D01*
X57271613Y-30255079D01*
X57293557Y-30247227D01*
X57316166Y-30241563D01*
X57339221Y-30238144D01*
X57362500Y-30237000D01*
X57837500Y-30237000D01*
X57860779Y-30238144D01*
X57860779Y-30238144D01*
G37*
D11*
G04 #@! TD*
G04 #@! TO.P,C3,2*
G04 #@! TO.N,GND*
X57600000Y-30762000D03*
D10*
G04 #@! TO.N,H2*
G04 #@! TO.C,C3*
G36*
X57860779Y-31988144D02*
X57883834Y-31991563D01*
X57906443Y-31997227D01*
X57928387Y-32005079D01*
X57949457Y-32015044D01*
X57969448Y-32027026D01*
X57988168Y-32040910D01*
X58005438Y-32056562D01*
X58021090Y-32073832D01*
X58034974Y-32092552D01*
X58046956Y-32112543D01*
X58056921Y-32133613D01*
X58064773Y-32155557D01*
X58070437Y-32178166D01*
X58073856Y-32201221D01*
X58075000Y-32224500D01*
X58075000Y-32799500D01*
X58073856Y-32822779D01*
X58070437Y-32845834D01*
X58064773Y-32868443D01*
X58056921Y-32890387D01*
X58046956Y-32911457D01*
X58034974Y-32931448D01*
X58021090Y-32950168D01*
X58005438Y-32967438D01*
X57988168Y-32983090D01*
X57969448Y-32996974D01*
X57949457Y-33008956D01*
X57928387Y-33018921D01*
X57906443Y-33026773D01*
X57883834Y-33032437D01*
X57860779Y-33035856D01*
X57837500Y-33037000D01*
X57362500Y-33037000D01*
X57339221Y-33035856D01*
X57316166Y-33032437D01*
X57293557Y-33026773D01*
X57271613Y-33018921D01*
X57250543Y-33008956D01*
X57230552Y-32996974D01*
X57211832Y-32983090D01*
X57194562Y-32967438D01*
X57178910Y-32950168D01*
X57165026Y-32931448D01*
X57153044Y-32911457D01*
X57143079Y-32890387D01*
X57135227Y-32868443D01*
X57129563Y-32845834D01*
X57126144Y-32822779D01*
X57125000Y-32799500D01*
X57125000Y-32224500D01*
X57126144Y-32201221D01*
X57129563Y-32178166D01*
X57135227Y-32155557D01*
X57143079Y-32133613D01*
X57153044Y-32112543D01*
X57165026Y-32092552D01*
X57178910Y-32073832D01*
X57194562Y-32056562D01*
X57211832Y-32040910D01*
X57230552Y-32027026D01*
X57250543Y-32015044D01*
X57271613Y-32005079D01*
X57293557Y-31997227D01*
X57316166Y-31991563D01*
X57339221Y-31988144D01*
X57362500Y-31987000D01*
X57837500Y-31987000D01*
X57860779Y-31988144D01*
X57860779Y-31988144D01*
G37*
D11*
G04 #@! TD*
G04 #@! TO.P,C3,1*
G04 #@! TO.N,H2*
X57600000Y-32512000D03*
D10*
G04 #@! TO.N,H3*
G04 #@! TO.C,C4*
G36*
X60660779Y-31988144D02*
X60683834Y-31991563D01*
X60706443Y-31997227D01*
X60728387Y-32005079D01*
X60749457Y-32015044D01*
X60769448Y-32027026D01*
X60788168Y-32040910D01*
X60805438Y-32056562D01*
X60821090Y-32073832D01*
X60834974Y-32092552D01*
X60846956Y-32112543D01*
X60856921Y-32133613D01*
X60864773Y-32155557D01*
X60870437Y-32178166D01*
X60873856Y-32201221D01*
X60875000Y-32224500D01*
X60875000Y-32799500D01*
X60873856Y-32822779D01*
X60870437Y-32845834D01*
X60864773Y-32868443D01*
X60856921Y-32890387D01*
X60846956Y-32911457D01*
X60834974Y-32931448D01*
X60821090Y-32950168D01*
X60805438Y-32967438D01*
X60788168Y-32983090D01*
X60769448Y-32996974D01*
X60749457Y-33008956D01*
X60728387Y-33018921D01*
X60706443Y-33026773D01*
X60683834Y-33032437D01*
X60660779Y-33035856D01*
X60637500Y-33037000D01*
X60162500Y-33037000D01*
X60139221Y-33035856D01*
X60116166Y-33032437D01*
X60093557Y-33026773D01*
X60071613Y-33018921D01*
X60050543Y-33008956D01*
X60030552Y-32996974D01*
X60011832Y-32983090D01*
X59994562Y-32967438D01*
X59978910Y-32950168D01*
X59965026Y-32931448D01*
X59953044Y-32911457D01*
X59943079Y-32890387D01*
X59935227Y-32868443D01*
X59929563Y-32845834D01*
X59926144Y-32822779D01*
X59925000Y-32799500D01*
X59925000Y-32224500D01*
X59926144Y-32201221D01*
X59929563Y-32178166D01*
X59935227Y-32155557D01*
X59943079Y-32133613D01*
X59953044Y-32112543D01*
X59965026Y-32092552D01*
X59978910Y-32073832D01*
X59994562Y-32056562D01*
X60011832Y-32040910D01*
X60030552Y-32027026D01*
X60050543Y-32015044D01*
X60071613Y-32005079D01*
X60093557Y-31997227D01*
X60116166Y-31991563D01*
X60139221Y-31988144D01*
X60162500Y-31987000D01*
X60637500Y-31987000D01*
X60660779Y-31988144D01*
X60660779Y-31988144D01*
G37*
D11*
G04 #@! TD*
G04 #@! TO.P,C4,1*
G04 #@! TO.N,H3*
X60400000Y-32512000D03*
D10*
G04 #@! TO.N,GND*
G04 #@! TO.C,C4*
G36*
X60660779Y-30238144D02*
X60683834Y-30241563D01*
X60706443Y-30247227D01*
X60728387Y-30255079D01*
X60749457Y-30265044D01*
X60769448Y-30277026D01*
X60788168Y-30290910D01*
X60805438Y-30306562D01*
X60821090Y-30323832D01*
X60834974Y-30342552D01*
X60846956Y-30362543D01*
X60856921Y-30383613D01*
X60864773Y-30405557D01*
X60870437Y-30428166D01*
X60873856Y-30451221D01*
X60875000Y-30474500D01*
X60875000Y-31049500D01*
X60873856Y-31072779D01*
X60870437Y-31095834D01*
X60864773Y-31118443D01*
X60856921Y-31140387D01*
X60846956Y-31161457D01*
X60834974Y-31181448D01*
X60821090Y-31200168D01*
X60805438Y-31217438D01*
X60788168Y-31233090D01*
X60769448Y-31246974D01*
X60749457Y-31258956D01*
X60728387Y-31268921D01*
X60706443Y-31276773D01*
X60683834Y-31282437D01*
X60660779Y-31285856D01*
X60637500Y-31287000D01*
X60162500Y-31287000D01*
X60139221Y-31285856D01*
X60116166Y-31282437D01*
X60093557Y-31276773D01*
X60071613Y-31268921D01*
X60050543Y-31258956D01*
X60030552Y-31246974D01*
X60011832Y-31233090D01*
X59994562Y-31217438D01*
X59978910Y-31200168D01*
X59965026Y-31181448D01*
X59953044Y-31161457D01*
X59943079Y-31140387D01*
X59935227Y-31118443D01*
X59929563Y-31095834D01*
X59926144Y-31072779D01*
X59925000Y-31049500D01*
X59925000Y-30474500D01*
X59926144Y-30451221D01*
X59929563Y-30428166D01*
X59935227Y-30405557D01*
X59943079Y-30383613D01*
X59953044Y-30362543D01*
X59965026Y-30342552D01*
X59978910Y-30323832D01*
X59994562Y-30306562D01*
X60011832Y-30290910D01*
X60030552Y-30277026D01*
X60050543Y-30265044D01*
X60071613Y-30255079D01*
X60093557Y-30247227D01*
X60116166Y-30241563D01*
X60139221Y-30238144D01*
X60162500Y-30237000D01*
X60637500Y-30237000D01*
X60660779Y-30238144D01*
X60660779Y-30238144D01*
G37*
D11*
G04 #@! TD*
G04 #@! TO.P,C4,2*
G04 #@! TO.N,GND*
X60400000Y-30762000D03*
D10*
G04 #@! TO.N,GND*
G04 #@! TO.C,C5*
G36*
X66410779Y-60176144D02*
X66433834Y-60179563D01*
X66456443Y-60185227D01*
X66478387Y-60193079D01*
X66499457Y-60203044D01*
X66519448Y-60215026D01*
X66538168Y-60228910D01*
X66555438Y-60244562D01*
X66571090Y-60261832D01*
X66584974Y-60280552D01*
X66596956Y-60300543D01*
X66606921Y-60321613D01*
X66614773Y-60343557D01*
X66620437Y-60366166D01*
X66623856Y-60389221D01*
X66625000Y-60412500D01*
X66625000Y-60987500D01*
X66623856Y-61010779D01*
X66620437Y-61033834D01*
X66614773Y-61056443D01*
X66606921Y-61078387D01*
X66596956Y-61099457D01*
X66584974Y-61119448D01*
X66571090Y-61138168D01*
X66555438Y-61155438D01*
X66538168Y-61171090D01*
X66519448Y-61184974D01*
X66499457Y-61196956D01*
X66478387Y-61206921D01*
X66456443Y-61214773D01*
X66433834Y-61220437D01*
X66410779Y-61223856D01*
X66387500Y-61225000D01*
X65912500Y-61225000D01*
X65889221Y-61223856D01*
X65866166Y-61220437D01*
X65843557Y-61214773D01*
X65821613Y-61206921D01*
X65800543Y-61196956D01*
X65780552Y-61184974D01*
X65761832Y-61171090D01*
X65744562Y-61155438D01*
X65728910Y-61138168D01*
X65715026Y-61119448D01*
X65703044Y-61099457D01*
X65693079Y-61078387D01*
X65685227Y-61056443D01*
X65679563Y-61033834D01*
X65676144Y-61010779D01*
X65675000Y-60987500D01*
X65675000Y-60412500D01*
X65676144Y-60389221D01*
X65679563Y-60366166D01*
X65685227Y-60343557D01*
X65693079Y-60321613D01*
X65703044Y-60300543D01*
X65715026Y-60280552D01*
X65728910Y-60261832D01*
X65744562Y-60244562D01*
X65761832Y-60228910D01*
X65780552Y-60215026D01*
X65800543Y-60203044D01*
X65821613Y-60193079D01*
X65843557Y-60185227D01*
X65866166Y-60179563D01*
X65889221Y-60176144D01*
X65912500Y-60175000D01*
X66387500Y-60175000D01*
X66410779Y-60176144D01*
X66410779Y-60176144D01*
G37*
D11*
G04 #@! TD*
G04 #@! TO.P,C5,2*
G04 #@! TO.N,GND*
X66150000Y-60700000D03*
D10*
G04 #@! TO.N,RESET*
G04 #@! TO.C,C5*
G36*
X66410779Y-61926144D02*
X66433834Y-61929563D01*
X66456443Y-61935227D01*
X66478387Y-61943079D01*
X66499457Y-61953044D01*
X66519448Y-61965026D01*
X66538168Y-61978910D01*
X66555438Y-61994562D01*
X66571090Y-62011832D01*
X66584974Y-62030552D01*
X66596956Y-62050543D01*
X66606921Y-62071613D01*
X66614773Y-62093557D01*
X66620437Y-62116166D01*
X66623856Y-62139221D01*
X66625000Y-62162500D01*
X66625000Y-62737500D01*
X66623856Y-62760779D01*
X66620437Y-62783834D01*
X66614773Y-62806443D01*
X66606921Y-62828387D01*
X66596956Y-62849457D01*
X66584974Y-62869448D01*
X66571090Y-62888168D01*
X66555438Y-62905438D01*
X66538168Y-62921090D01*
X66519448Y-62934974D01*
X66499457Y-62946956D01*
X66478387Y-62956921D01*
X66456443Y-62964773D01*
X66433834Y-62970437D01*
X66410779Y-62973856D01*
X66387500Y-62975000D01*
X65912500Y-62975000D01*
X65889221Y-62973856D01*
X65866166Y-62970437D01*
X65843557Y-62964773D01*
X65821613Y-62956921D01*
X65800543Y-62946956D01*
X65780552Y-62934974D01*
X65761832Y-62921090D01*
X65744562Y-62905438D01*
X65728910Y-62888168D01*
X65715026Y-62869448D01*
X65703044Y-62849457D01*
X65693079Y-62828387D01*
X65685227Y-62806443D01*
X65679563Y-62783834D01*
X65676144Y-62760779D01*
X65675000Y-62737500D01*
X65675000Y-62162500D01*
X65676144Y-62139221D01*
X65679563Y-62116166D01*
X65685227Y-62093557D01*
X65693079Y-62071613D01*
X65703044Y-62050543D01*
X65715026Y-62030552D01*
X65728910Y-62011832D01*
X65744562Y-61994562D01*
X65761832Y-61978910D01*
X65780552Y-61965026D01*
X65800543Y-61953044D01*
X65821613Y-61943079D01*
X65843557Y-61935227D01*
X65866166Y-61929563D01*
X65889221Y-61926144D01*
X65912500Y-61925000D01*
X66387500Y-61925000D01*
X66410779Y-61926144D01*
X66410779Y-61926144D01*
G37*
D11*
G04 #@! TD*
G04 #@! TO.P,C5,1*
G04 #@! TO.N,RESET*
X66150000Y-62450000D03*
D10*
G04 #@! TO.N,+BATT*
G04 #@! TO.C,C15*
G36*
X76360779Y-34851144D02*
X76383834Y-34854563D01*
X76406443Y-34860227D01*
X76428387Y-34868079D01*
X76449457Y-34878044D01*
X76469448Y-34890026D01*
X76488168Y-34903910D01*
X76505438Y-34919562D01*
X76521090Y-34936832D01*
X76534974Y-34955552D01*
X76546956Y-34975543D01*
X76556921Y-34996613D01*
X76564773Y-35018557D01*
X76570437Y-35041166D01*
X76573856Y-35064221D01*
X76575000Y-35087500D01*
X76575000Y-35662500D01*
X76573856Y-35685779D01*
X76570437Y-35708834D01*
X76564773Y-35731443D01*
X76556921Y-35753387D01*
X76546956Y-35774457D01*
X76534974Y-35794448D01*
X76521090Y-35813168D01*
X76505438Y-35830438D01*
X76488168Y-35846090D01*
X76469448Y-35859974D01*
X76449457Y-35871956D01*
X76428387Y-35881921D01*
X76406443Y-35889773D01*
X76383834Y-35895437D01*
X76360779Y-35898856D01*
X76337500Y-35900000D01*
X75862500Y-35900000D01*
X75839221Y-35898856D01*
X75816166Y-35895437D01*
X75793557Y-35889773D01*
X75771613Y-35881921D01*
X75750543Y-35871956D01*
X75730552Y-35859974D01*
X75711832Y-35846090D01*
X75694562Y-35830438D01*
X75678910Y-35813168D01*
X75665026Y-35794448D01*
X75653044Y-35774457D01*
X75643079Y-35753387D01*
X75635227Y-35731443D01*
X75629563Y-35708834D01*
X75626144Y-35685779D01*
X75625000Y-35662500D01*
X75625000Y-35087500D01*
X75626144Y-35064221D01*
X75629563Y-35041166D01*
X75635227Y-35018557D01*
X75643079Y-34996613D01*
X75653044Y-34975543D01*
X75665026Y-34955552D01*
X75678910Y-34936832D01*
X75694562Y-34919562D01*
X75711832Y-34903910D01*
X75730552Y-34890026D01*
X75750543Y-34878044D01*
X75771613Y-34868079D01*
X75793557Y-34860227D01*
X75816166Y-34854563D01*
X75839221Y-34851144D01*
X75862500Y-34850000D01*
X76337500Y-34850000D01*
X76360779Y-34851144D01*
X76360779Y-34851144D01*
G37*
D11*
G04 #@! TD*
G04 #@! TO.P,C15,1*
G04 #@! TO.N,+BATT*
X76100000Y-35375000D03*
D10*
G04 #@! TO.N,/drive/LSS*
G04 #@! TO.C,C15*
G36*
X76360779Y-36601144D02*
X76383834Y-36604563D01*
X76406443Y-36610227D01*
X76428387Y-36618079D01*
X76449457Y-36628044D01*
X76469448Y-36640026D01*
X76488168Y-36653910D01*
X76505438Y-36669562D01*
X76521090Y-36686832D01*
X76534974Y-36705552D01*
X76546956Y-36725543D01*
X76556921Y-36746613D01*
X76564773Y-36768557D01*
X76570437Y-36791166D01*
X76573856Y-36814221D01*
X76575000Y-36837500D01*
X76575000Y-37412500D01*
X76573856Y-37435779D01*
X76570437Y-37458834D01*
X76564773Y-37481443D01*
X76556921Y-37503387D01*
X76546956Y-37524457D01*
X76534974Y-37544448D01*
X76521090Y-37563168D01*
X76505438Y-37580438D01*
X76488168Y-37596090D01*
X76469448Y-37609974D01*
X76449457Y-37621956D01*
X76428387Y-37631921D01*
X76406443Y-37639773D01*
X76383834Y-37645437D01*
X76360779Y-37648856D01*
X76337500Y-37650000D01*
X75862500Y-37650000D01*
X75839221Y-37648856D01*
X75816166Y-37645437D01*
X75793557Y-37639773D01*
X75771613Y-37631921D01*
X75750543Y-37621956D01*
X75730552Y-37609974D01*
X75711832Y-37596090D01*
X75694562Y-37580438D01*
X75678910Y-37563168D01*
X75665026Y-37544448D01*
X75653044Y-37524457D01*
X75643079Y-37503387D01*
X75635227Y-37481443D01*
X75629563Y-37458834D01*
X75626144Y-37435779D01*
X75625000Y-37412500D01*
X75625000Y-36837500D01*
X75626144Y-36814221D01*
X75629563Y-36791166D01*
X75635227Y-36768557D01*
X75643079Y-36746613D01*
X75653044Y-36725543D01*
X75665026Y-36705552D01*
X75678910Y-36686832D01*
X75694562Y-36669562D01*
X75711832Y-36653910D01*
X75730552Y-36640026D01*
X75750543Y-36628044D01*
X75771613Y-36618079D01*
X75793557Y-36610227D01*
X75816166Y-36604563D01*
X75839221Y-36601144D01*
X75862500Y-36600000D01*
X76337500Y-36600000D01*
X76360779Y-36601144D01*
X76360779Y-36601144D01*
G37*
D11*
G04 #@! TD*
G04 #@! TO.P,C15,2*
G04 #@! TO.N,/drive/LSS*
X76100000Y-37125000D03*
D10*
G04 #@! TO.N,+BATT*
G04 #@! TO.C,C16*
G36*
X84085779Y-34926144D02*
X84108834Y-34929563D01*
X84131443Y-34935227D01*
X84153387Y-34943079D01*
X84174457Y-34953044D01*
X84194448Y-34965026D01*
X84213168Y-34978910D01*
X84230438Y-34994562D01*
X84246090Y-35011832D01*
X84259974Y-35030552D01*
X84271956Y-35050543D01*
X84281921Y-35071613D01*
X84289773Y-35093557D01*
X84295437Y-35116166D01*
X84298856Y-35139221D01*
X84300000Y-35162500D01*
X84300000Y-35737500D01*
X84298856Y-35760779D01*
X84295437Y-35783834D01*
X84289773Y-35806443D01*
X84281921Y-35828387D01*
X84271956Y-35849457D01*
X84259974Y-35869448D01*
X84246090Y-35888168D01*
X84230438Y-35905438D01*
X84213168Y-35921090D01*
X84194448Y-35934974D01*
X84174457Y-35946956D01*
X84153387Y-35956921D01*
X84131443Y-35964773D01*
X84108834Y-35970437D01*
X84085779Y-35973856D01*
X84062500Y-35975000D01*
X83587500Y-35975000D01*
X83564221Y-35973856D01*
X83541166Y-35970437D01*
X83518557Y-35964773D01*
X83496613Y-35956921D01*
X83475543Y-35946956D01*
X83455552Y-35934974D01*
X83436832Y-35921090D01*
X83419562Y-35905438D01*
X83403910Y-35888168D01*
X83390026Y-35869448D01*
X83378044Y-35849457D01*
X83368079Y-35828387D01*
X83360227Y-35806443D01*
X83354563Y-35783834D01*
X83351144Y-35760779D01*
X83350000Y-35737500D01*
X83350000Y-35162500D01*
X83351144Y-35139221D01*
X83354563Y-35116166D01*
X83360227Y-35093557D01*
X83368079Y-35071613D01*
X83378044Y-35050543D01*
X83390026Y-35030552D01*
X83403910Y-35011832D01*
X83419562Y-34994562D01*
X83436832Y-34978910D01*
X83455552Y-34965026D01*
X83475543Y-34953044D01*
X83496613Y-34943079D01*
X83518557Y-34935227D01*
X83541166Y-34929563D01*
X83564221Y-34926144D01*
X83587500Y-34925000D01*
X84062500Y-34925000D01*
X84085779Y-34926144D01*
X84085779Y-34926144D01*
G37*
D11*
G04 #@! TD*
G04 #@! TO.P,C16,1*
G04 #@! TO.N,+BATT*
X83825000Y-35450000D03*
D10*
G04 #@! TO.N,/drive/LSS*
G04 #@! TO.C,C16*
G36*
X84085779Y-36676144D02*
X84108834Y-36679563D01*
X84131443Y-36685227D01*
X84153387Y-36693079D01*
X84174457Y-36703044D01*
X84194448Y-36715026D01*
X84213168Y-36728910D01*
X84230438Y-36744562D01*
X84246090Y-36761832D01*
X84259974Y-36780552D01*
X84271956Y-36800543D01*
X84281921Y-36821613D01*
X84289773Y-36843557D01*
X84295437Y-36866166D01*
X84298856Y-36889221D01*
X84300000Y-36912500D01*
X84300000Y-37487500D01*
X84298856Y-37510779D01*
X84295437Y-37533834D01*
X84289773Y-37556443D01*
X84281921Y-37578387D01*
X84271956Y-37599457D01*
X84259974Y-37619448D01*
X84246090Y-37638168D01*
X84230438Y-37655438D01*
X84213168Y-37671090D01*
X84194448Y-37684974D01*
X84174457Y-37696956D01*
X84153387Y-37706921D01*
X84131443Y-37714773D01*
X84108834Y-37720437D01*
X84085779Y-37723856D01*
X84062500Y-37725000D01*
X83587500Y-37725000D01*
X83564221Y-37723856D01*
X83541166Y-37720437D01*
X83518557Y-37714773D01*
X83496613Y-37706921D01*
X83475543Y-37696956D01*
X83455552Y-37684974D01*
X83436832Y-37671090D01*
X83419562Y-37655438D01*
X83403910Y-37638168D01*
X83390026Y-37619448D01*
X83378044Y-37599457D01*
X83368079Y-37578387D01*
X83360227Y-37556443D01*
X83354563Y-37533834D01*
X83351144Y-37510779D01*
X83350000Y-37487500D01*
X83350000Y-36912500D01*
X83351144Y-36889221D01*
X83354563Y-36866166D01*
X83360227Y-36843557D01*
X83368079Y-36821613D01*
X83378044Y-36800543D01*
X83390026Y-36780552D01*
X83403910Y-36761832D01*
X83419562Y-36744562D01*
X83436832Y-36728910D01*
X83455552Y-36715026D01*
X83475543Y-36703044D01*
X83496613Y-36693079D01*
X83518557Y-36685227D01*
X83541166Y-36679563D01*
X83564221Y-36676144D01*
X83587500Y-36675000D01*
X84062500Y-36675000D01*
X84085779Y-36676144D01*
X84085779Y-36676144D01*
G37*
D11*
G04 #@! TD*
G04 #@! TO.P,C16,2*
G04 #@! TO.N,/drive/LSS*
X83825000Y-37200000D03*
D10*
G04 #@! TO.N,Net-(J1-Pad2)*
G04 #@! TO.C,R1*
G36*
X68510779Y-26276144D02*
X68533834Y-26279563D01*
X68556443Y-26285227D01*
X68578387Y-26293079D01*
X68599457Y-26303044D01*
X68619448Y-26315026D01*
X68638168Y-26328910D01*
X68655438Y-26344562D01*
X68671090Y-26361832D01*
X68684974Y-26380552D01*
X68696956Y-26400543D01*
X68706921Y-26421613D01*
X68714773Y-26443557D01*
X68720437Y-26466166D01*
X68723856Y-26489221D01*
X68725000Y-26512500D01*
X68725000Y-27087500D01*
X68723856Y-27110779D01*
X68720437Y-27133834D01*
X68714773Y-27156443D01*
X68706921Y-27178387D01*
X68696956Y-27199457D01*
X68684974Y-27219448D01*
X68671090Y-27238168D01*
X68655438Y-27255438D01*
X68638168Y-27271090D01*
X68619448Y-27284974D01*
X68599457Y-27296956D01*
X68578387Y-27306921D01*
X68556443Y-27314773D01*
X68533834Y-27320437D01*
X68510779Y-27323856D01*
X68487500Y-27325000D01*
X68012500Y-27325000D01*
X67989221Y-27323856D01*
X67966166Y-27320437D01*
X67943557Y-27314773D01*
X67921613Y-27306921D01*
X67900543Y-27296956D01*
X67880552Y-27284974D01*
X67861832Y-27271090D01*
X67844562Y-27255438D01*
X67828910Y-27238168D01*
X67815026Y-27219448D01*
X67803044Y-27199457D01*
X67793079Y-27178387D01*
X67785227Y-27156443D01*
X67779563Y-27133834D01*
X67776144Y-27110779D01*
X67775000Y-27087500D01*
X67775000Y-26512500D01*
X67776144Y-26489221D01*
X67779563Y-26466166D01*
X67785227Y-26443557D01*
X67793079Y-26421613D01*
X67803044Y-26400543D01*
X67815026Y-26380552D01*
X67828910Y-26361832D01*
X67844562Y-26344562D01*
X67861832Y-26328910D01*
X67880552Y-26315026D01*
X67900543Y-26303044D01*
X67921613Y-26293079D01*
X67943557Y-26285227D01*
X67966166Y-26279563D01*
X67989221Y-26276144D01*
X68012500Y-26275000D01*
X68487500Y-26275000D01*
X68510779Y-26276144D01*
X68510779Y-26276144D01*
G37*
D11*
G04 #@! TD*
G04 #@! TO.P,R1,1*
G04 #@! TO.N,Net-(J1-Pad2)*
X68250000Y-26800000D03*
D10*
G04 #@! TO.N,H3*
G04 #@! TO.C,R1*
G36*
X68510779Y-28026144D02*
X68533834Y-28029563D01*
X68556443Y-28035227D01*
X68578387Y-28043079D01*
X68599457Y-28053044D01*
X68619448Y-28065026D01*
X68638168Y-28078910D01*
X68655438Y-28094562D01*
X68671090Y-28111832D01*
X68684974Y-28130552D01*
X68696956Y-28150543D01*
X68706921Y-28171613D01*
X68714773Y-28193557D01*
X68720437Y-28216166D01*
X68723856Y-28239221D01*
X68725000Y-28262500D01*
X68725000Y-28837500D01*
X68723856Y-28860779D01*
X68720437Y-28883834D01*
X68714773Y-28906443D01*
X68706921Y-28928387D01*
X68696956Y-28949457D01*
X68684974Y-28969448D01*
X68671090Y-28988168D01*
X68655438Y-29005438D01*
X68638168Y-29021090D01*
X68619448Y-29034974D01*
X68599457Y-29046956D01*
X68578387Y-29056921D01*
X68556443Y-29064773D01*
X68533834Y-29070437D01*
X68510779Y-29073856D01*
X68487500Y-29075000D01*
X68012500Y-29075000D01*
X67989221Y-29073856D01*
X67966166Y-29070437D01*
X67943557Y-29064773D01*
X67921613Y-29056921D01*
X67900543Y-29046956D01*
X67880552Y-29034974D01*
X67861832Y-29021090D01*
X67844562Y-29005438D01*
X67828910Y-28988168D01*
X67815026Y-28969448D01*
X67803044Y-28949457D01*
X67793079Y-28928387D01*
X67785227Y-28906443D01*
X67779563Y-28883834D01*
X67776144Y-28860779D01*
X67775000Y-28837500D01*
X67775000Y-28262500D01*
X67776144Y-28239221D01*
X67779563Y-28216166D01*
X67785227Y-28193557D01*
X67793079Y-28171613D01*
X67803044Y-28150543D01*
X67815026Y-28130552D01*
X67828910Y-28111832D01*
X67844562Y-28094562D01*
X67861832Y-28078910D01*
X67880552Y-28065026D01*
X67900543Y-28053044D01*
X67921613Y-28043079D01*
X67943557Y-28035227D01*
X67966166Y-28029563D01*
X67989221Y-28026144D01*
X68012500Y-28025000D01*
X68487500Y-28025000D01*
X68510779Y-28026144D01*
X68510779Y-28026144D01*
G37*
D11*
G04 #@! TD*
G04 #@! TO.P,R1,2*
G04 #@! TO.N,H3*
X68250000Y-28550000D03*
D10*
G04 #@! TO.N,Net-(J1-Pad3)*
G04 #@! TO.C,R2*
G36*
X66520779Y-26236144D02*
X66543834Y-26239563D01*
X66566443Y-26245227D01*
X66588387Y-26253079D01*
X66609457Y-26263044D01*
X66629448Y-26275026D01*
X66648168Y-26288910D01*
X66665438Y-26304562D01*
X66681090Y-26321832D01*
X66694974Y-26340552D01*
X66706956Y-26360543D01*
X66716921Y-26381613D01*
X66724773Y-26403557D01*
X66730437Y-26426166D01*
X66733856Y-26449221D01*
X66735000Y-26472500D01*
X66735000Y-27047500D01*
X66733856Y-27070779D01*
X66730437Y-27093834D01*
X66724773Y-27116443D01*
X66716921Y-27138387D01*
X66706956Y-27159457D01*
X66694974Y-27179448D01*
X66681090Y-27198168D01*
X66665438Y-27215438D01*
X66648168Y-27231090D01*
X66629448Y-27244974D01*
X66609457Y-27256956D01*
X66588387Y-27266921D01*
X66566443Y-27274773D01*
X66543834Y-27280437D01*
X66520779Y-27283856D01*
X66497500Y-27285000D01*
X66022500Y-27285000D01*
X65999221Y-27283856D01*
X65976166Y-27280437D01*
X65953557Y-27274773D01*
X65931613Y-27266921D01*
X65910543Y-27256956D01*
X65890552Y-27244974D01*
X65871832Y-27231090D01*
X65854562Y-27215438D01*
X65838910Y-27198168D01*
X65825026Y-27179448D01*
X65813044Y-27159457D01*
X65803079Y-27138387D01*
X65795227Y-27116443D01*
X65789563Y-27093834D01*
X65786144Y-27070779D01*
X65785000Y-27047500D01*
X65785000Y-26472500D01*
X65786144Y-26449221D01*
X65789563Y-26426166D01*
X65795227Y-26403557D01*
X65803079Y-26381613D01*
X65813044Y-26360543D01*
X65825026Y-26340552D01*
X65838910Y-26321832D01*
X65854562Y-26304562D01*
X65871832Y-26288910D01*
X65890552Y-26275026D01*
X65910543Y-26263044D01*
X65931613Y-26253079D01*
X65953557Y-26245227D01*
X65976166Y-26239563D01*
X65999221Y-26236144D01*
X66022500Y-26235000D01*
X66497500Y-26235000D01*
X66520779Y-26236144D01*
X66520779Y-26236144D01*
G37*
D11*
G04 #@! TD*
G04 #@! TO.P,R2,1*
G04 #@! TO.N,Net-(J1-Pad3)*
X66260000Y-26760000D03*
D10*
G04 #@! TO.N,H2*
G04 #@! TO.C,R2*
G36*
X66520779Y-27986144D02*
X66543834Y-27989563D01*
X66566443Y-27995227D01*
X66588387Y-28003079D01*
X66609457Y-28013044D01*
X66629448Y-28025026D01*
X66648168Y-28038910D01*
X66665438Y-28054562D01*
X66681090Y-28071832D01*
X66694974Y-28090552D01*
X66706956Y-28110543D01*
X66716921Y-28131613D01*
X66724773Y-28153557D01*
X66730437Y-28176166D01*
X66733856Y-28199221D01*
X66735000Y-28222500D01*
X66735000Y-28797500D01*
X66733856Y-28820779D01*
X66730437Y-28843834D01*
X66724773Y-28866443D01*
X66716921Y-28888387D01*
X66706956Y-28909457D01*
X66694974Y-28929448D01*
X66681090Y-28948168D01*
X66665438Y-28965438D01*
X66648168Y-28981090D01*
X66629448Y-28994974D01*
X66609457Y-29006956D01*
X66588387Y-29016921D01*
X66566443Y-29024773D01*
X66543834Y-29030437D01*
X66520779Y-29033856D01*
X66497500Y-29035000D01*
X66022500Y-29035000D01*
X65999221Y-29033856D01*
X65976166Y-29030437D01*
X65953557Y-29024773D01*
X65931613Y-29016921D01*
X65910543Y-29006956D01*
X65890552Y-28994974D01*
X65871832Y-28981090D01*
X65854562Y-28965438D01*
X65838910Y-28948168D01*
X65825026Y-28929448D01*
X65813044Y-28909457D01*
X65803079Y-28888387D01*
X65795227Y-28866443D01*
X65789563Y-28843834D01*
X65786144Y-28820779D01*
X65785000Y-28797500D01*
X65785000Y-28222500D01*
X65786144Y-28199221D01*
X65789563Y-28176166D01*
X65795227Y-28153557D01*
X65803079Y-28131613D01*
X65813044Y-28110543D01*
X65825026Y-28090552D01*
X65838910Y-28071832D01*
X65854562Y-28054562D01*
X65871832Y-28038910D01*
X65890552Y-28025026D01*
X65910543Y-28013044D01*
X65931613Y-28003079D01*
X65953557Y-27995227D01*
X65976166Y-27989563D01*
X65999221Y-27986144D01*
X66022500Y-27985000D01*
X66497500Y-27985000D01*
X66520779Y-27986144D01*
X66520779Y-27986144D01*
G37*
D11*
G04 #@! TD*
G04 #@! TO.P,R2,2*
G04 #@! TO.N,H2*
X66260000Y-28510000D03*
D10*
G04 #@! TO.N,H1*
G04 #@! TO.C,R3*
G36*
X64520779Y-27986144D02*
X64543834Y-27989563D01*
X64566443Y-27995227D01*
X64588387Y-28003079D01*
X64609457Y-28013044D01*
X64629448Y-28025026D01*
X64648168Y-28038910D01*
X64665438Y-28054562D01*
X64681090Y-28071832D01*
X64694974Y-28090552D01*
X64706956Y-28110543D01*
X64716921Y-28131613D01*
X64724773Y-28153557D01*
X64730437Y-28176166D01*
X64733856Y-28199221D01*
X64735000Y-28222500D01*
X64735000Y-28797500D01*
X64733856Y-28820779D01*
X64730437Y-28843834D01*
X64724773Y-28866443D01*
X64716921Y-28888387D01*
X64706956Y-28909457D01*
X64694974Y-28929448D01*
X64681090Y-28948168D01*
X64665438Y-28965438D01*
X64648168Y-28981090D01*
X64629448Y-28994974D01*
X64609457Y-29006956D01*
X64588387Y-29016921D01*
X64566443Y-29024773D01*
X64543834Y-29030437D01*
X64520779Y-29033856D01*
X64497500Y-29035000D01*
X64022500Y-29035000D01*
X63999221Y-29033856D01*
X63976166Y-29030437D01*
X63953557Y-29024773D01*
X63931613Y-29016921D01*
X63910543Y-29006956D01*
X63890552Y-28994974D01*
X63871832Y-28981090D01*
X63854562Y-28965438D01*
X63838910Y-28948168D01*
X63825026Y-28929448D01*
X63813044Y-28909457D01*
X63803079Y-28888387D01*
X63795227Y-28866443D01*
X63789563Y-28843834D01*
X63786144Y-28820779D01*
X63785000Y-28797500D01*
X63785000Y-28222500D01*
X63786144Y-28199221D01*
X63789563Y-28176166D01*
X63795227Y-28153557D01*
X63803079Y-28131613D01*
X63813044Y-28110543D01*
X63825026Y-28090552D01*
X63838910Y-28071832D01*
X63854562Y-28054562D01*
X63871832Y-28038910D01*
X63890552Y-28025026D01*
X63910543Y-28013044D01*
X63931613Y-28003079D01*
X63953557Y-27995227D01*
X63976166Y-27989563D01*
X63999221Y-27986144D01*
X64022500Y-27985000D01*
X64497500Y-27985000D01*
X64520779Y-27986144D01*
X64520779Y-27986144D01*
G37*
D11*
G04 #@! TD*
G04 #@! TO.P,R3,2*
G04 #@! TO.N,H1*
X64260000Y-28510000D03*
D10*
G04 #@! TO.N,Net-(J1-Pad4)*
G04 #@! TO.C,R3*
G36*
X64520779Y-26236144D02*
X64543834Y-26239563D01*
X64566443Y-26245227D01*
X64588387Y-26253079D01*
X64609457Y-26263044D01*
X64629448Y-26275026D01*
X64648168Y-26288910D01*
X64665438Y-26304562D01*
X64681090Y-26321832D01*
X64694974Y-26340552D01*
X64706956Y-26360543D01*
X64716921Y-26381613D01*
X64724773Y-26403557D01*
X64730437Y-26426166D01*
X64733856Y-26449221D01*
X64735000Y-26472500D01*
X64735000Y-27047500D01*
X64733856Y-27070779D01*
X64730437Y-27093834D01*
X64724773Y-27116443D01*
X64716921Y-27138387D01*
X64706956Y-27159457D01*
X64694974Y-27179448D01*
X64681090Y-27198168D01*
X64665438Y-27215438D01*
X64648168Y-27231090D01*
X64629448Y-27244974D01*
X64609457Y-27256956D01*
X64588387Y-27266921D01*
X64566443Y-27274773D01*
X64543834Y-27280437D01*
X64520779Y-27283856D01*
X64497500Y-27285000D01*
X64022500Y-27285000D01*
X63999221Y-27283856D01*
X63976166Y-27280437D01*
X63953557Y-27274773D01*
X63931613Y-27266921D01*
X63910543Y-27256956D01*
X63890552Y-27244974D01*
X63871832Y-27231090D01*
X63854562Y-27215438D01*
X63838910Y-27198168D01*
X63825026Y-27179448D01*
X63813044Y-27159457D01*
X63803079Y-27138387D01*
X63795227Y-27116443D01*
X63789563Y-27093834D01*
X63786144Y-27070779D01*
X63785000Y-27047500D01*
X63785000Y-26472500D01*
X63786144Y-26449221D01*
X63789563Y-26426166D01*
X63795227Y-26403557D01*
X63803079Y-26381613D01*
X63813044Y-26360543D01*
X63825026Y-26340552D01*
X63838910Y-26321832D01*
X63854562Y-26304562D01*
X63871832Y-26288910D01*
X63890552Y-26275026D01*
X63910543Y-26263044D01*
X63931613Y-26253079D01*
X63953557Y-26245227D01*
X63976166Y-26239563D01*
X63999221Y-26236144D01*
X64022500Y-26235000D01*
X64497500Y-26235000D01*
X64520779Y-26236144D01*
X64520779Y-26236144D01*
G37*
D11*
G04 #@! TD*
G04 #@! TO.P,R3,1*
G04 #@! TO.N,Net-(J1-Pad4)*
X64260000Y-26760000D03*
D10*
G04 #@! TO.N,GND*
G04 #@! TO.C,R4*
G36*
X73760779Y-68126144D02*
X73783834Y-68129563D01*
X73806443Y-68135227D01*
X73828387Y-68143079D01*
X73849457Y-68153044D01*
X73869448Y-68165026D01*
X73888168Y-68178910D01*
X73905438Y-68194562D01*
X73921090Y-68211832D01*
X73934974Y-68230552D01*
X73946956Y-68250543D01*
X73956921Y-68271613D01*
X73964773Y-68293557D01*
X73970437Y-68316166D01*
X73973856Y-68339221D01*
X73975000Y-68362500D01*
X73975000Y-68837500D01*
X73973856Y-68860779D01*
X73970437Y-68883834D01*
X73964773Y-68906443D01*
X73956921Y-68928387D01*
X73946956Y-68949457D01*
X73934974Y-68969448D01*
X73921090Y-68988168D01*
X73905438Y-69005438D01*
X73888168Y-69021090D01*
X73869448Y-69034974D01*
X73849457Y-69046956D01*
X73828387Y-69056921D01*
X73806443Y-69064773D01*
X73783834Y-69070437D01*
X73760779Y-69073856D01*
X73737500Y-69075000D01*
X73162500Y-69075000D01*
X73139221Y-69073856D01*
X73116166Y-69070437D01*
X73093557Y-69064773D01*
X73071613Y-69056921D01*
X73050543Y-69046956D01*
X73030552Y-69034974D01*
X73011832Y-69021090D01*
X72994562Y-69005438D01*
X72978910Y-68988168D01*
X72965026Y-68969448D01*
X72953044Y-68949457D01*
X72943079Y-68928387D01*
X72935227Y-68906443D01*
X72929563Y-68883834D01*
X72926144Y-68860779D01*
X72925000Y-68837500D01*
X72925000Y-68362500D01*
X72926144Y-68339221D01*
X72929563Y-68316166D01*
X72935227Y-68293557D01*
X72943079Y-68271613D01*
X72953044Y-68250543D01*
X72965026Y-68230552D01*
X72978910Y-68211832D01*
X72994562Y-68194562D01*
X73011832Y-68178910D01*
X73030552Y-68165026D01*
X73050543Y-68153044D01*
X73071613Y-68143079D01*
X73093557Y-68135227D01*
X73116166Y-68129563D01*
X73139221Y-68126144D01*
X73162500Y-68125000D01*
X73737500Y-68125000D01*
X73760779Y-68126144D01*
X73760779Y-68126144D01*
G37*
D11*
G04 #@! TD*
G04 #@! TO.P,R4,1*
G04 #@! TO.N,GND*
X73450000Y-68600000D03*
D10*
G04 #@! TO.N,Net-(R4-Pad2)*
G04 #@! TO.C,R4*
G36*
X75510779Y-68126144D02*
X75533834Y-68129563D01*
X75556443Y-68135227D01*
X75578387Y-68143079D01*
X75599457Y-68153044D01*
X75619448Y-68165026D01*
X75638168Y-68178910D01*
X75655438Y-68194562D01*
X75671090Y-68211832D01*
X75684974Y-68230552D01*
X75696956Y-68250543D01*
X75706921Y-68271613D01*
X75714773Y-68293557D01*
X75720437Y-68316166D01*
X75723856Y-68339221D01*
X75725000Y-68362500D01*
X75725000Y-68837500D01*
X75723856Y-68860779D01*
X75720437Y-68883834D01*
X75714773Y-68906443D01*
X75706921Y-68928387D01*
X75696956Y-68949457D01*
X75684974Y-68969448D01*
X75671090Y-68988168D01*
X75655438Y-69005438D01*
X75638168Y-69021090D01*
X75619448Y-69034974D01*
X75599457Y-69046956D01*
X75578387Y-69056921D01*
X75556443Y-69064773D01*
X75533834Y-69070437D01*
X75510779Y-69073856D01*
X75487500Y-69075000D01*
X74912500Y-69075000D01*
X74889221Y-69073856D01*
X74866166Y-69070437D01*
X74843557Y-69064773D01*
X74821613Y-69056921D01*
X74800543Y-69046956D01*
X74780552Y-69034974D01*
X74761832Y-69021090D01*
X74744562Y-69005438D01*
X74728910Y-68988168D01*
X74715026Y-68969448D01*
X74703044Y-68949457D01*
X74693079Y-68928387D01*
X74685227Y-68906443D01*
X74679563Y-68883834D01*
X74676144Y-68860779D01*
X74675000Y-68837500D01*
X74675000Y-68362500D01*
X74676144Y-68339221D01*
X74679563Y-68316166D01*
X74685227Y-68293557D01*
X74693079Y-68271613D01*
X74703044Y-68250543D01*
X74715026Y-68230552D01*
X74728910Y-68211832D01*
X74744562Y-68194562D01*
X74761832Y-68178910D01*
X74780552Y-68165026D01*
X74800543Y-68153044D01*
X74821613Y-68143079D01*
X74843557Y-68135227D01*
X74866166Y-68129563D01*
X74889221Y-68126144D01*
X74912500Y-68125000D01*
X75487500Y-68125000D01*
X75510779Y-68126144D01*
X75510779Y-68126144D01*
G37*
D11*
G04 #@! TD*
G04 #@! TO.P,R4,2*
G04 #@! TO.N,Net-(R4-Pad2)*
X75200000Y-68600000D03*
D10*
G04 #@! TO.N,+3V3*
G04 #@! TO.C,R5*
G36*
X70660779Y-60276144D02*
X70683834Y-60279563D01*
X70706443Y-60285227D01*
X70728387Y-60293079D01*
X70749457Y-60303044D01*
X70769448Y-60315026D01*
X70788168Y-60328910D01*
X70805438Y-60344562D01*
X70821090Y-60361832D01*
X70834974Y-60380552D01*
X70846956Y-60400543D01*
X70856921Y-60421613D01*
X70864773Y-60443557D01*
X70870437Y-60466166D01*
X70873856Y-60489221D01*
X70875000Y-60512500D01*
X70875000Y-61087500D01*
X70873856Y-61110779D01*
X70870437Y-61133834D01*
X70864773Y-61156443D01*
X70856921Y-61178387D01*
X70846956Y-61199457D01*
X70834974Y-61219448D01*
X70821090Y-61238168D01*
X70805438Y-61255438D01*
X70788168Y-61271090D01*
X70769448Y-61284974D01*
X70749457Y-61296956D01*
X70728387Y-61306921D01*
X70706443Y-61314773D01*
X70683834Y-61320437D01*
X70660779Y-61323856D01*
X70637500Y-61325000D01*
X70162500Y-61325000D01*
X70139221Y-61323856D01*
X70116166Y-61320437D01*
X70093557Y-61314773D01*
X70071613Y-61306921D01*
X70050543Y-61296956D01*
X70030552Y-61284974D01*
X70011832Y-61271090D01*
X69994562Y-61255438D01*
X69978910Y-61238168D01*
X69965026Y-61219448D01*
X69953044Y-61199457D01*
X69943079Y-61178387D01*
X69935227Y-61156443D01*
X69929563Y-61133834D01*
X69926144Y-61110779D01*
X69925000Y-61087500D01*
X69925000Y-60512500D01*
X69926144Y-60489221D01*
X69929563Y-60466166D01*
X69935227Y-60443557D01*
X69943079Y-60421613D01*
X69953044Y-60400543D01*
X69965026Y-60380552D01*
X69978910Y-60361832D01*
X69994562Y-60344562D01*
X70011832Y-60328910D01*
X70030552Y-60315026D01*
X70050543Y-60303044D01*
X70071613Y-60293079D01*
X70093557Y-60285227D01*
X70116166Y-60279563D01*
X70139221Y-60276144D01*
X70162500Y-60275000D01*
X70637500Y-60275000D01*
X70660779Y-60276144D01*
X70660779Y-60276144D01*
G37*
D11*
G04 #@! TD*
G04 #@! TO.P,R5,2*
G04 #@! TO.N,+3V3*
X70400000Y-60800000D03*
D10*
G04 #@! TO.N,RESET*
G04 #@! TO.C,R5*
G36*
X70660779Y-62026144D02*
X70683834Y-62029563D01*
X70706443Y-62035227D01*
X70728387Y-62043079D01*
X70749457Y-62053044D01*
X70769448Y-62065026D01*
X70788168Y-62078910D01*
X70805438Y-62094562D01*
X70821090Y-62111832D01*
X70834974Y-62130552D01*
X70846956Y-62150543D01*
X70856921Y-62171613D01*
X70864773Y-62193557D01*
X70870437Y-62216166D01*
X70873856Y-62239221D01*
X70875000Y-62262500D01*
X70875000Y-62837500D01*
X70873856Y-62860779D01*
X70870437Y-62883834D01*
X70864773Y-62906443D01*
X70856921Y-62928387D01*
X70846956Y-62949457D01*
X70834974Y-62969448D01*
X70821090Y-62988168D01*
X70805438Y-63005438D01*
X70788168Y-63021090D01*
X70769448Y-63034974D01*
X70749457Y-63046956D01*
X70728387Y-63056921D01*
X70706443Y-63064773D01*
X70683834Y-63070437D01*
X70660779Y-63073856D01*
X70637500Y-63075000D01*
X70162500Y-63075000D01*
X70139221Y-63073856D01*
X70116166Y-63070437D01*
X70093557Y-63064773D01*
X70071613Y-63056921D01*
X70050543Y-63046956D01*
X70030552Y-63034974D01*
X70011832Y-63021090D01*
X69994562Y-63005438D01*
X69978910Y-62988168D01*
X69965026Y-62969448D01*
X69953044Y-62949457D01*
X69943079Y-62928387D01*
X69935227Y-62906443D01*
X69929563Y-62883834D01*
X69926144Y-62860779D01*
X69925000Y-62837500D01*
X69925000Y-62262500D01*
X69926144Y-62239221D01*
X69929563Y-62216166D01*
X69935227Y-62193557D01*
X69943079Y-62171613D01*
X69953044Y-62150543D01*
X69965026Y-62130552D01*
X69978910Y-62111832D01*
X69994562Y-62094562D01*
X70011832Y-62078910D01*
X70030552Y-62065026D01*
X70050543Y-62053044D01*
X70071613Y-62043079D01*
X70093557Y-62035227D01*
X70116166Y-62029563D01*
X70139221Y-62026144D01*
X70162500Y-62025000D01*
X70637500Y-62025000D01*
X70660779Y-62026144D01*
X70660779Y-62026144D01*
G37*
D11*
G04 #@! TD*
G04 #@! TO.P,R5,1*
G04 #@! TO.N,RESET*
X70400000Y-62550000D03*
D10*
G04 #@! TO.N,Net-(R14-Pad1)*
G04 #@! TO.C,R6*
G36*
X60360779Y-54376144D02*
X60383834Y-54379563D01*
X60406443Y-54385227D01*
X60428387Y-54393079D01*
X60449457Y-54403044D01*
X60469448Y-54415026D01*
X60488168Y-54428910D01*
X60505438Y-54444562D01*
X60521090Y-54461832D01*
X60534974Y-54480552D01*
X60546956Y-54500543D01*
X60556921Y-54521613D01*
X60564773Y-54543557D01*
X60570437Y-54566166D01*
X60573856Y-54589221D01*
X60575000Y-54612500D01*
X60575000Y-55187500D01*
X60573856Y-55210779D01*
X60570437Y-55233834D01*
X60564773Y-55256443D01*
X60556921Y-55278387D01*
X60546956Y-55299457D01*
X60534974Y-55319448D01*
X60521090Y-55338168D01*
X60505438Y-55355438D01*
X60488168Y-55371090D01*
X60469448Y-55384974D01*
X60449457Y-55396956D01*
X60428387Y-55406921D01*
X60406443Y-55414773D01*
X60383834Y-55420437D01*
X60360779Y-55423856D01*
X60337500Y-55425000D01*
X59862500Y-55425000D01*
X59839221Y-55423856D01*
X59816166Y-55420437D01*
X59793557Y-55414773D01*
X59771613Y-55406921D01*
X59750543Y-55396956D01*
X59730552Y-55384974D01*
X59711832Y-55371090D01*
X59694562Y-55355438D01*
X59678910Y-55338168D01*
X59665026Y-55319448D01*
X59653044Y-55299457D01*
X59643079Y-55278387D01*
X59635227Y-55256443D01*
X59629563Y-55233834D01*
X59626144Y-55210779D01*
X59625000Y-55187500D01*
X59625000Y-54612500D01*
X59626144Y-54589221D01*
X59629563Y-54566166D01*
X59635227Y-54543557D01*
X59643079Y-54521613D01*
X59653044Y-54500543D01*
X59665026Y-54480552D01*
X59678910Y-54461832D01*
X59694562Y-54444562D01*
X59711832Y-54428910D01*
X59730552Y-54415026D01*
X59750543Y-54403044D01*
X59771613Y-54393079D01*
X59793557Y-54385227D01*
X59816166Y-54379563D01*
X59839221Y-54376144D01*
X59862500Y-54375000D01*
X60337500Y-54375000D01*
X60360779Y-54376144D01*
X60360779Y-54376144D01*
G37*
D11*
G04 #@! TD*
G04 #@! TO.P,R6,1*
G04 #@! TO.N,Net-(R14-Pad1)*
X60100000Y-54900000D03*
D10*
G04 #@! TO.N,+5V*
G04 #@! TO.C,R6*
G36*
X60360779Y-56126144D02*
X60383834Y-56129563D01*
X60406443Y-56135227D01*
X60428387Y-56143079D01*
X60449457Y-56153044D01*
X60469448Y-56165026D01*
X60488168Y-56178910D01*
X60505438Y-56194562D01*
X60521090Y-56211832D01*
X60534974Y-56230552D01*
X60546956Y-56250543D01*
X60556921Y-56271613D01*
X60564773Y-56293557D01*
X60570437Y-56316166D01*
X60573856Y-56339221D01*
X60575000Y-56362500D01*
X60575000Y-56937500D01*
X60573856Y-56960779D01*
X60570437Y-56983834D01*
X60564773Y-57006443D01*
X60556921Y-57028387D01*
X60546956Y-57049457D01*
X60534974Y-57069448D01*
X60521090Y-57088168D01*
X60505438Y-57105438D01*
X60488168Y-57121090D01*
X60469448Y-57134974D01*
X60449457Y-57146956D01*
X60428387Y-57156921D01*
X60406443Y-57164773D01*
X60383834Y-57170437D01*
X60360779Y-57173856D01*
X60337500Y-57175000D01*
X59862500Y-57175000D01*
X59839221Y-57173856D01*
X59816166Y-57170437D01*
X59793557Y-57164773D01*
X59771613Y-57156921D01*
X59750543Y-57146956D01*
X59730552Y-57134974D01*
X59711832Y-57121090D01*
X59694562Y-57105438D01*
X59678910Y-57088168D01*
X59665026Y-57069448D01*
X59653044Y-57049457D01*
X59643079Y-57028387D01*
X59635227Y-57006443D01*
X59629563Y-56983834D01*
X59626144Y-56960779D01*
X59625000Y-56937500D01*
X59625000Y-56362500D01*
X59626144Y-56339221D01*
X59629563Y-56316166D01*
X59635227Y-56293557D01*
X59643079Y-56271613D01*
X59653044Y-56250543D01*
X59665026Y-56230552D01*
X59678910Y-56211832D01*
X59694562Y-56194562D01*
X59711832Y-56178910D01*
X59730552Y-56165026D01*
X59750543Y-56153044D01*
X59771613Y-56143079D01*
X59793557Y-56135227D01*
X59816166Y-56129563D01*
X59839221Y-56126144D01*
X59862500Y-56125000D01*
X60337500Y-56125000D01*
X60360779Y-56126144D01*
X60360779Y-56126144D01*
G37*
D11*
G04 #@! TD*
G04 #@! TO.P,R6,2*
G04 #@! TO.N,+5V*
X60100000Y-56650000D03*
D10*
G04 #@! TO.N,+BATT*
G04 #@! TO.C,R7*
G36*
X89510779Y-28126144D02*
X89533834Y-28129563D01*
X89556443Y-28135227D01*
X89578387Y-28143079D01*
X89599457Y-28153044D01*
X89619448Y-28165026D01*
X89638168Y-28178910D01*
X89655438Y-28194562D01*
X89671090Y-28211832D01*
X89684974Y-28230552D01*
X89696956Y-28250543D01*
X89706921Y-28271613D01*
X89714773Y-28293557D01*
X89720437Y-28316166D01*
X89723856Y-28339221D01*
X89725000Y-28362500D01*
X89725000Y-28837500D01*
X89723856Y-28860779D01*
X89720437Y-28883834D01*
X89714773Y-28906443D01*
X89706921Y-28928387D01*
X89696956Y-28949457D01*
X89684974Y-28969448D01*
X89671090Y-28988168D01*
X89655438Y-29005438D01*
X89638168Y-29021090D01*
X89619448Y-29034974D01*
X89599457Y-29046956D01*
X89578387Y-29056921D01*
X89556443Y-29064773D01*
X89533834Y-29070437D01*
X89510779Y-29073856D01*
X89487500Y-29075000D01*
X88912500Y-29075000D01*
X88889221Y-29073856D01*
X88866166Y-29070437D01*
X88843557Y-29064773D01*
X88821613Y-29056921D01*
X88800543Y-29046956D01*
X88780552Y-29034974D01*
X88761832Y-29021090D01*
X88744562Y-29005438D01*
X88728910Y-28988168D01*
X88715026Y-28969448D01*
X88703044Y-28949457D01*
X88693079Y-28928387D01*
X88685227Y-28906443D01*
X88679563Y-28883834D01*
X88676144Y-28860779D01*
X88675000Y-28837500D01*
X88675000Y-28362500D01*
X88676144Y-28339221D01*
X88679563Y-28316166D01*
X88685227Y-28293557D01*
X88693079Y-28271613D01*
X88703044Y-28250543D01*
X88715026Y-28230552D01*
X88728910Y-28211832D01*
X88744562Y-28194562D01*
X88761832Y-28178910D01*
X88780552Y-28165026D01*
X88800543Y-28153044D01*
X88821613Y-28143079D01*
X88843557Y-28135227D01*
X88866166Y-28129563D01*
X88889221Y-28126144D01*
X88912500Y-28125000D01*
X89487500Y-28125000D01*
X89510779Y-28126144D01*
X89510779Y-28126144D01*
G37*
D11*
G04 #@! TD*
G04 #@! TO.P,R7,2*
G04 #@! TO.N,+BATT*
X89200000Y-28600000D03*
D10*
G04 #@! TO.N,Net-(D1-Pad2)*
G04 #@! TO.C,R7*
G36*
X91260779Y-28126144D02*
X91283834Y-28129563D01*
X91306443Y-28135227D01*
X91328387Y-28143079D01*
X91349457Y-28153044D01*
X91369448Y-28165026D01*
X91388168Y-28178910D01*
X91405438Y-28194562D01*
X91421090Y-28211832D01*
X91434974Y-28230552D01*
X91446956Y-28250543D01*
X91456921Y-28271613D01*
X91464773Y-28293557D01*
X91470437Y-28316166D01*
X91473856Y-28339221D01*
X91475000Y-28362500D01*
X91475000Y-28837500D01*
X91473856Y-28860779D01*
X91470437Y-28883834D01*
X91464773Y-28906443D01*
X91456921Y-28928387D01*
X91446956Y-28949457D01*
X91434974Y-28969448D01*
X91421090Y-28988168D01*
X91405438Y-29005438D01*
X91388168Y-29021090D01*
X91369448Y-29034974D01*
X91349457Y-29046956D01*
X91328387Y-29056921D01*
X91306443Y-29064773D01*
X91283834Y-29070437D01*
X91260779Y-29073856D01*
X91237500Y-29075000D01*
X90662500Y-29075000D01*
X90639221Y-29073856D01*
X90616166Y-29070437D01*
X90593557Y-29064773D01*
X90571613Y-29056921D01*
X90550543Y-29046956D01*
X90530552Y-29034974D01*
X90511832Y-29021090D01*
X90494562Y-29005438D01*
X90478910Y-28988168D01*
X90465026Y-28969448D01*
X90453044Y-28949457D01*
X90443079Y-28928387D01*
X90435227Y-28906443D01*
X90429563Y-28883834D01*
X90426144Y-28860779D01*
X90425000Y-28837500D01*
X90425000Y-28362500D01*
X90426144Y-28339221D01*
X90429563Y-28316166D01*
X90435227Y-28293557D01*
X90443079Y-28271613D01*
X90453044Y-28250543D01*
X90465026Y-28230552D01*
X90478910Y-28211832D01*
X90494562Y-28194562D01*
X90511832Y-28178910D01*
X90530552Y-28165026D01*
X90550543Y-28153044D01*
X90571613Y-28143079D01*
X90593557Y-28135227D01*
X90616166Y-28129563D01*
X90639221Y-28126144D01*
X90662500Y-28125000D01*
X91237500Y-28125000D01*
X91260779Y-28126144D01*
X91260779Y-28126144D01*
G37*
D11*
G04 #@! TD*
G04 #@! TO.P,R7,1*
G04 #@! TO.N,Net-(D1-Pad2)*
X90950000Y-28600000D03*
D10*
G04 #@! TO.N,+5V*
G04 #@! TO.C,R8*
G36*
X63610779Y-56126144D02*
X63633834Y-56129563D01*
X63656443Y-56135227D01*
X63678387Y-56143079D01*
X63699457Y-56153044D01*
X63719448Y-56165026D01*
X63738168Y-56178910D01*
X63755438Y-56194562D01*
X63771090Y-56211832D01*
X63784974Y-56230552D01*
X63796956Y-56250543D01*
X63806921Y-56271613D01*
X63814773Y-56293557D01*
X63820437Y-56316166D01*
X63823856Y-56339221D01*
X63825000Y-56362500D01*
X63825000Y-56937500D01*
X63823856Y-56960779D01*
X63820437Y-56983834D01*
X63814773Y-57006443D01*
X63806921Y-57028387D01*
X63796956Y-57049457D01*
X63784974Y-57069448D01*
X63771090Y-57088168D01*
X63755438Y-57105438D01*
X63738168Y-57121090D01*
X63719448Y-57134974D01*
X63699457Y-57146956D01*
X63678387Y-57156921D01*
X63656443Y-57164773D01*
X63633834Y-57170437D01*
X63610779Y-57173856D01*
X63587500Y-57175000D01*
X63112500Y-57175000D01*
X63089221Y-57173856D01*
X63066166Y-57170437D01*
X63043557Y-57164773D01*
X63021613Y-57156921D01*
X63000543Y-57146956D01*
X62980552Y-57134974D01*
X62961832Y-57121090D01*
X62944562Y-57105438D01*
X62928910Y-57088168D01*
X62915026Y-57069448D01*
X62903044Y-57049457D01*
X62893079Y-57028387D01*
X62885227Y-57006443D01*
X62879563Y-56983834D01*
X62876144Y-56960779D01*
X62875000Y-56937500D01*
X62875000Y-56362500D01*
X62876144Y-56339221D01*
X62879563Y-56316166D01*
X62885227Y-56293557D01*
X62893079Y-56271613D01*
X62903044Y-56250543D01*
X62915026Y-56230552D01*
X62928910Y-56211832D01*
X62944562Y-56194562D01*
X62961832Y-56178910D01*
X62980552Y-56165026D01*
X63000543Y-56153044D01*
X63021613Y-56143079D01*
X63043557Y-56135227D01*
X63066166Y-56129563D01*
X63089221Y-56126144D01*
X63112500Y-56125000D01*
X63587500Y-56125000D01*
X63610779Y-56126144D01*
X63610779Y-56126144D01*
G37*
D11*
G04 #@! TD*
G04 #@! TO.P,R8,2*
G04 #@! TO.N,+5V*
X63350000Y-56650000D03*
D10*
G04 #@! TO.N,Net-(R27-Pad1)*
G04 #@! TO.C,R8*
G36*
X63610779Y-54376144D02*
X63633834Y-54379563D01*
X63656443Y-54385227D01*
X63678387Y-54393079D01*
X63699457Y-54403044D01*
X63719448Y-54415026D01*
X63738168Y-54428910D01*
X63755438Y-54444562D01*
X63771090Y-54461832D01*
X63784974Y-54480552D01*
X63796956Y-54500543D01*
X63806921Y-54521613D01*
X63814773Y-54543557D01*
X63820437Y-54566166D01*
X63823856Y-54589221D01*
X63825000Y-54612500D01*
X63825000Y-55187500D01*
X63823856Y-55210779D01*
X63820437Y-55233834D01*
X63814773Y-55256443D01*
X63806921Y-55278387D01*
X63796956Y-55299457D01*
X63784974Y-55319448D01*
X63771090Y-55338168D01*
X63755438Y-55355438D01*
X63738168Y-55371090D01*
X63719448Y-55384974D01*
X63699457Y-55396956D01*
X63678387Y-55406921D01*
X63656443Y-55414773D01*
X63633834Y-55420437D01*
X63610779Y-55423856D01*
X63587500Y-55425000D01*
X63112500Y-55425000D01*
X63089221Y-55423856D01*
X63066166Y-55420437D01*
X63043557Y-55414773D01*
X63021613Y-55406921D01*
X63000543Y-55396956D01*
X62980552Y-55384974D01*
X62961832Y-55371090D01*
X62944562Y-55355438D01*
X62928910Y-55338168D01*
X62915026Y-55319448D01*
X62903044Y-55299457D01*
X62893079Y-55278387D01*
X62885227Y-55256443D01*
X62879563Y-55233834D01*
X62876144Y-55210779D01*
X62875000Y-55187500D01*
X62875000Y-54612500D01*
X62876144Y-54589221D01*
X62879563Y-54566166D01*
X62885227Y-54543557D01*
X62893079Y-54521613D01*
X62903044Y-54500543D01*
X62915026Y-54480552D01*
X62928910Y-54461832D01*
X62944562Y-54444562D01*
X62961832Y-54428910D01*
X62980552Y-54415026D01*
X63000543Y-54403044D01*
X63021613Y-54393079D01*
X63043557Y-54385227D01*
X63066166Y-54379563D01*
X63089221Y-54376144D01*
X63112500Y-54375000D01*
X63587500Y-54375000D01*
X63610779Y-54376144D01*
X63610779Y-54376144D01*
G37*
D11*
G04 #@! TD*
G04 #@! TO.P,R8,1*
G04 #@! TO.N,Net-(R27-Pad1)*
X63350000Y-54900000D03*
D10*
G04 #@! TO.N,+5V*
G04 #@! TO.C,R11*
G36*
X89510779Y-30026144D02*
X89533834Y-30029563D01*
X89556443Y-30035227D01*
X89578387Y-30043079D01*
X89599457Y-30053044D01*
X89619448Y-30065026D01*
X89638168Y-30078910D01*
X89655438Y-30094562D01*
X89671090Y-30111832D01*
X89684974Y-30130552D01*
X89696956Y-30150543D01*
X89706921Y-30171613D01*
X89714773Y-30193557D01*
X89720437Y-30216166D01*
X89723856Y-30239221D01*
X89725000Y-30262500D01*
X89725000Y-30737500D01*
X89723856Y-30760779D01*
X89720437Y-30783834D01*
X89714773Y-30806443D01*
X89706921Y-30828387D01*
X89696956Y-30849457D01*
X89684974Y-30869448D01*
X89671090Y-30888168D01*
X89655438Y-30905438D01*
X89638168Y-30921090D01*
X89619448Y-30934974D01*
X89599457Y-30946956D01*
X89578387Y-30956921D01*
X89556443Y-30964773D01*
X89533834Y-30970437D01*
X89510779Y-30973856D01*
X89487500Y-30975000D01*
X88912500Y-30975000D01*
X88889221Y-30973856D01*
X88866166Y-30970437D01*
X88843557Y-30964773D01*
X88821613Y-30956921D01*
X88800543Y-30946956D01*
X88780552Y-30934974D01*
X88761832Y-30921090D01*
X88744562Y-30905438D01*
X88728910Y-30888168D01*
X88715026Y-30869448D01*
X88703044Y-30849457D01*
X88693079Y-30828387D01*
X88685227Y-30806443D01*
X88679563Y-30783834D01*
X88676144Y-30760779D01*
X88675000Y-30737500D01*
X88675000Y-30262500D01*
X88676144Y-30239221D01*
X88679563Y-30216166D01*
X88685227Y-30193557D01*
X88693079Y-30171613D01*
X88703044Y-30150543D01*
X88715026Y-30130552D01*
X88728910Y-30111832D01*
X88744562Y-30094562D01*
X88761832Y-30078910D01*
X88780552Y-30065026D01*
X88800543Y-30053044D01*
X88821613Y-30043079D01*
X88843557Y-30035227D01*
X88866166Y-30029563D01*
X88889221Y-30026144D01*
X88912500Y-30025000D01*
X89487500Y-30025000D01*
X89510779Y-30026144D01*
X89510779Y-30026144D01*
G37*
D11*
G04 #@! TD*
G04 #@! TO.P,R11,2*
G04 #@! TO.N,+5V*
X89200000Y-30500000D03*
D10*
G04 #@! TO.N,Net-(D2-Pad2)*
G04 #@! TO.C,R11*
G36*
X91260779Y-30026144D02*
X91283834Y-30029563D01*
X91306443Y-30035227D01*
X91328387Y-30043079D01*
X91349457Y-30053044D01*
X91369448Y-30065026D01*
X91388168Y-30078910D01*
X91405438Y-30094562D01*
X91421090Y-30111832D01*
X91434974Y-30130552D01*
X91446956Y-30150543D01*
X91456921Y-30171613D01*
X91464773Y-30193557D01*
X91470437Y-30216166D01*
X91473856Y-30239221D01*
X91475000Y-30262500D01*
X91475000Y-30737500D01*
X91473856Y-30760779D01*
X91470437Y-30783834D01*
X91464773Y-30806443D01*
X91456921Y-30828387D01*
X91446956Y-30849457D01*
X91434974Y-30869448D01*
X91421090Y-30888168D01*
X91405438Y-30905438D01*
X91388168Y-30921090D01*
X91369448Y-30934974D01*
X91349457Y-30946956D01*
X91328387Y-30956921D01*
X91306443Y-30964773D01*
X91283834Y-30970437D01*
X91260779Y-30973856D01*
X91237500Y-30975000D01*
X90662500Y-30975000D01*
X90639221Y-30973856D01*
X90616166Y-30970437D01*
X90593557Y-30964773D01*
X90571613Y-30956921D01*
X90550543Y-30946956D01*
X90530552Y-30934974D01*
X90511832Y-30921090D01*
X90494562Y-30905438D01*
X90478910Y-30888168D01*
X90465026Y-30869448D01*
X90453044Y-30849457D01*
X90443079Y-30828387D01*
X90435227Y-30806443D01*
X90429563Y-30783834D01*
X90426144Y-30760779D01*
X90425000Y-30737500D01*
X90425000Y-30262500D01*
X90426144Y-30239221D01*
X90429563Y-30216166D01*
X90435227Y-30193557D01*
X90443079Y-30171613D01*
X90453044Y-30150543D01*
X90465026Y-30130552D01*
X90478910Y-30111832D01*
X90494562Y-30094562D01*
X90511832Y-30078910D01*
X90530552Y-30065026D01*
X90550543Y-30053044D01*
X90571613Y-30043079D01*
X90593557Y-30035227D01*
X90616166Y-30029563D01*
X90639221Y-30026144D01*
X90662500Y-30025000D01*
X91237500Y-30025000D01*
X91260779Y-30026144D01*
X91260779Y-30026144D01*
G37*
D11*
G04 #@! TD*
G04 #@! TO.P,R11,1*
G04 #@! TO.N,Net-(D2-Pad2)*
X90950000Y-30500000D03*
D10*
G04 #@! TO.N,Net-(R14-Pad1)*
G04 #@! TO.C,R14*
G36*
X61860779Y-54376144D02*
X61883834Y-54379563D01*
X61906443Y-54385227D01*
X61928387Y-54393079D01*
X61949457Y-54403044D01*
X61969448Y-54415026D01*
X61988168Y-54428910D01*
X62005438Y-54444562D01*
X62021090Y-54461832D01*
X62034974Y-54480552D01*
X62046956Y-54500543D01*
X62056921Y-54521613D01*
X62064773Y-54543557D01*
X62070437Y-54566166D01*
X62073856Y-54589221D01*
X62075000Y-54612500D01*
X62075000Y-55187500D01*
X62073856Y-55210779D01*
X62070437Y-55233834D01*
X62064773Y-55256443D01*
X62056921Y-55278387D01*
X62046956Y-55299457D01*
X62034974Y-55319448D01*
X62021090Y-55338168D01*
X62005438Y-55355438D01*
X61988168Y-55371090D01*
X61969448Y-55384974D01*
X61949457Y-55396956D01*
X61928387Y-55406921D01*
X61906443Y-55414773D01*
X61883834Y-55420437D01*
X61860779Y-55423856D01*
X61837500Y-55425000D01*
X61362500Y-55425000D01*
X61339221Y-55423856D01*
X61316166Y-55420437D01*
X61293557Y-55414773D01*
X61271613Y-55406921D01*
X61250543Y-55396956D01*
X61230552Y-55384974D01*
X61211832Y-55371090D01*
X61194562Y-55355438D01*
X61178910Y-55338168D01*
X61165026Y-55319448D01*
X61153044Y-55299457D01*
X61143079Y-55278387D01*
X61135227Y-55256443D01*
X61129563Y-55233834D01*
X61126144Y-55210779D01*
X61125000Y-55187500D01*
X61125000Y-54612500D01*
X61126144Y-54589221D01*
X61129563Y-54566166D01*
X61135227Y-54543557D01*
X61143079Y-54521613D01*
X61153044Y-54500543D01*
X61165026Y-54480552D01*
X61178910Y-54461832D01*
X61194562Y-54444562D01*
X61211832Y-54428910D01*
X61230552Y-54415026D01*
X61250543Y-54403044D01*
X61271613Y-54393079D01*
X61293557Y-54385227D01*
X61316166Y-54379563D01*
X61339221Y-54376144D01*
X61362500Y-54375000D01*
X61837500Y-54375000D01*
X61860779Y-54376144D01*
X61860779Y-54376144D01*
G37*
D11*
G04 #@! TD*
G04 #@! TO.P,R14,1*
G04 #@! TO.N,Net-(R14-Pad1)*
X61600000Y-54900000D03*
D10*
G04 #@! TO.N,GND*
G04 #@! TO.C,R14*
G36*
X61860779Y-56126144D02*
X61883834Y-56129563D01*
X61906443Y-56135227D01*
X61928387Y-56143079D01*
X61949457Y-56153044D01*
X61969448Y-56165026D01*
X61988168Y-56178910D01*
X62005438Y-56194562D01*
X62021090Y-56211832D01*
X62034974Y-56230552D01*
X62046956Y-56250543D01*
X62056921Y-56271613D01*
X62064773Y-56293557D01*
X62070437Y-56316166D01*
X62073856Y-56339221D01*
X62075000Y-56362500D01*
X62075000Y-56937500D01*
X62073856Y-56960779D01*
X62070437Y-56983834D01*
X62064773Y-57006443D01*
X62056921Y-57028387D01*
X62046956Y-57049457D01*
X62034974Y-57069448D01*
X62021090Y-57088168D01*
X62005438Y-57105438D01*
X61988168Y-57121090D01*
X61969448Y-57134974D01*
X61949457Y-57146956D01*
X61928387Y-57156921D01*
X61906443Y-57164773D01*
X61883834Y-57170437D01*
X61860779Y-57173856D01*
X61837500Y-57175000D01*
X61362500Y-57175000D01*
X61339221Y-57173856D01*
X61316166Y-57170437D01*
X61293557Y-57164773D01*
X61271613Y-57156921D01*
X61250543Y-57146956D01*
X61230552Y-57134974D01*
X61211832Y-57121090D01*
X61194562Y-57105438D01*
X61178910Y-57088168D01*
X61165026Y-57069448D01*
X61153044Y-57049457D01*
X61143079Y-57028387D01*
X61135227Y-57006443D01*
X61129563Y-56983834D01*
X61126144Y-56960779D01*
X61125000Y-56937500D01*
X61125000Y-56362500D01*
X61126144Y-56339221D01*
X61129563Y-56316166D01*
X61135227Y-56293557D01*
X61143079Y-56271613D01*
X61153044Y-56250543D01*
X61165026Y-56230552D01*
X61178910Y-56211832D01*
X61194562Y-56194562D01*
X61211832Y-56178910D01*
X61230552Y-56165026D01*
X61250543Y-56153044D01*
X61271613Y-56143079D01*
X61293557Y-56135227D01*
X61316166Y-56129563D01*
X61339221Y-56126144D01*
X61362500Y-56125000D01*
X61837500Y-56125000D01*
X61860779Y-56126144D01*
X61860779Y-56126144D01*
G37*
D11*
G04 #@! TD*
G04 #@! TO.P,R14,2*
G04 #@! TO.N,GND*
X61600000Y-56650000D03*
D10*
G04 #@! TO.N,GND*
G04 #@! TO.C,R27*
G36*
X65110779Y-56126144D02*
X65133834Y-56129563D01*
X65156443Y-56135227D01*
X65178387Y-56143079D01*
X65199457Y-56153044D01*
X65219448Y-56165026D01*
X65238168Y-56178910D01*
X65255438Y-56194562D01*
X65271090Y-56211832D01*
X65284974Y-56230552D01*
X65296956Y-56250543D01*
X65306921Y-56271613D01*
X65314773Y-56293557D01*
X65320437Y-56316166D01*
X65323856Y-56339221D01*
X65325000Y-56362500D01*
X65325000Y-56937500D01*
X65323856Y-56960779D01*
X65320437Y-56983834D01*
X65314773Y-57006443D01*
X65306921Y-57028387D01*
X65296956Y-57049457D01*
X65284974Y-57069448D01*
X65271090Y-57088168D01*
X65255438Y-57105438D01*
X65238168Y-57121090D01*
X65219448Y-57134974D01*
X65199457Y-57146956D01*
X65178387Y-57156921D01*
X65156443Y-57164773D01*
X65133834Y-57170437D01*
X65110779Y-57173856D01*
X65087500Y-57175000D01*
X64612500Y-57175000D01*
X64589221Y-57173856D01*
X64566166Y-57170437D01*
X64543557Y-57164773D01*
X64521613Y-57156921D01*
X64500543Y-57146956D01*
X64480552Y-57134974D01*
X64461832Y-57121090D01*
X64444562Y-57105438D01*
X64428910Y-57088168D01*
X64415026Y-57069448D01*
X64403044Y-57049457D01*
X64393079Y-57028387D01*
X64385227Y-57006443D01*
X64379563Y-56983834D01*
X64376144Y-56960779D01*
X64375000Y-56937500D01*
X64375000Y-56362500D01*
X64376144Y-56339221D01*
X64379563Y-56316166D01*
X64385227Y-56293557D01*
X64393079Y-56271613D01*
X64403044Y-56250543D01*
X64415026Y-56230552D01*
X64428910Y-56211832D01*
X64444562Y-56194562D01*
X64461832Y-56178910D01*
X64480552Y-56165026D01*
X64500543Y-56153044D01*
X64521613Y-56143079D01*
X64543557Y-56135227D01*
X64566166Y-56129563D01*
X64589221Y-56126144D01*
X64612500Y-56125000D01*
X65087500Y-56125000D01*
X65110779Y-56126144D01*
X65110779Y-56126144D01*
G37*
D11*
G04 #@! TD*
G04 #@! TO.P,R27,2*
G04 #@! TO.N,GND*
X64850000Y-56650000D03*
D10*
G04 #@! TO.N,Net-(R27-Pad1)*
G04 #@! TO.C,R27*
G36*
X65110779Y-54376144D02*
X65133834Y-54379563D01*
X65156443Y-54385227D01*
X65178387Y-54393079D01*
X65199457Y-54403044D01*
X65219448Y-54415026D01*
X65238168Y-54428910D01*
X65255438Y-54444562D01*
X65271090Y-54461832D01*
X65284974Y-54480552D01*
X65296956Y-54500543D01*
X65306921Y-54521613D01*
X65314773Y-54543557D01*
X65320437Y-54566166D01*
X65323856Y-54589221D01*
X65325000Y-54612500D01*
X65325000Y-55187500D01*
X65323856Y-55210779D01*
X65320437Y-55233834D01*
X65314773Y-55256443D01*
X65306921Y-55278387D01*
X65296956Y-55299457D01*
X65284974Y-55319448D01*
X65271090Y-55338168D01*
X65255438Y-55355438D01*
X65238168Y-55371090D01*
X65219448Y-55384974D01*
X65199457Y-55396956D01*
X65178387Y-55406921D01*
X65156443Y-55414773D01*
X65133834Y-55420437D01*
X65110779Y-55423856D01*
X65087500Y-55425000D01*
X64612500Y-55425000D01*
X64589221Y-55423856D01*
X64566166Y-55420437D01*
X64543557Y-55414773D01*
X64521613Y-55406921D01*
X64500543Y-55396956D01*
X64480552Y-55384974D01*
X64461832Y-55371090D01*
X64444562Y-55355438D01*
X64428910Y-55338168D01*
X64415026Y-55319448D01*
X64403044Y-55299457D01*
X64393079Y-55278387D01*
X64385227Y-55256443D01*
X64379563Y-55233834D01*
X64376144Y-55210779D01*
X64375000Y-55187500D01*
X64375000Y-54612500D01*
X64376144Y-54589221D01*
X64379563Y-54566166D01*
X64385227Y-54543557D01*
X64393079Y-54521613D01*
X64403044Y-54500543D01*
X64415026Y-54480552D01*
X64428910Y-54461832D01*
X64444562Y-54444562D01*
X64461832Y-54428910D01*
X64480552Y-54415026D01*
X64500543Y-54403044D01*
X64521613Y-54393079D01*
X64543557Y-54385227D01*
X64566166Y-54379563D01*
X64589221Y-54376144D01*
X64612500Y-54375000D01*
X65087500Y-54375000D01*
X65110779Y-54376144D01*
X65110779Y-54376144D01*
G37*
D11*
G04 #@! TD*
G04 #@! TO.P,R27,1*
G04 #@! TO.N,Net-(R27-Pad1)*
X64850000Y-54900000D03*
D14*
G04 #@! TO.P,J5,1*
G04 #@! TO.N,phase_C*
X82950000Y-28125000D03*
G04 #@! TO.P,J5,2*
G04 #@! TO.N,phase_B*
X80450000Y-28125000D03*
G04 #@! TO.P,J5,3*
G04 #@! TO.N,phase_A*
X77950000Y-28125000D03*
D15*
G04 #@! TO.P,J5,4*
G04 #@! TO.N,N/C*
X81700000Y-26785000D03*
G04 #@! TD*
D10*
G04 #@! TO.N,+3V3*
G04 #@! TO.C,C2*
G36*
X75160779Y-50326144D02*
X75183834Y-50329563D01*
X75206443Y-50335227D01*
X75228387Y-50343079D01*
X75249457Y-50353044D01*
X75269448Y-50365026D01*
X75288168Y-50378910D01*
X75305438Y-50394562D01*
X75321090Y-50411832D01*
X75334974Y-50430552D01*
X75346956Y-50450543D01*
X75356921Y-50471613D01*
X75364773Y-50493557D01*
X75370437Y-50516166D01*
X75373856Y-50539221D01*
X75375000Y-50562500D01*
X75375000Y-51037500D01*
X75373856Y-51060779D01*
X75370437Y-51083834D01*
X75364773Y-51106443D01*
X75356921Y-51128387D01*
X75346956Y-51149457D01*
X75334974Y-51169448D01*
X75321090Y-51188168D01*
X75305438Y-51205438D01*
X75288168Y-51221090D01*
X75269448Y-51234974D01*
X75249457Y-51246956D01*
X75228387Y-51256921D01*
X75206443Y-51264773D01*
X75183834Y-51270437D01*
X75160779Y-51273856D01*
X75137500Y-51275000D01*
X74562500Y-51275000D01*
X74539221Y-51273856D01*
X74516166Y-51270437D01*
X74493557Y-51264773D01*
X74471613Y-51256921D01*
X74450543Y-51246956D01*
X74430552Y-51234974D01*
X74411832Y-51221090D01*
X74394562Y-51205438D01*
X74378910Y-51188168D01*
X74365026Y-51169448D01*
X74353044Y-51149457D01*
X74343079Y-51128387D01*
X74335227Y-51106443D01*
X74329563Y-51083834D01*
X74326144Y-51060779D01*
X74325000Y-51037500D01*
X74325000Y-50562500D01*
X74326144Y-50539221D01*
X74329563Y-50516166D01*
X74335227Y-50493557D01*
X74343079Y-50471613D01*
X74353044Y-50450543D01*
X74365026Y-50430552D01*
X74378910Y-50411832D01*
X74394562Y-50394562D01*
X74411832Y-50378910D01*
X74430552Y-50365026D01*
X74450543Y-50353044D01*
X74471613Y-50343079D01*
X74493557Y-50335227D01*
X74516166Y-50329563D01*
X74539221Y-50326144D01*
X74562500Y-50325000D01*
X75137500Y-50325000D01*
X75160779Y-50326144D01*
X75160779Y-50326144D01*
G37*
D11*
G04 #@! TD*
G04 #@! TO.P,C2,1*
G04 #@! TO.N,+3V3*
X74850000Y-50800000D03*
D10*
G04 #@! TO.N,GND*
G04 #@! TO.C,C2*
G36*
X73410779Y-50326144D02*
X73433834Y-50329563D01*
X73456443Y-50335227D01*
X73478387Y-50343079D01*
X73499457Y-50353044D01*
X73519448Y-50365026D01*
X73538168Y-50378910D01*
X73555438Y-50394562D01*
X73571090Y-50411832D01*
X73584974Y-50430552D01*
X73596956Y-50450543D01*
X73606921Y-50471613D01*
X73614773Y-50493557D01*
X73620437Y-50516166D01*
X73623856Y-50539221D01*
X73625000Y-50562500D01*
X73625000Y-51037500D01*
X73623856Y-51060779D01*
X73620437Y-51083834D01*
X73614773Y-51106443D01*
X73606921Y-51128387D01*
X73596956Y-51149457D01*
X73584974Y-51169448D01*
X73571090Y-51188168D01*
X73555438Y-51205438D01*
X73538168Y-51221090D01*
X73519448Y-51234974D01*
X73499457Y-51246956D01*
X73478387Y-51256921D01*
X73456443Y-51264773D01*
X73433834Y-51270437D01*
X73410779Y-51273856D01*
X73387500Y-51275000D01*
X72812500Y-51275000D01*
X72789221Y-51273856D01*
X72766166Y-51270437D01*
X72743557Y-51264773D01*
X72721613Y-51256921D01*
X72700543Y-51246956D01*
X72680552Y-51234974D01*
X72661832Y-51221090D01*
X72644562Y-51205438D01*
X72628910Y-51188168D01*
X72615026Y-51169448D01*
X72603044Y-51149457D01*
X72593079Y-51128387D01*
X72585227Y-51106443D01*
X72579563Y-51083834D01*
X72576144Y-51060779D01*
X72575000Y-51037500D01*
X72575000Y-50562500D01*
X72576144Y-50539221D01*
X72579563Y-50516166D01*
X72585227Y-50493557D01*
X72593079Y-50471613D01*
X72603044Y-50450543D01*
X72615026Y-50430552D01*
X72628910Y-50411832D01*
X72644562Y-50394562D01*
X72661832Y-50378910D01*
X72680552Y-50365026D01*
X72700543Y-50353044D01*
X72721613Y-50343079D01*
X72743557Y-50335227D01*
X72766166Y-50329563D01*
X72789221Y-50326144D01*
X72812500Y-50325000D01*
X73387500Y-50325000D01*
X73410779Y-50326144D01*
X73410779Y-50326144D01*
G37*
D11*
G04 #@! TD*
G04 #@! TO.P,C2,2*
G04 #@! TO.N,GND*
X73100000Y-50800000D03*
D16*
G04 #@! TO.P,IC1,1*
G04 #@! TO.N,+3V3*
X74758000Y-49405000D03*
G04 #@! TO.P,IC1,2*
X74758000Y-48135000D03*
G04 #@! TO.P,IC1,3*
G04 #@! TO.N,Net-(IC1-Pad3)*
X74758000Y-46865000D03*
G04 #@! TO.P,IC1,4*
G04 #@! TO.N,GND*
X74758000Y-45595000D03*
G04 #@! TO.P,IC1,5*
G04 #@! TO.N,ENCB*
X80182000Y-45595000D03*
G04 #@! TO.P,IC1,6*
G04 #@! TO.N,I2C1_SDA*
X80182000Y-46865000D03*
G04 #@! TO.P,IC1,7*
G04 #@! TO.N,I2C1_SCL*
X80182000Y-48135000D03*
G04 #@! TO.P,IC1,8*
G04 #@! TO.N,ENCA*
X80182000Y-49405000D03*
G04 #@! TD*
D17*
G04 #@! TO.P,U1,1*
G04 #@! TO.N,+3V3*
X73150000Y-64200000D03*
G04 #@! TO.P,U1,2*
G04 #@! TO.N,Net-(U1-Pad2)*
X73150000Y-63400000D03*
G04 #@! TO.P,U1,3*
G04 #@! TO.N,Net-(U1-Pad3)*
X73150000Y-62600000D03*
G04 #@! TO.P,U1,4*
G04 #@! TO.N,RESET*
X73150000Y-61800000D03*
G04 #@! TO.P,U1,5*
G04 #@! TO.N,+3V3*
X73150000Y-61000000D03*
G04 #@! TO.P,U1,6*
G04 #@! TO.N,CSOUT*
X73150000Y-60200000D03*
G04 #@! TO.P,U1,7*
G04 #@! TO.N,Net-(U1-Pad7)*
X73150000Y-59400000D03*
G04 #@! TO.P,U1,8*
G04 #@! TO.N,Net-(U1-Pad8)*
X73150000Y-58600000D03*
D18*
G04 #@! TO.P,U1,9*
G04 #@! TO.N,Net-(U1-Pad9)*
X74600000Y-57150000D03*
G04 #@! TO.P,U1,10*
G04 #@! TO.N,Net-(U1-Pad10)*
X75400000Y-57150000D03*
G04 #@! TO.P,U1,11*
G04 #@! TO.N,PWM*
X76200000Y-57150000D03*
G04 #@! TO.P,U1,12*
G04 #@! TO.N,DIR*
X77000000Y-57150000D03*
G04 #@! TO.P,U1,13*
G04 #@! TO.N,FF1*
X77800000Y-57150000D03*
G04 #@! TO.P,U1,14*
G04 #@! TO.N,FF2*
X78600000Y-57150000D03*
G04 #@! TO.P,U1,15*
G04 #@! TO.N,ESF*
X79400000Y-57150000D03*
G04 #@! TO.P,U1,16*
G04 #@! TO.N,GND*
X80200000Y-57150000D03*
D17*
G04 #@! TO.P,U1,17*
G04 #@! TO.N,+3V3*
X81650000Y-58600000D03*
G04 #@! TO.P,U1,18*
G04 #@! TO.N,Net-(U1-Pad18)*
X81650000Y-59400000D03*
G04 #@! TO.P,U1,19*
G04 #@! TO.N,USART1_TX*
X81650000Y-60200000D03*
G04 #@! TO.P,U1,20*
G04 #@! TO.N,USART1_RX*
X81650000Y-61000000D03*
G04 #@! TO.P,U1,21*
G04 #@! TO.N,CAN_RX*
X81650000Y-61800000D03*
G04 #@! TO.P,U1,22*
G04 #@! TO.N,CAN_TX*
X81650000Y-62600000D03*
G04 #@! TO.P,U1,23*
G04 #@! TO.N,SWDIO*
X81650000Y-63400000D03*
G04 #@! TO.P,U1,24*
G04 #@! TO.N,SWCLK*
X81650000Y-64200000D03*
D18*
G04 #@! TO.P,U1,25*
G04 #@! TO.N,I2C1_SCL*
X80200000Y-65650000D03*
G04 #@! TO.P,U1,26*
G04 #@! TO.N,Net-(U1-Pad26)*
X79400000Y-65650000D03*
G04 #@! TO.P,U1,27*
G04 #@! TO.N,Net-(U1-Pad27)*
X78600000Y-65650000D03*
G04 #@! TO.P,U1,28*
G04 #@! TO.N,Net-(U1-Pad28)*
X77800000Y-65650000D03*
G04 #@! TO.P,U1,29*
G04 #@! TO.N,Net-(U1-Pad29)*
X77000000Y-65650000D03*
G04 #@! TO.P,U1,30*
G04 #@! TO.N,I2C1_SDA*
X76200000Y-65650000D03*
G04 #@! TO.P,U1,31*
G04 #@! TO.N,Net-(R4-Pad2)*
X75400000Y-65650000D03*
G04 #@! TO.P,U1,32*
G04 #@! TO.N,GND*
X74600000Y-65650000D03*
G04 #@! TD*
D19*
G04 #@! TO.P,R50,1*
G04 #@! TO.N,/drive/LSS*
X97800000Y-38335000D03*
G04 #@! TO.P,R50,2*
G04 #@! TO.N,GND*
X97800000Y-33015000D03*
G04 #@! TD*
D10*
G04 #@! TO.N,+BATT*
G04 #@! TO.C,C17*
G36*
X87410779Y-34901144D02*
X87433834Y-34904563D01*
X87456443Y-34910227D01*
X87478387Y-34918079D01*
X87499457Y-34928044D01*
X87519448Y-34940026D01*
X87538168Y-34953910D01*
X87555438Y-34969562D01*
X87571090Y-34986832D01*
X87584974Y-35005552D01*
X87596956Y-35025543D01*
X87606921Y-35046613D01*
X87614773Y-35068557D01*
X87620437Y-35091166D01*
X87623856Y-35114221D01*
X87625000Y-35137500D01*
X87625000Y-35712500D01*
X87623856Y-35735779D01*
X87620437Y-35758834D01*
X87614773Y-35781443D01*
X87606921Y-35803387D01*
X87596956Y-35824457D01*
X87584974Y-35844448D01*
X87571090Y-35863168D01*
X87555438Y-35880438D01*
X87538168Y-35896090D01*
X87519448Y-35909974D01*
X87499457Y-35921956D01*
X87478387Y-35931921D01*
X87456443Y-35939773D01*
X87433834Y-35945437D01*
X87410779Y-35948856D01*
X87387500Y-35950000D01*
X86912500Y-35950000D01*
X86889221Y-35948856D01*
X86866166Y-35945437D01*
X86843557Y-35939773D01*
X86821613Y-35931921D01*
X86800543Y-35921956D01*
X86780552Y-35909974D01*
X86761832Y-35896090D01*
X86744562Y-35880438D01*
X86728910Y-35863168D01*
X86715026Y-35844448D01*
X86703044Y-35824457D01*
X86693079Y-35803387D01*
X86685227Y-35781443D01*
X86679563Y-35758834D01*
X86676144Y-35735779D01*
X86675000Y-35712500D01*
X86675000Y-35137500D01*
X86676144Y-35114221D01*
X86679563Y-35091166D01*
X86685227Y-35068557D01*
X86693079Y-35046613D01*
X86703044Y-35025543D01*
X86715026Y-35005552D01*
X86728910Y-34986832D01*
X86744562Y-34969562D01*
X86761832Y-34953910D01*
X86780552Y-34940026D01*
X86800543Y-34928044D01*
X86821613Y-34918079D01*
X86843557Y-34910227D01*
X86866166Y-34904563D01*
X86889221Y-34901144D01*
X86912500Y-34900000D01*
X87387500Y-34900000D01*
X87410779Y-34901144D01*
X87410779Y-34901144D01*
G37*
D11*
G04 #@! TD*
G04 #@! TO.P,C17,1*
G04 #@! TO.N,+BATT*
X87150000Y-35425000D03*
D10*
G04 #@! TO.N,/drive/LSS*
G04 #@! TO.C,C17*
G36*
X87410779Y-36651144D02*
X87433834Y-36654563D01*
X87456443Y-36660227D01*
X87478387Y-36668079D01*
X87499457Y-36678044D01*
X87519448Y-36690026D01*
X87538168Y-36703910D01*
X87555438Y-36719562D01*
X87571090Y-36736832D01*
X87584974Y-36755552D01*
X87596956Y-36775543D01*
X87606921Y-36796613D01*
X87614773Y-36818557D01*
X87620437Y-36841166D01*
X87623856Y-36864221D01*
X87625000Y-36887500D01*
X87625000Y-37462500D01*
X87623856Y-37485779D01*
X87620437Y-37508834D01*
X87614773Y-37531443D01*
X87606921Y-37553387D01*
X87596956Y-37574457D01*
X87584974Y-37594448D01*
X87571090Y-37613168D01*
X87555438Y-37630438D01*
X87538168Y-37646090D01*
X87519448Y-37659974D01*
X87499457Y-37671956D01*
X87478387Y-37681921D01*
X87456443Y-37689773D01*
X87433834Y-37695437D01*
X87410779Y-37698856D01*
X87387500Y-37700000D01*
X86912500Y-37700000D01*
X86889221Y-37698856D01*
X86866166Y-37695437D01*
X86843557Y-37689773D01*
X86821613Y-37681921D01*
X86800543Y-37671956D01*
X86780552Y-37659974D01*
X86761832Y-37646090D01*
X86744562Y-37630438D01*
X86728910Y-37613168D01*
X86715026Y-37594448D01*
X86703044Y-37574457D01*
X86693079Y-37553387D01*
X86685227Y-37531443D01*
X86679563Y-37508834D01*
X86676144Y-37485779D01*
X86675000Y-37462500D01*
X86675000Y-36887500D01*
X86676144Y-36864221D01*
X86679563Y-36841166D01*
X86685227Y-36818557D01*
X86693079Y-36796613D01*
X86703044Y-36775543D01*
X86715026Y-36755552D01*
X86728910Y-36736832D01*
X86744562Y-36719562D01*
X86761832Y-36703910D01*
X86780552Y-36690026D01*
X86800543Y-36678044D01*
X86821613Y-36668079D01*
X86843557Y-36660227D01*
X86866166Y-36654563D01*
X86889221Y-36651144D01*
X86912500Y-36650000D01*
X87387500Y-36650000D01*
X87410779Y-36651144D01*
X87410779Y-36651144D01*
G37*
D11*
G04 #@! TD*
G04 #@! TO.P,C17,2*
G04 #@! TO.N,/drive/LSS*
X87150000Y-37175000D03*
D20*
G04 #@! TO.P,U3,1*
G04 #@! TO.N,CAN_RX*
X88800000Y-62605000D03*
G04 #@! TO.P,U3,2*
G04 #@! TO.N,GND*
X88800000Y-61335000D03*
G04 #@! TO.P,U3,3*
G04 #@! TO.N,+3V3*
X88800000Y-60065000D03*
G04 #@! TO.P,U3,4*
G04 #@! TO.N,CAN_TX*
X88800000Y-58795000D03*
G04 #@! TO.P,U3,5*
G04 #@! TO.N,Net-(U3-Pad5)*
X94200000Y-58795000D03*
G04 #@! TO.P,U3,6*
G04 #@! TO.N,CANL*
X94200000Y-60065000D03*
G04 #@! TO.P,U3,7*
G04 #@! TO.N,CANH*
X94200000Y-61335000D03*
G04 #@! TO.P,U3,8*
G04 #@! TO.N,Net-(R51-Pad1)*
X94200000Y-62605000D03*
G04 #@! TD*
D10*
G04 #@! TO.N,+3V3*
G04 #@! TO.C,C18*
G36*
X86710779Y-59501144D02*
X86733834Y-59504563D01*
X86756443Y-59510227D01*
X86778387Y-59518079D01*
X86799457Y-59528044D01*
X86819448Y-59540026D01*
X86838168Y-59553910D01*
X86855438Y-59569562D01*
X86871090Y-59586832D01*
X86884974Y-59605552D01*
X86896956Y-59625543D01*
X86906921Y-59646613D01*
X86914773Y-59668557D01*
X86920437Y-59691166D01*
X86923856Y-59714221D01*
X86925000Y-59737500D01*
X86925000Y-60312500D01*
X86923856Y-60335779D01*
X86920437Y-60358834D01*
X86914773Y-60381443D01*
X86906921Y-60403387D01*
X86896956Y-60424457D01*
X86884974Y-60444448D01*
X86871090Y-60463168D01*
X86855438Y-60480438D01*
X86838168Y-60496090D01*
X86819448Y-60509974D01*
X86799457Y-60521956D01*
X86778387Y-60531921D01*
X86756443Y-60539773D01*
X86733834Y-60545437D01*
X86710779Y-60548856D01*
X86687500Y-60550000D01*
X86212500Y-60550000D01*
X86189221Y-60548856D01*
X86166166Y-60545437D01*
X86143557Y-60539773D01*
X86121613Y-60531921D01*
X86100543Y-60521956D01*
X86080552Y-60509974D01*
X86061832Y-60496090D01*
X86044562Y-60480438D01*
X86028910Y-60463168D01*
X86015026Y-60444448D01*
X86003044Y-60424457D01*
X85993079Y-60403387D01*
X85985227Y-60381443D01*
X85979563Y-60358834D01*
X85976144Y-60335779D01*
X85975000Y-60312500D01*
X85975000Y-59737500D01*
X85976144Y-59714221D01*
X85979563Y-59691166D01*
X85985227Y-59668557D01*
X85993079Y-59646613D01*
X86003044Y-59625543D01*
X86015026Y-59605552D01*
X86028910Y-59586832D01*
X86044562Y-59569562D01*
X86061832Y-59553910D01*
X86080552Y-59540026D01*
X86100543Y-59528044D01*
X86121613Y-59518079D01*
X86143557Y-59510227D01*
X86166166Y-59504563D01*
X86189221Y-59501144D01*
X86212500Y-59500000D01*
X86687500Y-59500000D01*
X86710779Y-59501144D01*
X86710779Y-59501144D01*
G37*
D11*
G04 #@! TD*
G04 #@! TO.P,C18,1*
G04 #@! TO.N,+3V3*
X86450000Y-60025000D03*
D10*
G04 #@! TO.N,GND*
G04 #@! TO.C,C18*
G36*
X86710779Y-61251144D02*
X86733834Y-61254563D01*
X86756443Y-61260227D01*
X86778387Y-61268079D01*
X86799457Y-61278044D01*
X86819448Y-61290026D01*
X86838168Y-61303910D01*
X86855438Y-61319562D01*
X86871090Y-61336832D01*
X86884974Y-61355552D01*
X86896956Y-61375543D01*
X86906921Y-61396613D01*
X86914773Y-61418557D01*
X86920437Y-61441166D01*
X86923856Y-61464221D01*
X86925000Y-61487500D01*
X86925000Y-62062500D01*
X86923856Y-62085779D01*
X86920437Y-62108834D01*
X86914773Y-62131443D01*
X86906921Y-62153387D01*
X86896956Y-62174457D01*
X86884974Y-62194448D01*
X86871090Y-62213168D01*
X86855438Y-62230438D01*
X86838168Y-62246090D01*
X86819448Y-62259974D01*
X86799457Y-62271956D01*
X86778387Y-62281921D01*
X86756443Y-62289773D01*
X86733834Y-62295437D01*
X86710779Y-62298856D01*
X86687500Y-62300000D01*
X86212500Y-62300000D01*
X86189221Y-62298856D01*
X86166166Y-62295437D01*
X86143557Y-62289773D01*
X86121613Y-62281921D01*
X86100543Y-62271956D01*
X86080552Y-62259974D01*
X86061832Y-62246090D01*
X86044562Y-62230438D01*
X86028910Y-62213168D01*
X86015026Y-62194448D01*
X86003044Y-62174457D01*
X85993079Y-62153387D01*
X85985227Y-62131443D01*
X85979563Y-62108834D01*
X85976144Y-62085779D01*
X85975000Y-62062500D01*
X85975000Y-61487500D01*
X85976144Y-61464221D01*
X85979563Y-61441166D01*
X85985227Y-61418557D01*
X85993079Y-61396613D01*
X86003044Y-61375543D01*
X86015026Y-61355552D01*
X86028910Y-61336832D01*
X86044562Y-61319562D01*
X86061832Y-61303910D01*
X86080552Y-61290026D01*
X86100543Y-61278044D01*
X86121613Y-61268079D01*
X86143557Y-61260227D01*
X86166166Y-61254563D01*
X86189221Y-61251144D01*
X86212500Y-61250000D01*
X86687500Y-61250000D01*
X86710779Y-61251144D01*
X86710779Y-61251144D01*
G37*
D11*
G04 #@! TD*
G04 #@! TO.P,C18,2*
G04 #@! TO.N,GND*
X86450000Y-61775000D03*
D10*
G04 #@! TO.N,Net-(R51-Pad1)*
G04 #@! TO.C,R51*
G36*
X92610779Y-64326144D02*
X92633834Y-64329563D01*
X92656443Y-64335227D01*
X92678387Y-64343079D01*
X92699457Y-64353044D01*
X92719448Y-64365026D01*
X92738168Y-64378910D01*
X92755438Y-64394562D01*
X92771090Y-64411832D01*
X92784974Y-64430552D01*
X92796956Y-64450543D01*
X92806921Y-64471613D01*
X92814773Y-64493557D01*
X92820437Y-64516166D01*
X92823856Y-64539221D01*
X92825000Y-64562500D01*
X92825000Y-65037500D01*
X92823856Y-65060779D01*
X92820437Y-65083834D01*
X92814773Y-65106443D01*
X92806921Y-65128387D01*
X92796956Y-65149457D01*
X92784974Y-65169448D01*
X92771090Y-65188168D01*
X92755438Y-65205438D01*
X92738168Y-65221090D01*
X92719448Y-65234974D01*
X92699457Y-65246956D01*
X92678387Y-65256921D01*
X92656443Y-65264773D01*
X92633834Y-65270437D01*
X92610779Y-65273856D01*
X92587500Y-65275000D01*
X92012500Y-65275000D01*
X91989221Y-65273856D01*
X91966166Y-65270437D01*
X91943557Y-65264773D01*
X91921613Y-65256921D01*
X91900543Y-65246956D01*
X91880552Y-65234974D01*
X91861832Y-65221090D01*
X91844562Y-65205438D01*
X91828910Y-65188168D01*
X91815026Y-65169448D01*
X91803044Y-65149457D01*
X91793079Y-65128387D01*
X91785227Y-65106443D01*
X91779563Y-65083834D01*
X91776144Y-65060779D01*
X91775000Y-65037500D01*
X91775000Y-64562500D01*
X91776144Y-64539221D01*
X91779563Y-64516166D01*
X91785227Y-64493557D01*
X91793079Y-64471613D01*
X91803044Y-64450543D01*
X91815026Y-64430552D01*
X91828910Y-64411832D01*
X91844562Y-64394562D01*
X91861832Y-64378910D01*
X91880552Y-64365026D01*
X91900543Y-64353044D01*
X91921613Y-64343079D01*
X91943557Y-64335227D01*
X91966166Y-64329563D01*
X91989221Y-64326144D01*
X92012500Y-64325000D01*
X92587500Y-64325000D01*
X92610779Y-64326144D01*
X92610779Y-64326144D01*
G37*
D11*
G04 #@! TD*
G04 #@! TO.P,R51,1*
G04 #@! TO.N,Net-(R51-Pad1)*
X92300000Y-64800000D03*
D10*
G04 #@! TO.N,GND*
G04 #@! TO.C,R51*
G36*
X90860779Y-64326144D02*
X90883834Y-64329563D01*
X90906443Y-64335227D01*
X90928387Y-64343079D01*
X90949457Y-64353044D01*
X90969448Y-64365026D01*
X90988168Y-64378910D01*
X91005438Y-64394562D01*
X91021090Y-64411832D01*
X91034974Y-64430552D01*
X91046956Y-64450543D01*
X91056921Y-64471613D01*
X91064773Y-64493557D01*
X91070437Y-64516166D01*
X91073856Y-64539221D01*
X91075000Y-64562500D01*
X91075000Y-65037500D01*
X91073856Y-65060779D01*
X91070437Y-65083834D01*
X91064773Y-65106443D01*
X91056921Y-65128387D01*
X91046956Y-65149457D01*
X91034974Y-65169448D01*
X91021090Y-65188168D01*
X91005438Y-65205438D01*
X90988168Y-65221090D01*
X90969448Y-65234974D01*
X90949457Y-65246956D01*
X90928387Y-65256921D01*
X90906443Y-65264773D01*
X90883834Y-65270437D01*
X90860779Y-65273856D01*
X90837500Y-65275000D01*
X90262500Y-65275000D01*
X90239221Y-65273856D01*
X90216166Y-65270437D01*
X90193557Y-65264773D01*
X90171613Y-65256921D01*
X90150543Y-65246956D01*
X90130552Y-65234974D01*
X90111832Y-65221090D01*
X90094562Y-65205438D01*
X90078910Y-65188168D01*
X90065026Y-65169448D01*
X90053044Y-65149457D01*
X90043079Y-65128387D01*
X90035227Y-65106443D01*
X90029563Y-65083834D01*
X90026144Y-65060779D01*
X90025000Y-65037500D01*
X90025000Y-64562500D01*
X90026144Y-64539221D01*
X90029563Y-64516166D01*
X90035227Y-64493557D01*
X90043079Y-64471613D01*
X90053044Y-64450543D01*
X90065026Y-64430552D01*
X90078910Y-64411832D01*
X90094562Y-64394562D01*
X90111832Y-64378910D01*
X90130552Y-64365026D01*
X90150543Y-64353044D01*
X90171613Y-64343079D01*
X90193557Y-64335227D01*
X90216166Y-64329563D01*
X90239221Y-64326144D01*
X90262500Y-64325000D01*
X90837500Y-64325000D01*
X90860779Y-64326144D01*
X90860779Y-64326144D01*
G37*
D11*
G04 #@! TD*
G04 #@! TO.P,R51,2*
G04 #@! TO.N,GND*
X90550000Y-64800000D03*
D10*
G04 #@! TO.N,/drive/LSS*
G04 #@! TO.C,R48*
G36*
X91110779Y-41276144D02*
X91133834Y-41279563D01*
X91156443Y-41285227D01*
X91178387Y-41293079D01*
X91199457Y-41303044D01*
X91219448Y-41315026D01*
X91238168Y-41328910D01*
X91255438Y-41344562D01*
X91271090Y-41361832D01*
X91284974Y-41380552D01*
X91296956Y-41400543D01*
X91306921Y-41421613D01*
X91314773Y-41443557D01*
X91320437Y-41466166D01*
X91323856Y-41489221D01*
X91325000Y-41512500D01*
X91325000Y-42087500D01*
X91323856Y-42110779D01*
X91320437Y-42133834D01*
X91314773Y-42156443D01*
X91306921Y-42178387D01*
X91296956Y-42199457D01*
X91284974Y-42219448D01*
X91271090Y-42238168D01*
X91255438Y-42255438D01*
X91238168Y-42271090D01*
X91219448Y-42284974D01*
X91199457Y-42296956D01*
X91178387Y-42306921D01*
X91156443Y-42314773D01*
X91133834Y-42320437D01*
X91110779Y-42323856D01*
X91087500Y-42325000D01*
X90612500Y-42325000D01*
X90589221Y-42323856D01*
X90566166Y-42320437D01*
X90543557Y-42314773D01*
X90521613Y-42306921D01*
X90500543Y-42296956D01*
X90480552Y-42284974D01*
X90461832Y-42271090D01*
X90444562Y-42255438D01*
X90428910Y-42238168D01*
X90415026Y-42219448D01*
X90403044Y-42199457D01*
X90393079Y-42178387D01*
X90385227Y-42156443D01*
X90379563Y-42133834D01*
X90376144Y-42110779D01*
X90375000Y-42087500D01*
X90375000Y-41512500D01*
X90376144Y-41489221D01*
X90379563Y-41466166D01*
X90385227Y-41443557D01*
X90393079Y-41421613D01*
X90403044Y-41400543D01*
X90415026Y-41380552D01*
X90428910Y-41361832D01*
X90444562Y-41344562D01*
X90461832Y-41328910D01*
X90480552Y-41315026D01*
X90500543Y-41303044D01*
X90521613Y-41293079D01*
X90543557Y-41285227D01*
X90566166Y-41279563D01*
X90589221Y-41276144D01*
X90612500Y-41275000D01*
X91087500Y-41275000D01*
X91110779Y-41276144D01*
X91110779Y-41276144D01*
G37*
D11*
G04 #@! TD*
G04 #@! TO.P,R48,1*
G04 #@! TO.N,/drive/LSS*
X90850000Y-41800000D03*
D10*
G04 #@! TO.N,/drive/CSN*
G04 #@! TO.C,R48*
G36*
X91110779Y-43026144D02*
X91133834Y-43029563D01*
X91156443Y-43035227D01*
X91178387Y-43043079D01*
X91199457Y-43053044D01*
X91219448Y-43065026D01*
X91238168Y-43078910D01*
X91255438Y-43094562D01*
X91271090Y-43111832D01*
X91284974Y-43130552D01*
X91296956Y-43150543D01*
X91306921Y-43171613D01*
X91314773Y-43193557D01*
X91320437Y-43216166D01*
X91323856Y-43239221D01*
X91325000Y-43262500D01*
X91325000Y-43837500D01*
X91323856Y-43860779D01*
X91320437Y-43883834D01*
X91314773Y-43906443D01*
X91306921Y-43928387D01*
X91296956Y-43949457D01*
X91284974Y-43969448D01*
X91271090Y-43988168D01*
X91255438Y-44005438D01*
X91238168Y-44021090D01*
X91219448Y-44034974D01*
X91199457Y-44046956D01*
X91178387Y-44056921D01*
X91156443Y-44064773D01*
X91133834Y-44070437D01*
X91110779Y-44073856D01*
X91087500Y-44075000D01*
X90612500Y-44075000D01*
X90589221Y-44073856D01*
X90566166Y-44070437D01*
X90543557Y-44064773D01*
X90521613Y-44056921D01*
X90500543Y-44046956D01*
X90480552Y-44034974D01*
X90461832Y-44021090D01*
X90444562Y-44005438D01*
X90428910Y-43988168D01*
X90415026Y-43969448D01*
X90403044Y-43949457D01*
X90393079Y-43928387D01*
X90385227Y-43906443D01*
X90379563Y-43883834D01*
X90376144Y-43860779D01*
X90375000Y-43837500D01*
X90375000Y-43262500D01*
X90376144Y-43239221D01*
X90379563Y-43216166D01*
X90385227Y-43193557D01*
X90393079Y-43171613D01*
X90403044Y-43150543D01*
X90415026Y-43130552D01*
X90428910Y-43111832D01*
X90444562Y-43094562D01*
X90461832Y-43078910D01*
X90480552Y-43065026D01*
X90500543Y-43053044D01*
X90521613Y-43043079D01*
X90543557Y-43035227D01*
X90566166Y-43029563D01*
X90589221Y-43026144D01*
X90612500Y-43025000D01*
X91087500Y-43025000D01*
X91110779Y-43026144D01*
X91110779Y-43026144D01*
G37*
D11*
G04 #@! TD*
G04 #@! TO.P,R48,2*
G04 #@! TO.N,/drive/CSN*
X90850000Y-43550000D03*
D21*
G04 #@! TO.P,JP3,1*
G04 #@! TO.N,DIR*
X93900000Y-51750000D03*
D10*
G04 #@! TD*
G04 #@! TO.N,DIR*
G04 #@! TO.C,JP3*
G36*
X93900000Y-52750000D02*
X93150000Y-52250000D01*
X93150000Y-51250000D01*
X94650000Y-51250000D01*
X94650000Y-52250000D01*
X93900000Y-52750000D01*
X93900000Y-52750000D01*
G37*
D21*
G04 #@! TO.P,JP3,2*
G04 #@! TO.N,Net-(J2-Pad4)*
X93900000Y-53200000D03*
D10*
G04 #@! TD*
G04 #@! TO.N,Net-(J2-Pad4)*
G04 #@! TO.C,JP3*
G36*
X93150000Y-53700000D02*
X93150000Y-52550000D01*
X93900000Y-53050000D01*
X94650000Y-52550000D01*
X94650000Y-53700000D01*
X93150000Y-53700000D01*
X93150000Y-53700000D01*
G37*
D21*
G04 #@! TO.P,JP4,1*
G04 #@! TO.N,CANL*
X93900000Y-56575000D03*
D10*
G04 #@! TD*
G04 #@! TO.N,CANL*
G04 #@! TO.C,JP4*
G36*
X93900000Y-55575000D02*
X94650000Y-56075000D01*
X94650000Y-57075000D01*
X93150000Y-57075000D01*
X93150000Y-56075000D01*
X93900000Y-55575000D01*
X93900000Y-55575000D01*
G37*
D21*
G04 #@! TO.P,JP4,2*
G04 #@! TO.N,Net-(J2-Pad4)*
X93900000Y-55125000D03*
D10*
G04 #@! TD*
G04 #@! TO.N,Net-(J2-Pad4)*
G04 #@! TO.C,JP4*
G36*
X94650000Y-54625000D02*
X94650000Y-55775000D01*
X93900000Y-55275000D01*
X93150000Y-55775000D01*
X93150000Y-54625000D01*
X94650000Y-54625000D01*
X94650000Y-54625000D01*
G37*
D21*
G04 #@! TO.P,JP5,2*
G04 #@! TO.N,Net-(J2-Pad3)*
X98100000Y-53150000D03*
D10*
G04 #@! TD*
G04 #@! TO.N,Net-(J2-Pad3)*
G04 #@! TO.C,JP5*
G36*
X97350000Y-53650000D02*
X97350000Y-52500000D01*
X98100000Y-53000000D01*
X98850000Y-52500000D01*
X98850000Y-53650000D01*
X97350000Y-53650000D01*
X97350000Y-53650000D01*
G37*
D21*
G04 #@! TO.P,JP5,1*
G04 #@! TO.N,PWM*
X98100000Y-51700000D03*
D10*
G04 #@! TD*
G04 #@! TO.N,PWM*
G04 #@! TO.C,JP5*
G36*
X98100000Y-52700000D02*
X97350000Y-52200000D01*
X97350000Y-51200000D01*
X98850000Y-51200000D01*
X98850000Y-52200000D01*
X98100000Y-52700000D01*
X98100000Y-52700000D01*
G37*
D21*
G04 #@! TO.P,JP6,2*
G04 #@! TO.N,Net-(J2-Pad3)*
X98100000Y-55000000D03*
D10*
G04 #@! TD*
G04 #@! TO.N,Net-(J2-Pad3)*
G04 #@! TO.C,JP6*
G36*
X98850000Y-54500000D02*
X98850000Y-55650000D01*
X98100000Y-55150000D01*
X97350000Y-55650000D01*
X97350000Y-54500000D01*
X98850000Y-54500000D01*
X98850000Y-54500000D01*
G37*
D21*
G04 #@! TO.P,JP6,1*
G04 #@! TO.N,CANH*
X98100000Y-56450000D03*
D10*
G04 #@! TD*
G04 #@! TO.N,CANH*
G04 #@! TO.C,JP6*
G36*
X98100000Y-55450000D02*
X98850000Y-55950000D01*
X98850000Y-56950000D01*
X97350000Y-56950000D01*
X97350000Y-55950000D01*
X98100000Y-55450000D01*
X98100000Y-55450000D01*
G37*
D22*
G04 #@! TO.N,GND*
X58240942Y-37158942D03*
X57400000Y-57800000D03*
X101550000Y-31200000D03*
X87450000Y-61775000D03*
X61300000Y-44700000D03*
X60175000Y-50325000D03*
X66550000Y-59625001D03*
X81025000Y-57175010D03*
X59403091Y-53704485D03*
X60400000Y-29000000D03*
X57600000Y-29000000D03*
X54800000Y-29000000D03*
G04 #@! TO.N,+5V*
X59500002Y-58000000D03*
X70299990Y-23950000D03*
G04 #@! TO.N,+BATT*
X71275000Y-34550000D03*
X71925000Y-34550000D03*
X72575000Y-34550000D03*
X73225000Y-34550000D03*
X73875000Y-34550000D03*
X74525000Y-34550000D03*
X71275000Y-35200000D03*
X71925000Y-35200000D03*
X72575000Y-35200000D03*
X73225000Y-35200000D03*
X73875000Y-35200000D03*
X74525000Y-35200000D03*
X72575000Y-35850000D03*
X73225000Y-35850000D03*
X73875000Y-35850000D03*
X74525000Y-35850000D03*
X78025000Y-34575000D03*
X78675000Y-34575000D03*
X79325000Y-34575000D03*
X79975000Y-34575000D03*
X80625000Y-34575000D03*
X81275000Y-34575000D03*
X78025000Y-35225000D03*
X78675000Y-35225000D03*
X79325000Y-35225000D03*
X79975000Y-35225000D03*
X80625000Y-35225000D03*
X81275000Y-35225000D03*
X79325000Y-35875000D03*
X79975000Y-35875000D03*
X80625000Y-35875000D03*
X81275000Y-35875000D03*
X59275000Y-39425000D03*
X56134000Y-39347681D03*
X87800000Y-28750000D03*
G04 #@! TO.N,Net-(D1-Pad2)*
X98550000Y-30250000D03*
G04 #@! TO.N,Net-(D2-Pad2)*
X92150000Y-30500000D03*
G04 #@! TO.N,H1*
X54375000Y-49800000D03*
G04 #@! TO.N,H2*
X55000000Y-50400000D03*
G04 #@! TO.N,H3*
X55241949Y-51358051D03*
G04 #@! TO.N,FF1*
X57664932Y-47678312D03*
G04 #@! TO.N,FF2*
X57850000Y-46900000D03*
G04 #@! TO.N,ESF*
X62549780Y-41925634D03*
G04 #@! TO.N,Net-(J1-Pad2)*
X68250000Y-23950000D03*
G04 #@! TO.N,Net-(J1-Pad3)*
X66250000Y-23900000D03*
G04 #@! TO.N,Net-(J1-Pad4)*
X64250000Y-23900000D03*
G04 #@! TO.N,DIR*
X87100000Y-51250000D03*
X72600000Y-54724990D03*
X55400000Y-53000000D03*
G04 #@! TO.N,PWM*
X71950000Y-55650000D03*
X85100000Y-51850000D03*
X58267158Y-53044502D03*
G04 #@! TO.N,CSOUT*
X60800000Y-53200000D03*
G04 #@! TO.N,+3V3*
X89350000Y-40750000D03*
G04 #@! TO.N,/drive/CSN*
X91950000Y-40700000D03*
X90749998Y-46400000D03*
G04 #@! TO.N,Net-(R14-Pad1)*
X61600000Y-53800006D03*
G04 #@! TO.N,/drive/GHA*
X69030000Y-44624976D03*
X66428771Y-46534990D03*
G04 #@! TO.N,/drive/GHB*
X66468703Y-48571297D03*
X76614442Y-43444442D03*
G04 #@! TO.N,/drive/GHC*
X66280000Y-50539998D03*
X70823056Y-50656954D03*
G04 #@! TO.N,RESET*
X71000000Y-64500000D03*
G04 #@! TO.N,I2C1_SDA*
X76175000Y-67200000D03*
X84077116Y-56993193D03*
G04 #@! TO.N,I2C1_SCL*
X80325003Y-67174997D03*
X83150000Y-58075032D03*
G04 #@! TO.N,Net-(R27-Pad1)*
X64000000Y-54100000D03*
G04 #@! TO.N,CAN_TX*
X83450000Y-62600000D03*
X86800000Y-58750000D03*
G04 #@! TO.N,SWDIO*
X83400000Y-63500000D03*
G04 #@! TO.N,SWCLK*
X82775000Y-64300000D03*
G04 #@! TO.N,phase_A*
X70670000Y-46660000D03*
X71600000Y-39730000D03*
G04 #@! TO.N,phase_B*
X78450000Y-39780000D03*
X77150000Y-46350002D03*
G04 #@! TO.N,phase_C*
X85360000Y-43590000D03*
X85370000Y-39830000D03*
G04 #@! TO.N,/drive/LSS*
X80525000Y-37250000D03*
X81175000Y-37250000D03*
X81825000Y-37250000D03*
X80525000Y-37900000D03*
X81175000Y-37900000D03*
X81825000Y-37900000D03*
X80525000Y-38550000D03*
X81175000Y-38550000D03*
X81825000Y-38550000D03*
X80525000Y-39200000D03*
X81175000Y-39200000D03*
X81825000Y-39200000D03*
X73650000Y-37200000D03*
X73650000Y-37200000D03*
X73650000Y-37200000D03*
X74300000Y-37200000D03*
X74950000Y-37200000D03*
X73650000Y-37850000D03*
X74300000Y-37850000D03*
X74950000Y-37850000D03*
X73650000Y-38500000D03*
X74300000Y-38500000D03*
X74950000Y-38500000D03*
X73650000Y-39150000D03*
X74300000Y-39150000D03*
X74950000Y-39150000D03*
X66775000Y-37200000D03*
X66775000Y-37200000D03*
X66775000Y-37200000D03*
X67425000Y-37200000D03*
X68075000Y-37200000D03*
X66775000Y-37850000D03*
X67425000Y-37850000D03*
X68075000Y-37850000D03*
X66775000Y-38500000D03*
X67425000Y-38500000D03*
X68075000Y-38500000D03*
X66775000Y-39150000D03*
X67425000Y-39150000D03*
X68075000Y-39150000D03*
G04 #@! TO.N,Net-(D3-Pad2)*
X95000000Y-40500000D03*
X98900000Y-40550000D03*
G04 #@! TO.N,Net-(J2-Pad3)*
X97800000Y-35600000D03*
X99400000Y-53150000D03*
G04 #@! TO.N,Net-(J2-Pad4)*
X95550000Y-53250000D03*
G04 #@! TD*
D23*
G04 #@! TO.N,GND*
X91440000Y-33020000D02*
X93940000Y-33020000D01*
X97795000Y-33020000D02*
X97800000Y-33015000D01*
X93940000Y-33020000D02*
X97795000Y-33020000D01*
D24*
X58166000Y-37084000D02*
X58240942Y-37158942D01*
X61600000Y-57275000D02*
X61600000Y-56650000D01*
X60249999Y-58625001D02*
X61600000Y-57275000D01*
X58225001Y-58625001D02*
X60249999Y-58625001D01*
X57400000Y-57800000D02*
X58225001Y-58625001D01*
X62874999Y-58625001D02*
X64850000Y-56650000D01*
X60249999Y-58625001D02*
X62874999Y-58625001D01*
X99735000Y-33015000D02*
X101550000Y-31200000D01*
X97800000Y-33015000D02*
X99735000Y-33015000D01*
X74600000Y-67450000D02*
X73450000Y-68600000D01*
X74600000Y-65650000D02*
X74600000Y-67450000D01*
X88360000Y-61775000D02*
X88800000Y-61335000D01*
X86450000Y-61775000D02*
X88360000Y-61775000D01*
X89275000Y-61335000D02*
X88800000Y-61335000D01*
X90550000Y-62610000D02*
X89275000Y-61335000D01*
X90550000Y-64800000D02*
X90550000Y-62610000D01*
X65650928Y-61199072D02*
X66150000Y-60700000D01*
X65349990Y-61500010D02*
X65650928Y-61199072D01*
X65349990Y-62970500D02*
X65349990Y-61500010D01*
X68029490Y-65650000D02*
X65349990Y-62970500D01*
X74600000Y-65650000D02*
X68029490Y-65650000D01*
X64850000Y-59400000D02*
X66150000Y-60700000D01*
X64850000Y-56650000D02*
X64850000Y-59400000D01*
X86450000Y-61775000D02*
X87450000Y-61775000D01*
X61300000Y-49200000D02*
X61300000Y-44700000D01*
X60175000Y-50325000D02*
X61300000Y-49200000D01*
X66150000Y-60025001D02*
X66250001Y-59925000D01*
X66150000Y-60700000D02*
X66150000Y-60025001D01*
X66250001Y-59925000D02*
X66550000Y-59625001D01*
X80200000Y-57150000D02*
X80999990Y-57150000D01*
X80999990Y-57150000D02*
X81025000Y-57175010D01*
X57400000Y-57800000D02*
X57400000Y-55707576D01*
X59103092Y-54004484D02*
X59403091Y-53704485D01*
X57400000Y-55707576D02*
X59103092Y-54004484D01*
D23*
X97800000Y-33015000D02*
X100015000Y-33015000D01*
X100015000Y-33015000D02*
X101000000Y-34000000D01*
X101000000Y-34000000D02*
X101000000Y-35800000D01*
D24*
X60400000Y-30762000D02*
X60400000Y-30137000D01*
X60400000Y-30137000D02*
X60400000Y-29000000D01*
X57600000Y-30762000D02*
X57600000Y-29000000D01*
X54800000Y-30762000D02*
X54800000Y-29000000D01*
G04 #@! TO.N,+5V*
X60599072Y-56150928D02*
X60100000Y-56650000D01*
X60950010Y-55799990D02*
X60599072Y-56150928D01*
X62499990Y-55799990D02*
X60950010Y-55799990D01*
X63350000Y-56650000D02*
X62499990Y-55799990D01*
X59500002Y-57575736D02*
X59500002Y-58000000D01*
X59500002Y-57249998D02*
X59500002Y-57575736D01*
X60100000Y-56650000D02*
X59500002Y-57249998D01*
X70299990Y-27424990D02*
X70299990Y-23950000D01*
X73425000Y-30550000D02*
X70299990Y-27424990D01*
X89200000Y-30500000D02*
X89150000Y-30550000D01*
X89150000Y-30550000D02*
X73425000Y-30550000D01*
G04 #@! TO.N,+BATT*
X59574999Y-39125001D02*
X59275000Y-39425000D01*
X63500000Y-35200000D02*
X59574999Y-39125001D01*
X71275000Y-35200000D02*
X63500000Y-35200000D01*
X59275000Y-39425000D02*
X56211319Y-39425000D01*
X56211319Y-39425000D02*
X56134000Y-39347681D01*
X89050000Y-28750000D02*
X89200000Y-28600000D01*
X87800000Y-28750000D02*
X89050000Y-28750000D01*
G04 #@! TO.N,Net-(D1-Pad2)*
X91449072Y-29099072D02*
X97399072Y-29099072D01*
X90950000Y-28600000D02*
X91449072Y-29099072D01*
X97399072Y-29099072D02*
X98550000Y-30250000D01*
G04 #@! TO.N,Net-(D2-Pad2)*
X92150000Y-30500000D02*
X90950000Y-30500000D01*
G04 #@! TO.N,H1*
X55299072Y-32012928D02*
X54800000Y-32512000D01*
X64260000Y-28510000D02*
X63685000Y-28510000D01*
X63375000Y-28200000D02*
X57474998Y-28200000D01*
X57474998Y-28200000D02*
X56000000Y-29674998D01*
X63685000Y-28510000D02*
X63375000Y-28200000D01*
X56000000Y-29674998D02*
X56000000Y-31312000D01*
X56000000Y-31312000D02*
X55299072Y-32012928D01*
X54375000Y-32937000D02*
X54800000Y-32512000D01*
X54375000Y-49800000D02*
X54375000Y-32937000D01*
G04 #@! TO.N,H2*
X65760928Y-29009072D02*
X66260000Y-28510000D01*
X63108010Y-31661990D02*
X65760928Y-29009072D01*
X58450010Y-31661990D02*
X63108010Y-31661990D01*
X57600000Y-32512000D02*
X58450010Y-31661990D01*
X55000000Y-49975736D02*
X55000000Y-50400000D01*
X55000000Y-35112000D02*
X55000000Y-49975736D01*
X57600000Y-32512000D02*
X55000000Y-35112000D01*
G04 #@! TO.N,H3*
X55450011Y-36749989D02*
X55450011Y-49925009D01*
X55625001Y-50974999D02*
X55241949Y-51358051D01*
X55450011Y-49925009D02*
X55625001Y-50099999D01*
X68250000Y-28550000D02*
X68050000Y-28550000D01*
X68050000Y-28550000D02*
X64088000Y-32512000D01*
X59503000Y-32512000D02*
X59503000Y-32697000D01*
X55625001Y-50099999D02*
X55625001Y-50974999D01*
X64088000Y-32512000D02*
X59503000Y-32512000D01*
X59503000Y-32697000D02*
X55450011Y-36749989D01*
G04 #@! TO.N,FF1*
X77800000Y-57150000D02*
X77800000Y-56300000D01*
X77800000Y-56300000D02*
X75599989Y-54099989D01*
X75599989Y-54099989D02*
X72299999Y-54099989D01*
X69050000Y-54300000D02*
X66800001Y-52050001D01*
X57664932Y-50201343D02*
X57664932Y-48102576D01*
X62310363Y-51674977D02*
X59138566Y-51674977D01*
X57664932Y-48102576D02*
X57664932Y-47678312D01*
X59138566Y-51674977D02*
X57664932Y-50201343D01*
X62685387Y-52050001D02*
X62310363Y-51674977D01*
X66800001Y-52050001D02*
X62685387Y-52050001D01*
X72099988Y-54300000D02*
X69050000Y-54300000D01*
X72299999Y-54099989D02*
X72099988Y-54300000D01*
G04 #@! TO.N,FF2*
X58149999Y-47199999D02*
X57850000Y-46900000D01*
X72063577Y-53700000D02*
X69200000Y-53700000D01*
X75949978Y-53649978D02*
X72113599Y-53649978D01*
X72113599Y-53649978D02*
X72063577Y-53700000D01*
X59324966Y-51224966D02*
X58350000Y-50250000D01*
X58350000Y-47400000D02*
X58149999Y-47199999D01*
X58350000Y-50250000D02*
X58350000Y-47400000D01*
X62496763Y-51224966D02*
X59324966Y-51224966D01*
X78600000Y-57150000D02*
X78600000Y-56300000D01*
X67099990Y-51599990D02*
X62871787Y-51599990D01*
X78600000Y-56300000D02*
X75949978Y-53649978D01*
X69200000Y-53700000D02*
X67099990Y-51599990D01*
X62871787Y-51599990D02*
X62496763Y-51224966D01*
G04 #@! TO.N,ESF*
X79400000Y-56300000D02*
X79400000Y-57150000D01*
X71675000Y-51775000D02*
X72500000Y-52600000D01*
X71675000Y-50250000D02*
X71675000Y-51775000D01*
X62549780Y-47734780D02*
X64515000Y-49700000D01*
X72500000Y-52600000D02*
X75700000Y-52600000D01*
X62549780Y-41925634D02*
X62549780Y-47734780D01*
X64515000Y-49700000D02*
X69827345Y-49700000D01*
X69827345Y-49700000D02*
X69927345Y-49800000D01*
X69927345Y-49800000D02*
X71225000Y-49800000D01*
X75700000Y-52600000D02*
X79400000Y-56300000D01*
X71225000Y-49800000D02*
X71675000Y-50250000D01*
G04 #@! TO.N,Net-(J1-Pad2)*
X68250000Y-23950000D02*
X68250000Y-26800000D01*
G04 #@! TO.N,Net-(J1-Pad3)*
X66260000Y-26760000D02*
X66260000Y-23910000D01*
X66260000Y-23910000D02*
X66250000Y-23900000D01*
G04 #@! TO.N,Net-(J1-Pad4)*
X64260000Y-26135000D02*
X64250000Y-26125000D01*
X64260000Y-26760000D02*
X64260000Y-26135000D01*
X64250000Y-26125000D02*
X64250000Y-23900000D01*
G04 #@! TO.N,DIR*
X93900000Y-51750000D02*
X87600000Y-51750000D01*
X87600000Y-51750000D02*
X87100000Y-51250000D01*
X73024264Y-54724990D02*
X72600000Y-54724990D01*
X75424990Y-54724990D02*
X73024264Y-54724990D01*
X77000000Y-57150000D02*
X77000000Y-56300000D01*
X77000000Y-56300000D02*
X75424990Y-54724990D01*
X69124989Y-55024989D02*
X66600012Y-52500012D01*
X72300001Y-55024989D02*
X69124989Y-55024989D01*
X62498987Y-52500012D02*
X62123963Y-52124988D01*
X56275012Y-52124988D02*
X55699999Y-52700001D01*
X66600012Y-52500012D02*
X62498987Y-52500012D01*
X55699999Y-52700001D02*
X55400000Y-53000000D01*
X72600000Y-54724990D02*
X72300001Y-55024989D01*
X62123963Y-52124988D02*
X56275012Y-52124988D01*
G04 #@! TO.N,PWM*
X76200000Y-57150000D02*
X76200000Y-56300000D01*
X76200000Y-56300000D02*
X75550000Y-55650000D01*
X75550000Y-55650000D02*
X71950000Y-55650000D01*
X97024999Y-50624999D02*
X86325001Y-50624999D01*
X98100000Y-51700000D02*
X97024999Y-50624999D01*
X86325001Y-50624999D02*
X85100000Y-51850000D01*
X68800000Y-55650000D02*
X66174987Y-53024987D01*
X61937564Y-52574999D02*
X58736661Y-52574999D01*
X71950000Y-55650000D02*
X68800000Y-55650000D01*
X58736661Y-52574999D02*
X58567157Y-52744503D01*
X66174987Y-53024987D02*
X62387552Y-53024987D01*
X58567157Y-52744503D02*
X58267158Y-53044502D01*
X62387552Y-53024987D02*
X61937564Y-52574999D01*
G04 #@! TO.N,CSOUT*
X61224264Y-53200000D02*
X60800000Y-53200000D01*
X62201152Y-53474998D02*
X61826155Y-53100001D01*
X73150000Y-60200000D02*
X72300000Y-60200000D01*
X72300000Y-60200000D02*
X65574998Y-53474998D01*
X61324263Y-53100001D02*
X61224264Y-53200000D01*
X61826155Y-53100001D02*
X61324263Y-53100001D01*
X65574998Y-53474998D02*
X62201152Y-53474998D01*
G04 #@! TO.N,+3V3*
X73605000Y-49405000D02*
X74758000Y-49405000D01*
X73745500Y-48135000D02*
X73580500Y-48300000D01*
X73580500Y-48300000D02*
X73580500Y-48319500D01*
X74758000Y-48135000D02*
X73745500Y-48135000D01*
X73580500Y-48319500D02*
X73450000Y-48450000D01*
X73450000Y-48450000D02*
X73450000Y-49250000D01*
X73450000Y-49250000D02*
X73605000Y-49405000D01*
X78400000Y-61000000D02*
X74000000Y-61000000D01*
X80800000Y-58600000D02*
X78400000Y-61000000D01*
X81650000Y-58600000D02*
X80800000Y-58600000D01*
X74000000Y-61000000D02*
X73150000Y-61000000D01*
X74350000Y-61350000D02*
X74000000Y-61000000D01*
X74350000Y-63685002D02*
X74350000Y-61350000D01*
X73150000Y-64200000D02*
X73835002Y-64200000D01*
X73835002Y-64200000D02*
X74350000Y-63685002D01*
X70600000Y-61000000D02*
X70400000Y-60800000D01*
X73150000Y-61000000D02*
X70600000Y-61000000D01*
X86490000Y-60065000D02*
X86450000Y-60025000D01*
X88800000Y-60065000D02*
X86490000Y-60065000D01*
X74758000Y-48135000D02*
X76290002Y-48135000D01*
X79575002Y-44600000D02*
X85500000Y-44600000D01*
X85500000Y-44600000D02*
X89050001Y-41049999D01*
X89050001Y-41049999D02*
X89350000Y-40750000D01*
X77775001Y-46650001D02*
X77775001Y-46400001D01*
X77775001Y-46400001D02*
X79575002Y-44600000D01*
X76290002Y-48135000D02*
X77775001Y-46650001D01*
X74820000Y-49467000D02*
X74820000Y-50720000D01*
X74758000Y-49405000D02*
X74820000Y-49467000D01*
X74850000Y-50800000D02*
X78025000Y-50800000D01*
X81650000Y-54425000D02*
X81650000Y-58600000D01*
X78025000Y-50800000D02*
X81650000Y-54425000D01*
X85875000Y-60025000D02*
X86450000Y-60025000D01*
X81650000Y-58600000D02*
X82749966Y-58600000D01*
X84174966Y-60025000D02*
X85875000Y-60025000D01*
X82749966Y-58600000D02*
X84174966Y-60025000D01*
G04 #@! TO.N,/drive/CSN*
X91425000Y-43550000D02*
X91950000Y-43025000D01*
X90850000Y-43550000D02*
X91425000Y-43550000D01*
X91950000Y-43025000D02*
X91950000Y-40700000D01*
X90850000Y-43550000D02*
X90850000Y-46299998D01*
X90850000Y-46299998D02*
X90749998Y-46400000D01*
G04 #@! TO.N,Net-(R14-Pad1)*
X61600000Y-54900000D02*
X60100000Y-54900000D01*
X61600000Y-54900000D02*
X61600000Y-53800006D01*
G04 #@! TO.N,/drive/GHA*
X67119986Y-46534990D02*
X66853035Y-46534990D01*
X69030000Y-44624976D02*
X67119986Y-46534990D01*
X66853035Y-46534990D02*
X66428771Y-46534990D01*
G04 #@! TO.N,/drive/GHB*
X76550000Y-43380000D02*
X76614442Y-43444442D01*
X75275498Y-43380000D02*
X76614442Y-43444442D01*
X66892967Y-48571297D02*
X67984264Y-47480000D01*
X66468703Y-48571297D02*
X66892967Y-48571297D01*
X67984264Y-47480000D02*
X71270000Y-47480000D01*
X71270000Y-47480000D02*
X72950000Y-45800000D01*
X72950000Y-45800000D02*
X72950000Y-45705498D01*
X72950000Y-45705498D02*
X75275498Y-43380000D01*
G04 #@! TO.N,/drive/GHC*
X70706100Y-50539998D02*
X70823056Y-50656954D01*
X66280000Y-50539998D02*
X70706100Y-50539998D01*
G04 #@! TO.N,RESET*
X72300000Y-61800000D02*
X73150000Y-61800000D01*
X71725000Y-61800000D02*
X72300000Y-61800000D01*
X70975000Y-62550000D02*
X71725000Y-61800000D01*
X70400000Y-62550000D02*
X70975000Y-62550000D01*
X66250000Y-62550000D02*
X66150000Y-62450000D01*
X70400000Y-62550000D02*
X66250000Y-62550000D01*
X70700001Y-64200001D02*
X71000000Y-64500000D01*
X70400000Y-63900000D02*
X70700001Y-64200001D01*
X70400000Y-62550000D02*
X70400000Y-63900000D01*
G04 #@! TO.N,I2C1_SDA*
X76175000Y-65675000D02*
X76200000Y-65650000D01*
X76175000Y-67200000D02*
X76175000Y-65675000D01*
X80182000Y-46865000D02*
X80594500Y-46865000D01*
X80594500Y-46865000D02*
X84077116Y-50347616D01*
X84077116Y-50347616D02*
X84077116Y-56568929D01*
X84077116Y-56568929D02*
X84077116Y-56993193D01*
G04 #@! TO.N,I2C1_SCL*
X80200000Y-67049994D02*
X80325003Y-67174997D01*
X80200000Y-65650000D02*
X80200000Y-67049994D01*
X83150000Y-57650768D02*
X83150000Y-58075032D01*
X80182000Y-48135000D02*
X80594500Y-48135000D01*
X80594500Y-48135000D02*
X83150000Y-50690500D01*
X83150000Y-50690500D02*
X83150000Y-57650768D01*
G04 #@! TO.N,Net-(R4-Pad2)*
X75400000Y-66500000D02*
X75400000Y-65650000D01*
X75400000Y-67825000D02*
X75400000Y-66500000D01*
X75200000Y-68025000D02*
X75400000Y-67825000D01*
X75200000Y-68600000D02*
X75200000Y-68025000D01*
G04 #@! TO.N,Net-(R27-Pad1)*
X64850000Y-54900000D02*
X63350000Y-54900000D01*
X63350000Y-54900000D02*
X64000000Y-54250000D01*
X64000000Y-54250000D02*
X64000000Y-54100000D01*
G04 #@! TO.N,CAN_RX*
X88325000Y-62605000D02*
X88800000Y-62605000D01*
X87775000Y-63155000D02*
X88325000Y-62605000D01*
X85905000Y-63155000D02*
X87775000Y-63155000D01*
X81650000Y-61800000D02*
X84550000Y-61800000D01*
X84550000Y-61800000D02*
X85905000Y-63155000D01*
G04 #@! TO.N,CAN_TX*
X81650000Y-62600000D02*
X83450000Y-62600000D01*
X88800000Y-58795000D02*
X86845000Y-58795000D01*
X86845000Y-58795000D02*
X86800000Y-58750000D01*
G04 #@! TO.N,SWDIO*
X81750000Y-63500000D02*
X81650000Y-63400000D01*
X83400000Y-63500000D02*
X81750000Y-63500000D01*
G04 #@! TO.N,SWCLK*
X81750000Y-64300000D02*
X81650000Y-64200000D01*
X82775000Y-64300000D02*
X81750000Y-64300000D01*
G04 #@! TO.N,CANL*
X93725000Y-60065000D02*
X94200000Y-60065000D01*
X92900000Y-57575000D02*
X92900000Y-59240000D01*
X92900000Y-59240000D02*
X93725000Y-60065000D01*
X93900000Y-56575000D02*
X92900000Y-57575000D01*
G04 #@! TO.N,CANH*
X94675000Y-61335000D02*
X94200000Y-61335000D01*
X98100000Y-57910000D02*
X94675000Y-61335000D01*
X98100000Y-56450000D02*
X98100000Y-57910000D01*
G04 #@! TO.N,Net-(R51-Pad1)*
X94200000Y-62900000D02*
X94200000Y-62605000D01*
X92300000Y-64800000D02*
X94200000Y-62900000D01*
G04 #@! TO.N,phase_A*
X70670000Y-40660000D02*
X71600000Y-39730000D01*
X70670000Y-46660000D02*
X70670000Y-40660000D01*
G04 #@! TO.N,phase_B*
X77449999Y-46050003D02*
X77150000Y-46350002D01*
X78450000Y-45050002D02*
X77449999Y-46050003D01*
X78450000Y-39780000D02*
X78450000Y-45050002D01*
G04 #@! TO.N,phase_C*
X85360000Y-39840000D02*
X85370000Y-39830000D01*
X85360000Y-43590000D02*
X85360000Y-39840000D01*
G04 #@! TO.N,/drive/LSS*
X90850000Y-41800000D02*
X90850000Y-40750000D01*
X90850000Y-40750000D02*
X87850000Y-37750000D01*
G04 #@! TO.N,Net-(D3-Pad2)*
X95000000Y-40500000D02*
X98850000Y-40500000D01*
X98850000Y-40500000D02*
X98900000Y-40550000D01*
G04 #@! TO.N,Net-(J2-Pad3)*
X97720000Y-35520000D02*
X97800000Y-35600000D01*
X93940000Y-35520000D02*
X97720000Y-35520000D01*
X98100000Y-53150000D02*
X98100000Y-55000000D01*
X99400000Y-53150000D02*
X98100000Y-53150000D01*
G04 #@! TO.N,Net-(J2-Pad4)*
X93900000Y-55125000D02*
X93900000Y-53200000D01*
X93950000Y-53250000D02*
X93900000Y-53200000D01*
X95550000Y-53250000D02*
X93950000Y-53250000D01*
G04 #@! TD*
D25*
G04 #@! TO.N,+BATT*
G36*
X87899626Y-34426999D02*
X87900000Y-34427000D01*
X90023000Y-34427000D01*
X90023000Y-36098000D01*
X70980256Y-36098000D01*
X71023816Y-34377364D01*
X87899626Y-34426999D01*
X87899626Y-34426999D01*
G37*
X87899626Y-34426999D02*
X87900000Y-34427000D01*
X90023000Y-34427000D01*
X90023000Y-36098000D01*
X70980256Y-36098000D01*
X71023816Y-34377364D01*
X87899626Y-34426999D01*
G04 #@! TO.N,/drive/LSS*
G36*
X99623000Y-39348286D02*
X85882360Y-39379280D01*
X85755756Y-39252676D01*
X85505459Y-39149000D01*
X85234541Y-39149000D01*
X84984244Y-39252676D01*
X84855323Y-39381597D01*
X79027530Y-39394742D01*
X79027324Y-39394244D01*
X78835756Y-39202676D01*
X78585459Y-39099000D01*
X78314541Y-39099000D01*
X78064244Y-39202676D01*
X77872676Y-39394244D01*
X77871390Y-39397350D01*
X72204616Y-39410132D01*
X72177324Y-39344244D01*
X71985756Y-39152676D01*
X71735459Y-39049000D01*
X71464541Y-39049000D01*
X71214244Y-39152676D01*
X71022676Y-39344244D01*
X70994254Y-39412862D01*
X66627000Y-39422713D01*
X66627000Y-36951809D01*
X99623000Y-36902191D01*
X99623000Y-39348286D01*
X99623000Y-39348286D01*
G37*
X99623000Y-39348286D02*
X85882360Y-39379280D01*
X85755756Y-39252676D01*
X85505459Y-39149000D01*
X85234541Y-39149000D01*
X84984244Y-39252676D01*
X84855323Y-39381597D01*
X79027530Y-39394742D01*
X79027324Y-39394244D01*
X78835756Y-39202676D01*
X78585459Y-39099000D01*
X78314541Y-39099000D01*
X78064244Y-39202676D01*
X77872676Y-39394244D01*
X77871390Y-39397350D01*
X72204616Y-39410132D01*
X72177324Y-39344244D01*
X71985756Y-39152676D01*
X71735459Y-39049000D01*
X71464541Y-39049000D01*
X71214244Y-39152676D01*
X71022676Y-39344244D01*
X70994254Y-39412862D01*
X66627000Y-39422713D01*
X66627000Y-36951809D01*
X99623000Y-36902191D01*
X99623000Y-39348286D01*
G04 #@! TO.N,GND*
G36*
X55677447Y-29281959D02*
X55635194Y-29310192D01*
X55523359Y-29477568D01*
X55505172Y-29569000D01*
X55484087Y-29674998D01*
X55494000Y-29724832D01*
X55494001Y-31102407D01*
X54997873Y-31598536D01*
X54562500Y-31598536D01*
X54322954Y-31646185D01*
X54119877Y-31781877D01*
X53984185Y-31984954D01*
X53936536Y-32224500D01*
X53936536Y-32682434D01*
X53926803Y-32697001D01*
X53898360Y-32739569D01*
X53859087Y-32937000D01*
X53869001Y-32986839D01*
X53869000Y-49342920D01*
X53797676Y-49414244D01*
X53694000Y-49664541D01*
X53694000Y-49935459D01*
X53797676Y-50185756D01*
X53989244Y-50377324D01*
X54239541Y-50481000D01*
X54319000Y-50481000D01*
X54319000Y-50535459D01*
X54422676Y-50785756D01*
X54614244Y-50977324D01*
X54655469Y-50994400D01*
X54560949Y-51222592D01*
X54560949Y-51493510D01*
X54664625Y-51743807D01*
X54856193Y-51935375D01*
X55106490Y-52039051D01*
X55377408Y-52039051D01*
X55627705Y-51935375D01*
X55819273Y-51743807D01*
X55922949Y-51493510D01*
X55922949Y-51392643D01*
X55947556Y-51368036D01*
X55989807Y-51339805D01*
X56101642Y-51172430D01*
X56131001Y-51024834D01*
X56140914Y-50975000D01*
X56131001Y-50925166D01*
X56131001Y-50149832D01*
X56140914Y-50099998D01*
X56127785Y-50033998D01*
X56101642Y-49902568D01*
X55989807Y-49735193D01*
X55956011Y-49712612D01*
X55956011Y-40011065D01*
X55998541Y-40028681D01*
X56269459Y-40028681D01*
X56505283Y-39931000D01*
X58817920Y-39931000D01*
X58889244Y-40002324D01*
X59139541Y-40106000D01*
X59410459Y-40106000D01*
X59660756Y-40002324D01*
X59852324Y-39810756D01*
X59956000Y-39560459D01*
X59956000Y-39459591D01*
X59968033Y-39447558D01*
X63709592Y-35706000D01*
X70482017Y-35706000D01*
X70469122Y-36215358D01*
X70498002Y-36370802D01*
X70542848Y-36437920D01*
X66499427Y-36444000D01*
X66354198Y-36473002D01*
X66230592Y-36555592D01*
X66148002Y-36679198D01*
X66119000Y-36825000D01*
X66119000Y-37004185D01*
X66094000Y-37064541D01*
X66094000Y-37335459D01*
X66119000Y-37395815D01*
X66119000Y-37654185D01*
X66094000Y-37714541D01*
X66094000Y-37985459D01*
X66119000Y-38045815D01*
X66119000Y-38304185D01*
X66094000Y-38364541D01*
X66094000Y-38635459D01*
X66119000Y-38695815D01*
X66119000Y-38954185D01*
X66094000Y-39014541D01*
X66094000Y-39285459D01*
X66119000Y-39345815D01*
X66119000Y-39550000D01*
X66148332Y-39696596D01*
X66231201Y-39820015D01*
X66354992Y-39902326D01*
X66500859Y-39930999D01*
X70692865Y-39921543D01*
X70347445Y-40266964D01*
X70305195Y-40295194D01*
X70245060Y-40385194D01*
X70193360Y-40462569D01*
X70154087Y-40660000D01*
X70164001Y-40709839D01*
X70164000Y-46202920D01*
X70092676Y-46274244D01*
X69989000Y-46524541D01*
X69989000Y-46795459D01*
X70062954Y-46974000D01*
X68034097Y-46974000D01*
X67984263Y-46964087D01*
X67934429Y-46974000D01*
X67786833Y-47003359D01*
X67619458Y-47115194D01*
X67591227Y-47157445D01*
X66783918Y-47964754D01*
X66604162Y-47890297D01*
X66333244Y-47890297D01*
X66082947Y-47993973D01*
X65891379Y-48185541D01*
X65787703Y-48435838D01*
X65787703Y-48706756D01*
X65891379Y-48957053D01*
X66082947Y-49148621D01*
X66192502Y-49194000D01*
X64724592Y-49194000D01*
X63055780Y-47525189D01*
X63055780Y-46399531D01*
X65747771Y-46399531D01*
X65747771Y-46670449D01*
X65851447Y-46920746D01*
X66043015Y-47112314D01*
X66293312Y-47215990D01*
X66564230Y-47215990D01*
X66814527Y-47112314D01*
X66885851Y-47040990D01*
X67070152Y-47040990D01*
X67119986Y-47050903D01*
X67169820Y-47040990D01*
X67169821Y-47040990D01*
X67317417Y-47011631D01*
X67484792Y-46899796D01*
X67513025Y-46857543D01*
X69064592Y-45305976D01*
X69165459Y-45305976D01*
X69415756Y-45202300D01*
X69607324Y-45010732D01*
X69711000Y-44760435D01*
X69711000Y-44489517D01*
X69607324Y-44239220D01*
X69415756Y-44047652D01*
X69165459Y-43943976D01*
X68894541Y-43943976D01*
X68644244Y-44047652D01*
X68452676Y-44239220D01*
X68349000Y-44489517D01*
X68349000Y-44590384D01*
X66910395Y-46028990D01*
X66885851Y-46028990D01*
X66814527Y-45957666D01*
X66564230Y-45853990D01*
X66293312Y-45853990D01*
X66043015Y-45957666D01*
X65851447Y-46149234D01*
X65747771Y-46399531D01*
X63055780Y-46399531D01*
X63055780Y-42382714D01*
X63127104Y-42311390D01*
X63230780Y-42061093D01*
X63230780Y-41790175D01*
X63127104Y-41539878D01*
X62935536Y-41348310D01*
X62685239Y-41244634D01*
X62414321Y-41244634D01*
X62164024Y-41348310D01*
X61972456Y-41539878D01*
X61868780Y-41790175D01*
X61868780Y-42061093D01*
X61972456Y-42311390D01*
X62043780Y-42382714D01*
X62043781Y-47684941D01*
X62033867Y-47734780D01*
X62067756Y-47905145D01*
X62073140Y-47932211D01*
X62184975Y-48099586D01*
X62227225Y-48127817D01*
X64121963Y-50022555D01*
X64150194Y-50064806D01*
X64236626Y-50122557D01*
X64317568Y-50176641D01*
X64515000Y-50215913D01*
X64564835Y-50206000D01*
X65681237Y-50206000D01*
X65599000Y-50404539D01*
X65599000Y-50675457D01*
X65702676Y-50925754D01*
X65870912Y-51093990D01*
X63081379Y-51093990D01*
X62889801Y-50902413D01*
X62861569Y-50860160D01*
X62694194Y-50748325D01*
X62546598Y-50718966D01*
X62546597Y-50718966D01*
X62496763Y-50709053D01*
X62446929Y-50718966D01*
X59534558Y-50718966D01*
X58856000Y-50040409D01*
X58856000Y-47449833D01*
X58865913Y-47399999D01*
X58848708Y-47313506D01*
X58826641Y-47202569D01*
X58714806Y-47035194D01*
X58672552Y-47006961D01*
X58531000Y-46865409D01*
X58531000Y-46764541D01*
X58427324Y-46514244D01*
X58235756Y-46322676D01*
X57985459Y-46219000D01*
X57714541Y-46219000D01*
X57464244Y-46322676D01*
X57272676Y-46514244D01*
X57169000Y-46764541D01*
X57169000Y-47035459D01*
X57220463Y-47159701D01*
X57087608Y-47292556D01*
X56983932Y-47542853D01*
X56983932Y-47813771D01*
X57087608Y-48064068D01*
X57158932Y-48135392D01*
X57158932Y-48152410D01*
X57158933Y-48152415D01*
X57158932Y-50151509D01*
X57149019Y-50201343D01*
X57158932Y-50251177D01*
X57188291Y-50398773D01*
X57300126Y-50566149D01*
X57342379Y-50594382D01*
X58366985Y-51618988D01*
X56324845Y-51618988D01*
X56275011Y-51609075D01*
X56225177Y-51618988D01*
X56077581Y-51648347D01*
X55910206Y-51760182D01*
X55881975Y-51802433D01*
X55377442Y-52306967D01*
X55365409Y-52319000D01*
X55264541Y-52319000D01*
X55014244Y-52422676D01*
X54822676Y-52614244D01*
X54719000Y-52864541D01*
X54719000Y-53135459D01*
X54822676Y-53385756D01*
X55014244Y-53577324D01*
X55264541Y-53681000D01*
X55535459Y-53681000D01*
X55785756Y-53577324D01*
X55977324Y-53385756D01*
X56081000Y-53135459D01*
X56081000Y-53034591D01*
X56093033Y-53022558D01*
X56484604Y-52630988D01*
X57717592Y-52630988D01*
X57689834Y-52658746D01*
X57586158Y-52909043D01*
X57586158Y-53179961D01*
X57689834Y-53430258D01*
X57881402Y-53621826D01*
X58131699Y-53725502D01*
X58402617Y-53725502D01*
X58652914Y-53621826D01*
X58844482Y-53430258D01*
X58948158Y-53179961D01*
X58948158Y-53080999D01*
X60119000Y-53080999D01*
X60119000Y-53335459D01*
X60222676Y-53585756D01*
X60414244Y-53777324D01*
X60664541Y-53881000D01*
X60919000Y-53881000D01*
X60919000Y-53935465D01*
X60995239Y-54119522D01*
X60919877Y-54169877D01*
X60850000Y-54274455D01*
X60780123Y-54169877D01*
X60577046Y-54034185D01*
X60337500Y-53986536D01*
X59862500Y-53986536D01*
X59622954Y-54034185D01*
X59419877Y-54169877D01*
X59284185Y-54372954D01*
X59236536Y-54612500D01*
X59236536Y-55187500D01*
X59284185Y-55427046D01*
X59419877Y-55630123D01*
X59622954Y-55765815D01*
X59669130Y-55775000D01*
X59622954Y-55784185D01*
X59419877Y-55919877D01*
X59284185Y-56122954D01*
X59236536Y-56362500D01*
X59236536Y-56797873D01*
X59177449Y-56856960D01*
X59135196Y-56885192D01*
X59023361Y-57052568D01*
X59008627Y-57126640D01*
X58984089Y-57249998D01*
X58994002Y-57299832D01*
X58994002Y-57542920D01*
X58922678Y-57614244D01*
X58819002Y-57864541D01*
X58819002Y-58135459D01*
X58922678Y-58385756D01*
X59114246Y-58577324D01*
X59364543Y-58681000D01*
X59635461Y-58681000D01*
X59885758Y-58577324D01*
X60077326Y-58385756D01*
X60181002Y-58135459D01*
X60181002Y-57864541D01*
X60077326Y-57614244D01*
X60026546Y-57563464D01*
X60337500Y-57563464D01*
X60577046Y-57515815D01*
X60780123Y-57380123D01*
X60915815Y-57177046D01*
X60963464Y-56937500D01*
X60963464Y-56502128D01*
X60992106Y-56473486D01*
X60992108Y-56473483D01*
X61159602Y-56305990D01*
X62290399Y-56305990D01*
X62486536Y-56502127D01*
X62486536Y-56937500D01*
X62534185Y-57177046D01*
X62669877Y-57380123D01*
X62872954Y-57515815D01*
X63112500Y-57563464D01*
X63587500Y-57563464D01*
X63827046Y-57515815D01*
X64030123Y-57380123D01*
X64165815Y-57177046D01*
X64213464Y-56937500D01*
X64213464Y-56362500D01*
X64165815Y-56122954D01*
X64030123Y-55919877D01*
X63827046Y-55784185D01*
X63780870Y-55775000D01*
X63827046Y-55765815D01*
X64030123Y-55630123D01*
X64100000Y-55525545D01*
X64169877Y-55630123D01*
X64372954Y-55765815D01*
X64612500Y-55813464D01*
X65087500Y-55813464D01*
X65327046Y-55765815D01*
X65530123Y-55630123D01*
X65665815Y-55427046D01*
X65713464Y-55187500D01*
X65713464Y-54612500D01*
X65665815Y-54372954D01*
X65530123Y-54169877D01*
X65327046Y-54034185D01*
X65087500Y-53986536D01*
X64681000Y-53986536D01*
X64681000Y-53980998D01*
X65365407Y-53980998D01*
X71878408Y-60494000D01*
X71259784Y-60494000D01*
X71215815Y-60272954D01*
X71080123Y-60069877D01*
X70877046Y-59934185D01*
X70637500Y-59886536D01*
X70162500Y-59886536D01*
X69922954Y-59934185D01*
X69719877Y-60069877D01*
X69584185Y-60272954D01*
X69536536Y-60512500D01*
X69536536Y-61087500D01*
X69584185Y-61327046D01*
X69719877Y-61530123D01*
X69922954Y-61665815D01*
X69969130Y-61675000D01*
X69922954Y-61684185D01*
X69719877Y-61819877D01*
X69584185Y-62022954D01*
X69579999Y-62044000D01*
X66989893Y-62044000D01*
X66965815Y-61922954D01*
X66830123Y-61719877D01*
X66627046Y-61584185D01*
X66387500Y-61536536D01*
X65912500Y-61536536D01*
X65672954Y-61584185D01*
X65469877Y-61719877D01*
X65334185Y-61922954D01*
X65286536Y-62162500D01*
X65286536Y-62737500D01*
X65334185Y-62977046D01*
X65469877Y-63180123D01*
X65672954Y-63315815D01*
X65912500Y-63363464D01*
X66387500Y-63363464D01*
X66627046Y-63315815D01*
X66830123Y-63180123D01*
X66913060Y-63056000D01*
X69579999Y-63056000D01*
X69584185Y-63077046D01*
X69719877Y-63280123D01*
X69894001Y-63396469D01*
X69894001Y-63850161D01*
X69884087Y-63900000D01*
X69913887Y-64049808D01*
X69923360Y-64097431D01*
X70035195Y-64264806D01*
X70077446Y-64293037D01*
X70319000Y-64534591D01*
X70319000Y-64635459D01*
X70422676Y-64885756D01*
X70614244Y-65077324D01*
X70864541Y-65181000D01*
X71135459Y-65181000D01*
X71385756Y-65077324D01*
X71577324Y-64885756D01*
X71681000Y-64635459D01*
X71681000Y-64364541D01*
X71577324Y-64114244D01*
X71385756Y-63922676D01*
X71135459Y-63819000D01*
X71034591Y-63819000D01*
X70906000Y-63690409D01*
X70906000Y-63396469D01*
X71080123Y-63280123D01*
X71215815Y-63077046D01*
X71234028Y-62985484D01*
X71339806Y-62914806D01*
X71368038Y-62872553D01*
X71934592Y-62306000D01*
X72161536Y-62306000D01*
X72161536Y-62900000D01*
X72181427Y-63000000D01*
X72161536Y-63100000D01*
X72161536Y-63700000D01*
X72181427Y-63800000D01*
X72161536Y-63900000D01*
X72161536Y-64500000D01*
X72191106Y-64648659D01*
X72275314Y-64774686D01*
X72401341Y-64858894D01*
X72550000Y-64888464D01*
X73750000Y-64888464D01*
X73898659Y-64858894D01*
X74024686Y-64774686D01*
X74108894Y-64648659D01*
X74114195Y-64622010D01*
X74199808Y-64564806D01*
X74228040Y-64522553D01*
X74672556Y-64078038D01*
X74714806Y-64049808D01*
X74826641Y-63882433D01*
X74856000Y-63734837D01*
X74856000Y-63734836D01*
X74865913Y-63685003D01*
X74856000Y-63635169D01*
X74856000Y-61506000D01*
X78350166Y-61506000D01*
X78400000Y-61515913D01*
X78449834Y-61506000D01*
X78449835Y-61506000D01*
X78597431Y-61476641D01*
X78764806Y-61364806D01*
X78793038Y-61322553D01*
X80661536Y-59454057D01*
X80661536Y-59700000D01*
X80681427Y-59800000D01*
X80661536Y-59900000D01*
X80661536Y-60500000D01*
X80681427Y-60600000D01*
X80661536Y-60700000D01*
X80661536Y-61300000D01*
X80681427Y-61400000D01*
X80661536Y-61500000D01*
X80661536Y-62100000D01*
X80681427Y-62200000D01*
X80661536Y-62300000D01*
X80661536Y-62900000D01*
X80681427Y-63000000D01*
X80661536Y-63100000D01*
X80661536Y-63700000D01*
X80681427Y-63800000D01*
X80661536Y-63900000D01*
X80661536Y-64500000D01*
X80691106Y-64648659D01*
X80775314Y-64774686D01*
X80901341Y-64858894D01*
X81050000Y-64888464D01*
X82250000Y-64888464D01*
X82375434Y-64863514D01*
X82389244Y-64877324D01*
X82639541Y-64981000D01*
X82910459Y-64981000D01*
X83160756Y-64877324D01*
X83352324Y-64685756D01*
X83456000Y-64435459D01*
X83456000Y-64181000D01*
X83535459Y-64181000D01*
X83785756Y-64077324D01*
X83977324Y-63885756D01*
X84081000Y-63635459D01*
X84081000Y-63364541D01*
X83977324Y-63114244D01*
X83938080Y-63075000D01*
X84027324Y-62985756D01*
X84131000Y-62735459D01*
X84131000Y-62464541D01*
X84065330Y-62306000D01*
X84340409Y-62306000D01*
X85511963Y-63477555D01*
X85540194Y-63519806D01*
X85707569Y-63631641D01*
X85855165Y-63661000D01*
X85904999Y-63670913D01*
X85954833Y-63661000D01*
X87725166Y-63661000D01*
X87775000Y-63670913D01*
X87824834Y-63661000D01*
X87824835Y-63661000D01*
X87972431Y-63631641D01*
X88139806Y-63519806D01*
X88168038Y-63477553D01*
X88352127Y-63293464D01*
X89575000Y-63293464D01*
X89723659Y-63263894D01*
X89849686Y-63179686D01*
X89933894Y-63053659D01*
X89963464Y-62905000D01*
X89963464Y-62305000D01*
X89933894Y-62156341D01*
X89849686Y-62030314D01*
X89723659Y-61946106D01*
X89575000Y-61916536D01*
X88025000Y-61916536D01*
X87876341Y-61946106D01*
X87750314Y-62030314D01*
X87666106Y-62156341D01*
X87636536Y-62305000D01*
X87636536Y-62577873D01*
X87565409Y-62649000D01*
X86114592Y-62649000D01*
X84943038Y-61477447D01*
X84914806Y-61435194D01*
X84747431Y-61323359D01*
X84599835Y-61294000D01*
X84599834Y-61294000D01*
X84550000Y-61284087D01*
X84500166Y-61294000D01*
X82638464Y-61294000D01*
X82638464Y-60700000D01*
X82618573Y-60600000D01*
X82638464Y-60500000D01*
X82638464Y-59900000D01*
X82618573Y-59800000D01*
X82638464Y-59700000D01*
X82638464Y-59204089D01*
X83781929Y-60347555D01*
X83810160Y-60389806D01*
X83977535Y-60501641D01*
X84125131Y-60531000D01*
X84174965Y-60540913D01*
X84224799Y-60531000D01*
X85629999Y-60531000D01*
X85634185Y-60552046D01*
X85769877Y-60755123D01*
X85972954Y-60890815D01*
X86212500Y-60938464D01*
X86687500Y-60938464D01*
X86927046Y-60890815D01*
X87130123Y-60755123D01*
X87253150Y-60571000D01*
X87704420Y-60571000D01*
X87750314Y-60639686D01*
X87876341Y-60723894D01*
X88025000Y-60753464D01*
X89575000Y-60753464D01*
X89723659Y-60723894D01*
X89849686Y-60639686D01*
X89933894Y-60513659D01*
X89963464Y-60365000D01*
X89963464Y-59765000D01*
X89933894Y-59616341D01*
X89849686Y-59490314D01*
X89759419Y-59430000D01*
X89849686Y-59369686D01*
X89933894Y-59243659D01*
X89963464Y-59095000D01*
X89963464Y-58495000D01*
X89933894Y-58346341D01*
X89849686Y-58220314D01*
X89723659Y-58136106D01*
X89575000Y-58106536D01*
X88025000Y-58106536D01*
X87876341Y-58136106D01*
X87750314Y-58220314D01*
X87704420Y-58289000D01*
X87302080Y-58289000D01*
X87185756Y-58172676D01*
X86935459Y-58069000D01*
X86664541Y-58069000D01*
X86414244Y-58172676D01*
X86222676Y-58364244D01*
X86119000Y-58614541D01*
X86119000Y-58885459D01*
X86212644Y-59111536D01*
X86212500Y-59111536D01*
X85972954Y-59159185D01*
X85769877Y-59294877D01*
X85634185Y-59497954D01*
X85629999Y-59519000D01*
X84384558Y-59519000D01*
X83523139Y-58657582D01*
X83535756Y-58652356D01*
X83727324Y-58460788D01*
X83831000Y-58210491D01*
X83831000Y-57939573D01*
X83727324Y-57689276D01*
X83656000Y-57617952D01*
X83656000Y-57535157D01*
X83691360Y-57570517D01*
X83941657Y-57674193D01*
X84212575Y-57674193D01*
X84462872Y-57570517D01*
X84654440Y-57378949D01*
X84758116Y-57128652D01*
X84758116Y-56857734D01*
X84654440Y-56607437D01*
X84583116Y-56536113D01*
X84583116Y-52296196D01*
X84714244Y-52427324D01*
X84964541Y-52531000D01*
X85235459Y-52531000D01*
X85485756Y-52427324D01*
X85677324Y-52235756D01*
X85781000Y-51985459D01*
X85781000Y-51884591D01*
X86419000Y-51246592D01*
X86419000Y-51385459D01*
X86522676Y-51635756D01*
X86714244Y-51827324D01*
X86964541Y-51931000D01*
X87065408Y-51931000D01*
X87206963Y-52072555D01*
X87235194Y-52114806D01*
X87328955Y-52177454D01*
X87402568Y-52226641D01*
X87600000Y-52265913D01*
X87649835Y-52256000D01*
X92762130Y-52256000D01*
X92769080Y-52326184D01*
X92796777Y-52392854D01*
X92791106Y-52401341D01*
X92761536Y-52550000D01*
X92761536Y-53700000D01*
X92791106Y-53848659D01*
X92875314Y-53974686D01*
X93001341Y-54058894D01*
X93150000Y-54088464D01*
X93394001Y-54088464D01*
X93394000Y-54236536D01*
X93150000Y-54236536D01*
X93001341Y-54266106D01*
X92875314Y-54350314D01*
X92791106Y-54476341D01*
X92761536Y-54625000D01*
X92761536Y-55775000D01*
X92802290Y-55909603D01*
X92791106Y-55926341D01*
X92761536Y-56075000D01*
X92761536Y-56997873D01*
X92577447Y-57181962D01*
X92535194Y-57210194D01*
X92423359Y-57377570D01*
X92399462Y-57497708D01*
X92384087Y-57575000D01*
X92394000Y-57624834D01*
X92394001Y-59190161D01*
X92384087Y-59240000D01*
X92411247Y-59376536D01*
X92423360Y-59437431D01*
X92535195Y-59604806D01*
X92577445Y-59633036D01*
X93036536Y-60092128D01*
X93036536Y-60365000D01*
X93066106Y-60513659D01*
X93150314Y-60639686D01*
X93240581Y-60700000D01*
X93150314Y-60760314D01*
X93066106Y-60886341D01*
X93036536Y-61035000D01*
X93036536Y-61635000D01*
X93066106Y-61783659D01*
X93150314Y-61909686D01*
X93240581Y-61970000D01*
X93150314Y-62030314D01*
X93066106Y-62156341D01*
X93036536Y-62305000D01*
X93036536Y-62905000D01*
X93066106Y-63053659D01*
X93150314Y-63179686D01*
X93182930Y-63201479D01*
X92447873Y-63936536D01*
X92012500Y-63936536D01*
X91772954Y-63984185D01*
X91569877Y-64119877D01*
X91434185Y-64322954D01*
X91386536Y-64562500D01*
X91386536Y-65037500D01*
X91434185Y-65277046D01*
X91569877Y-65480123D01*
X91772954Y-65615815D01*
X92012500Y-65663464D01*
X92587500Y-65663464D01*
X92827046Y-65615815D01*
X93030123Y-65480123D01*
X93165815Y-65277046D01*
X93213464Y-65037500D01*
X93213464Y-64602127D01*
X94522128Y-63293464D01*
X94975000Y-63293464D01*
X95123659Y-63263894D01*
X95249686Y-63179686D01*
X95333894Y-63053659D01*
X95363464Y-62905000D01*
X95363464Y-62305000D01*
X95333894Y-62156341D01*
X95249686Y-62030314D01*
X95159419Y-61970000D01*
X95249686Y-61909686D01*
X95333894Y-61783659D01*
X95363464Y-61635000D01*
X95363464Y-61362127D01*
X98422555Y-58303037D01*
X98464806Y-58274806D01*
X98576641Y-58107431D01*
X98606000Y-57959835D01*
X98615913Y-57910001D01*
X98606000Y-57860167D01*
X98606000Y-57338464D01*
X98850000Y-57338464D01*
X98998659Y-57308894D01*
X99124686Y-57224686D01*
X99208894Y-57098659D01*
X99238464Y-56950000D01*
X99238464Y-55950000D01*
X99230920Y-55873816D01*
X99203223Y-55807146D01*
X99208894Y-55798659D01*
X99238464Y-55650000D01*
X99238464Y-54500000D01*
X99208894Y-54351341D01*
X99124686Y-54225314D01*
X98998659Y-54141106D01*
X98850000Y-54111536D01*
X98606000Y-54111536D01*
X98606000Y-54038464D01*
X98850000Y-54038464D01*
X98998659Y-54008894D01*
X99124686Y-53924686D01*
X99204032Y-53805936D01*
X99264541Y-53831000D01*
X99535459Y-53831000D01*
X99785756Y-53727324D01*
X99977324Y-53535756D01*
X100081000Y-53285459D01*
X100081000Y-53014541D01*
X99977324Y-52764244D01*
X99785756Y-52572676D01*
X99535459Y-52469000D01*
X99264541Y-52469000D01*
X99233030Y-52482052D01*
X99197710Y-52365397D01*
X99208894Y-52348659D01*
X99238464Y-52200000D01*
X99238464Y-51200000D01*
X99208894Y-51051341D01*
X99124686Y-50925314D01*
X98998659Y-50841106D01*
X98850000Y-50811536D01*
X97927128Y-50811536D01*
X97418037Y-50302446D01*
X97389805Y-50260193D01*
X97222430Y-50148358D01*
X97074834Y-50118999D01*
X97074833Y-50118999D01*
X97024999Y-50109086D01*
X96975165Y-50118999D01*
X86374834Y-50118999D01*
X86325000Y-50109086D01*
X86275166Y-50118999D01*
X86127570Y-50148358D01*
X85960195Y-50260193D01*
X85931964Y-50302444D01*
X85065409Y-51169000D01*
X84964541Y-51169000D01*
X84714244Y-51272676D01*
X84583116Y-51403804D01*
X84583116Y-50397451D01*
X84593029Y-50347616D01*
X84553757Y-50150184D01*
X84496709Y-50064806D01*
X84441922Y-49982810D01*
X84399672Y-49954580D01*
X81332964Y-46887873D01*
X81332964Y-46515000D01*
X81303394Y-46366341D01*
X81219186Y-46240314D01*
X81203750Y-46230000D01*
X81219186Y-46219686D01*
X81303394Y-46093659D01*
X81332964Y-45945000D01*
X81332964Y-45245000D01*
X81305315Y-45106000D01*
X85450166Y-45106000D01*
X85500000Y-45115913D01*
X85549834Y-45106000D01*
X85549835Y-45106000D01*
X85697431Y-45076641D01*
X85864806Y-44964806D01*
X85893039Y-44922553D01*
X89384593Y-41431000D01*
X89485459Y-41431000D01*
X89735756Y-41327324D01*
X89736080Y-41327000D01*
X90023435Y-41327000D01*
X89986536Y-41512500D01*
X89986536Y-42087500D01*
X90034185Y-42327046D01*
X90169877Y-42530123D01*
X90372954Y-42665815D01*
X90419130Y-42675000D01*
X90372954Y-42684185D01*
X90169877Y-42819877D01*
X90034185Y-43022954D01*
X89986536Y-43262500D01*
X89986536Y-43837500D01*
X90034185Y-44077046D01*
X90169877Y-44280123D01*
X90344000Y-44396469D01*
X90344001Y-45842917D01*
X90172674Y-46014244D01*
X90068998Y-46264541D01*
X90068998Y-46535459D01*
X90172674Y-46785756D01*
X90364242Y-46977324D01*
X90614539Y-47081000D01*
X90885457Y-47081000D01*
X91135754Y-46977324D01*
X91327322Y-46785756D01*
X91430998Y-46535459D01*
X91430998Y-46264541D01*
X91356000Y-46083479D01*
X91356000Y-44396469D01*
X91530123Y-44280123D01*
X91665815Y-44077046D01*
X91684028Y-43985484D01*
X91789806Y-43914806D01*
X91818038Y-43872553D01*
X92272556Y-43418036D01*
X92314806Y-43389806D01*
X92426641Y-43222431D01*
X92456000Y-43074835D01*
X92456000Y-43074834D01*
X92465913Y-43025001D01*
X92456000Y-42975167D01*
X92456000Y-41327000D01*
X99800000Y-41327000D01*
X99848601Y-41317333D01*
X99889803Y-41289803D01*
X99917333Y-41248601D01*
X99927000Y-41200000D01*
X99927000Y-39806152D01*
X100019408Y-39744408D01*
X100101998Y-39620802D01*
X100131000Y-39475000D01*
X100131000Y-36775000D01*
X100101778Y-36628668D01*
X100019002Y-36505187D01*
X99927000Y-36443913D01*
X99927000Y-35127000D01*
X102044001Y-35127000D01*
X102044000Y-66478380D01*
X95798076Y-66573015D01*
X95751399Y-66582667D01*
X95710197Y-66610197D01*
X95682667Y-66651399D01*
X95673000Y-66700000D01*
X95673000Y-72044000D01*
X58927000Y-72044000D01*
X58927000Y-68362500D01*
X74286536Y-68362500D01*
X74286536Y-68837500D01*
X74334185Y-69077046D01*
X74469877Y-69280123D01*
X74672954Y-69415815D01*
X74912500Y-69463464D01*
X75487500Y-69463464D01*
X75727046Y-69415815D01*
X75930123Y-69280123D01*
X76065815Y-69077046D01*
X76113464Y-68837500D01*
X76113464Y-68362500D01*
X76065815Y-68122954D01*
X75930123Y-67919877D01*
X75900922Y-67900365D01*
X75915032Y-67829427D01*
X76039541Y-67881000D01*
X76310459Y-67881000D01*
X76560756Y-67777324D01*
X76752324Y-67585756D01*
X76856000Y-67335459D01*
X76856000Y-67064541D01*
X76752324Y-66814244D01*
X76681000Y-66742920D01*
X76681000Y-66634685D01*
X76700000Y-66638464D01*
X77300000Y-66638464D01*
X77400000Y-66618573D01*
X77500000Y-66638464D01*
X78100000Y-66638464D01*
X78200000Y-66618573D01*
X78300000Y-66638464D01*
X78900000Y-66638464D01*
X79000000Y-66618573D01*
X79100000Y-66638464D01*
X79694001Y-66638464D01*
X79694001Y-66918832D01*
X79644003Y-67039538D01*
X79644003Y-67310456D01*
X79747679Y-67560753D01*
X79939247Y-67752321D01*
X80189544Y-67855997D01*
X80460462Y-67855997D01*
X80710759Y-67752321D01*
X80902327Y-67560753D01*
X81006003Y-67310456D01*
X81006003Y-67039538D01*
X80902327Y-66789241D01*
X80710759Y-66597673D01*
X80706000Y-66595702D01*
X80706000Y-66570580D01*
X80774686Y-66524686D01*
X80858894Y-66398659D01*
X80888464Y-66250000D01*
X80888464Y-65050000D01*
X80858894Y-64901341D01*
X80774686Y-64775314D01*
X80648659Y-64691106D01*
X80500000Y-64661536D01*
X79900000Y-64661536D01*
X79800000Y-64681427D01*
X79700000Y-64661536D01*
X79100000Y-64661536D01*
X79000000Y-64681427D01*
X78900000Y-64661536D01*
X78300000Y-64661536D01*
X78200000Y-64681427D01*
X78100000Y-64661536D01*
X77500000Y-64661536D01*
X77400000Y-64681427D01*
X77300000Y-64661536D01*
X76700000Y-64661536D01*
X76600000Y-64681427D01*
X76500000Y-64661536D01*
X75900000Y-64661536D01*
X75800000Y-64681427D01*
X75700000Y-64661536D01*
X75100000Y-64661536D01*
X74951341Y-64691106D01*
X74825314Y-64775314D01*
X74741106Y-64901341D01*
X74711536Y-65050000D01*
X74711536Y-66250000D01*
X74741106Y-66398659D01*
X74825314Y-66524686D01*
X74894001Y-66570581D01*
X74894000Y-67615409D01*
X74877446Y-67631963D01*
X74835195Y-67660194D01*
X74764517Y-67765972D01*
X74672954Y-67784185D01*
X74469877Y-67919877D01*
X74334185Y-68122954D01*
X74286536Y-68362500D01*
X58927000Y-68362500D01*
X58927000Y-66600000D01*
X58917333Y-66551399D01*
X58889803Y-66510197D01*
X58848601Y-66482667D01*
X58800000Y-66473000D01*
X52956000Y-66473000D01*
X52956000Y-28527000D01*
X56432406Y-28527000D01*
X55677447Y-29281959D01*
X55677447Y-29281959D01*
G37*
X55677447Y-29281959D02*
X55635194Y-29310192D01*
X55523359Y-29477568D01*
X55505172Y-29569000D01*
X55484087Y-29674998D01*
X55494000Y-29724832D01*
X55494001Y-31102407D01*
X54997873Y-31598536D01*
X54562500Y-31598536D01*
X54322954Y-31646185D01*
X54119877Y-31781877D01*
X53984185Y-31984954D01*
X53936536Y-32224500D01*
X53936536Y-32682434D01*
X53926803Y-32697001D01*
X53898360Y-32739569D01*
X53859087Y-32937000D01*
X53869001Y-32986839D01*
X53869000Y-49342920D01*
X53797676Y-49414244D01*
X53694000Y-49664541D01*
X53694000Y-49935459D01*
X53797676Y-50185756D01*
X53989244Y-50377324D01*
X54239541Y-50481000D01*
X54319000Y-50481000D01*
X54319000Y-50535459D01*
X54422676Y-50785756D01*
X54614244Y-50977324D01*
X54655469Y-50994400D01*
X54560949Y-51222592D01*
X54560949Y-51493510D01*
X54664625Y-51743807D01*
X54856193Y-51935375D01*
X55106490Y-52039051D01*
X55377408Y-52039051D01*
X55627705Y-51935375D01*
X55819273Y-51743807D01*
X55922949Y-51493510D01*
X55922949Y-51392643D01*
X55947556Y-51368036D01*
X55989807Y-51339805D01*
X56101642Y-51172430D01*
X56131001Y-51024834D01*
X56140914Y-50975000D01*
X56131001Y-50925166D01*
X56131001Y-50149832D01*
X56140914Y-50099998D01*
X56127785Y-50033998D01*
X56101642Y-49902568D01*
X55989807Y-49735193D01*
X55956011Y-49712612D01*
X55956011Y-40011065D01*
X55998541Y-40028681D01*
X56269459Y-40028681D01*
X56505283Y-39931000D01*
X58817920Y-39931000D01*
X58889244Y-40002324D01*
X59139541Y-40106000D01*
X59410459Y-40106000D01*
X59660756Y-40002324D01*
X59852324Y-39810756D01*
X59956000Y-39560459D01*
X59956000Y-39459591D01*
X59968033Y-39447558D01*
X63709592Y-35706000D01*
X70482017Y-35706000D01*
X70469122Y-36215358D01*
X70498002Y-36370802D01*
X70542848Y-36437920D01*
X66499427Y-36444000D01*
X66354198Y-36473002D01*
X66230592Y-36555592D01*
X66148002Y-36679198D01*
X66119000Y-36825000D01*
X66119000Y-37004185D01*
X66094000Y-37064541D01*
X66094000Y-37335459D01*
X66119000Y-37395815D01*
X66119000Y-37654185D01*
X66094000Y-37714541D01*
X66094000Y-37985459D01*
X66119000Y-38045815D01*
X66119000Y-38304185D01*
X66094000Y-38364541D01*
X66094000Y-38635459D01*
X66119000Y-38695815D01*
X66119000Y-38954185D01*
X66094000Y-39014541D01*
X66094000Y-39285459D01*
X66119000Y-39345815D01*
X66119000Y-39550000D01*
X66148332Y-39696596D01*
X66231201Y-39820015D01*
X66354992Y-39902326D01*
X66500859Y-39930999D01*
X70692865Y-39921543D01*
X70347445Y-40266964D01*
X70305195Y-40295194D01*
X70245060Y-40385194D01*
X70193360Y-40462569D01*
X70154087Y-40660000D01*
X70164001Y-40709839D01*
X70164000Y-46202920D01*
X70092676Y-46274244D01*
X69989000Y-46524541D01*
X69989000Y-46795459D01*
X70062954Y-46974000D01*
X68034097Y-46974000D01*
X67984263Y-46964087D01*
X67934429Y-46974000D01*
X67786833Y-47003359D01*
X67619458Y-47115194D01*
X67591227Y-47157445D01*
X66783918Y-47964754D01*
X66604162Y-47890297D01*
X66333244Y-47890297D01*
X66082947Y-47993973D01*
X65891379Y-48185541D01*
X65787703Y-48435838D01*
X65787703Y-48706756D01*
X65891379Y-48957053D01*
X66082947Y-49148621D01*
X66192502Y-49194000D01*
X64724592Y-49194000D01*
X63055780Y-47525189D01*
X63055780Y-46399531D01*
X65747771Y-46399531D01*
X65747771Y-46670449D01*
X65851447Y-46920746D01*
X66043015Y-47112314D01*
X66293312Y-47215990D01*
X66564230Y-47215990D01*
X66814527Y-47112314D01*
X66885851Y-47040990D01*
X67070152Y-47040990D01*
X67119986Y-47050903D01*
X67169820Y-47040990D01*
X67169821Y-47040990D01*
X67317417Y-47011631D01*
X67484792Y-46899796D01*
X67513025Y-46857543D01*
X69064592Y-45305976D01*
X69165459Y-45305976D01*
X69415756Y-45202300D01*
X69607324Y-45010732D01*
X69711000Y-44760435D01*
X69711000Y-44489517D01*
X69607324Y-44239220D01*
X69415756Y-44047652D01*
X69165459Y-43943976D01*
X68894541Y-43943976D01*
X68644244Y-44047652D01*
X68452676Y-44239220D01*
X68349000Y-44489517D01*
X68349000Y-44590384D01*
X66910395Y-46028990D01*
X66885851Y-46028990D01*
X66814527Y-45957666D01*
X66564230Y-45853990D01*
X66293312Y-45853990D01*
X66043015Y-45957666D01*
X65851447Y-46149234D01*
X65747771Y-46399531D01*
X63055780Y-46399531D01*
X63055780Y-42382714D01*
X63127104Y-42311390D01*
X63230780Y-42061093D01*
X63230780Y-41790175D01*
X63127104Y-41539878D01*
X62935536Y-41348310D01*
X62685239Y-41244634D01*
X62414321Y-41244634D01*
X62164024Y-41348310D01*
X61972456Y-41539878D01*
X61868780Y-41790175D01*
X61868780Y-42061093D01*
X61972456Y-42311390D01*
X62043780Y-42382714D01*
X62043781Y-47684941D01*
X62033867Y-47734780D01*
X62067756Y-47905145D01*
X62073140Y-47932211D01*
X62184975Y-48099586D01*
X62227225Y-48127817D01*
X64121963Y-50022555D01*
X64150194Y-50064806D01*
X64236626Y-50122557D01*
X64317568Y-50176641D01*
X64515000Y-50215913D01*
X64564835Y-50206000D01*
X65681237Y-50206000D01*
X65599000Y-50404539D01*
X65599000Y-50675457D01*
X65702676Y-50925754D01*
X65870912Y-51093990D01*
X63081379Y-51093990D01*
X62889801Y-50902413D01*
X62861569Y-50860160D01*
X62694194Y-50748325D01*
X62546598Y-50718966D01*
X62546597Y-50718966D01*
X62496763Y-50709053D01*
X62446929Y-50718966D01*
X59534558Y-50718966D01*
X58856000Y-50040409D01*
X58856000Y-47449833D01*
X58865913Y-47399999D01*
X58848708Y-47313506D01*
X58826641Y-47202569D01*
X58714806Y-47035194D01*
X58672552Y-47006961D01*
X58531000Y-46865409D01*
X58531000Y-46764541D01*
X58427324Y-46514244D01*
X58235756Y-46322676D01*
X57985459Y-46219000D01*
X57714541Y-46219000D01*
X57464244Y-46322676D01*
X57272676Y-46514244D01*
X57169000Y-46764541D01*
X57169000Y-47035459D01*
X57220463Y-47159701D01*
X57087608Y-47292556D01*
X56983932Y-47542853D01*
X56983932Y-47813771D01*
X57087608Y-48064068D01*
X57158932Y-48135392D01*
X57158932Y-48152410D01*
X57158933Y-48152415D01*
X57158932Y-50151509D01*
X57149019Y-50201343D01*
X57158932Y-50251177D01*
X57188291Y-50398773D01*
X57300126Y-50566149D01*
X57342379Y-50594382D01*
X58366985Y-51618988D01*
X56324845Y-51618988D01*
X56275011Y-51609075D01*
X56225177Y-51618988D01*
X56077581Y-51648347D01*
X55910206Y-51760182D01*
X55881975Y-51802433D01*
X55377442Y-52306967D01*
X55365409Y-52319000D01*
X55264541Y-52319000D01*
X55014244Y-52422676D01*
X54822676Y-52614244D01*
X54719000Y-52864541D01*
X54719000Y-53135459D01*
X54822676Y-53385756D01*
X55014244Y-53577324D01*
X55264541Y-53681000D01*
X55535459Y-53681000D01*
X55785756Y-53577324D01*
X55977324Y-53385756D01*
X56081000Y-53135459D01*
X56081000Y-53034591D01*
X56093033Y-53022558D01*
X56484604Y-52630988D01*
X57717592Y-52630988D01*
X57689834Y-52658746D01*
X57586158Y-52909043D01*
X57586158Y-53179961D01*
X57689834Y-53430258D01*
X57881402Y-53621826D01*
X58131699Y-53725502D01*
X58402617Y-53725502D01*
X58652914Y-53621826D01*
X58844482Y-53430258D01*
X58948158Y-53179961D01*
X58948158Y-53080999D01*
X60119000Y-53080999D01*
X60119000Y-53335459D01*
X60222676Y-53585756D01*
X60414244Y-53777324D01*
X60664541Y-53881000D01*
X60919000Y-53881000D01*
X60919000Y-53935465D01*
X60995239Y-54119522D01*
X60919877Y-54169877D01*
X60850000Y-54274455D01*
X60780123Y-54169877D01*
X60577046Y-54034185D01*
X60337500Y-53986536D01*
X59862500Y-53986536D01*
X59622954Y-54034185D01*
X59419877Y-54169877D01*
X59284185Y-54372954D01*
X59236536Y-54612500D01*
X59236536Y-55187500D01*
X59284185Y-55427046D01*
X59419877Y-55630123D01*
X59622954Y-55765815D01*
X59669130Y-55775000D01*
X59622954Y-55784185D01*
X59419877Y-55919877D01*
X59284185Y-56122954D01*
X59236536Y-56362500D01*
X59236536Y-56797873D01*
X59177449Y-56856960D01*
X59135196Y-56885192D01*
X59023361Y-57052568D01*
X59008627Y-57126640D01*
X58984089Y-57249998D01*
X58994002Y-57299832D01*
X58994002Y-57542920D01*
X58922678Y-57614244D01*
X58819002Y-57864541D01*
X58819002Y-58135459D01*
X58922678Y-58385756D01*
X59114246Y-58577324D01*
X59364543Y-58681000D01*
X59635461Y-58681000D01*
X59885758Y-58577324D01*
X60077326Y-58385756D01*
X60181002Y-58135459D01*
X60181002Y-57864541D01*
X60077326Y-57614244D01*
X60026546Y-57563464D01*
X60337500Y-57563464D01*
X60577046Y-57515815D01*
X60780123Y-57380123D01*
X60915815Y-57177046D01*
X60963464Y-56937500D01*
X60963464Y-56502128D01*
X60992106Y-56473486D01*
X60992108Y-56473483D01*
X61159602Y-56305990D01*
X62290399Y-56305990D01*
X62486536Y-56502127D01*
X62486536Y-56937500D01*
X62534185Y-57177046D01*
X62669877Y-57380123D01*
X62872954Y-57515815D01*
X63112500Y-57563464D01*
X63587500Y-57563464D01*
X63827046Y-57515815D01*
X64030123Y-57380123D01*
X64165815Y-57177046D01*
X64213464Y-56937500D01*
X64213464Y-56362500D01*
X64165815Y-56122954D01*
X64030123Y-55919877D01*
X63827046Y-55784185D01*
X63780870Y-55775000D01*
X63827046Y-55765815D01*
X64030123Y-55630123D01*
X64100000Y-55525545D01*
X64169877Y-55630123D01*
X64372954Y-55765815D01*
X64612500Y-55813464D01*
X65087500Y-55813464D01*
X65327046Y-55765815D01*
X65530123Y-55630123D01*
X65665815Y-55427046D01*
X65713464Y-55187500D01*
X65713464Y-54612500D01*
X65665815Y-54372954D01*
X65530123Y-54169877D01*
X65327046Y-54034185D01*
X65087500Y-53986536D01*
X64681000Y-53986536D01*
X64681000Y-53980998D01*
X65365407Y-53980998D01*
X71878408Y-60494000D01*
X71259784Y-60494000D01*
X71215815Y-60272954D01*
X71080123Y-60069877D01*
X70877046Y-59934185D01*
X70637500Y-59886536D01*
X70162500Y-59886536D01*
X69922954Y-59934185D01*
X69719877Y-60069877D01*
X69584185Y-60272954D01*
X69536536Y-60512500D01*
X69536536Y-61087500D01*
X69584185Y-61327046D01*
X69719877Y-61530123D01*
X69922954Y-61665815D01*
X69969130Y-61675000D01*
X69922954Y-61684185D01*
X69719877Y-61819877D01*
X69584185Y-62022954D01*
X69579999Y-62044000D01*
X66989893Y-62044000D01*
X66965815Y-61922954D01*
X66830123Y-61719877D01*
X66627046Y-61584185D01*
X66387500Y-61536536D01*
X65912500Y-61536536D01*
X65672954Y-61584185D01*
X65469877Y-61719877D01*
X65334185Y-61922954D01*
X65286536Y-62162500D01*
X65286536Y-62737500D01*
X65334185Y-62977046D01*
X65469877Y-63180123D01*
X65672954Y-63315815D01*
X65912500Y-63363464D01*
X66387500Y-63363464D01*
X66627046Y-63315815D01*
X66830123Y-63180123D01*
X66913060Y-63056000D01*
X69579999Y-63056000D01*
X69584185Y-63077046D01*
X69719877Y-63280123D01*
X69894001Y-63396469D01*
X69894001Y-63850161D01*
X69884087Y-63900000D01*
X69913887Y-64049808D01*
X69923360Y-64097431D01*
X70035195Y-64264806D01*
X70077446Y-64293037D01*
X70319000Y-64534591D01*
X70319000Y-64635459D01*
X70422676Y-64885756D01*
X70614244Y-65077324D01*
X70864541Y-65181000D01*
X71135459Y-65181000D01*
X71385756Y-65077324D01*
X71577324Y-64885756D01*
X71681000Y-64635459D01*
X71681000Y-64364541D01*
X71577324Y-64114244D01*
X71385756Y-63922676D01*
X71135459Y-63819000D01*
X71034591Y-63819000D01*
X70906000Y-63690409D01*
X70906000Y-63396469D01*
X71080123Y-63280123D01*
X71215815Y-63077046D01*
X71234028Y-62985484D01*
X71339806Y-62914806D01*
X71368038Y-62872553D01*
X71934592Y-62306000D01*
X72161536Y-62306000D01*
X72161536Y-62900000D01*
X72181427Y-63000000D01*
X72161536Y-63100000D01*
X72161536Y-63700000D01*
X72181427Y-63800000D01*
X72161536Y-63900000D01*
X72161536Y-64500000D01*
X72191106Y-64648659D01*
X72275314Y-64774686D01*
X72401341Y-64858894D01*
X72550000Y-64888464D01*
X73750000Y-64888464D01*
X73898659Y-64858894D01*
X74024686Y-64774686D01*
X74108894Y-64648659D01*
X74114195Y-64622010D01*
X74199808Y-64564806D01*
X74228040Y-64522553D01*
X74672556Y-64078038D01*
X74714806Y-64049808D01*
X74826641Y-63882433D01*
X74856000Y-63734837D01*
X74856000Y-63734836D01*
X74865913Y-63685003D01*
X74856000Y-63635169D01*
X74856000Y-61506000D01*
X78350166Y-61506000D01*
X78400000Y-61515913D01*
X78449834Y-61506000D01*
X78449835Y-61506000D01*
X78597431Y-61476641D01*
X78764806Y-61364806D01*
X78793038Y-61322553D01*
X80661536Y-59454057D01*
X80661536Y-59700000D01*
X80681427Y-59800000D01*
X80661536Y-59900000D01*
X80661536Y-60500000D01*
X80681427Y-60600000D01*
X80661536Y-60700000D01*
X80661536Y-61300000D01*
X80681427Y-61400000D01*
X80661536Y-61500000D01*
X80661536Y-62100000D01*
X80681427Y-62200000D01*
X80661536Y-62300000D01*
X80661536Y-62900000D01*
X80681427Y-63000000D01*
X80661536Y-63100000D01*
X80661536Y-63700000D01*
X80681427Y-63800000D01*
X80661536Y-63900000D01*
X80661536Y-64500000D01*
X80691106Y-64648659D01*
X80775314Y-64774686D01*
X80901341Y-64858894D01*
X81050000Y-64888464D01*
X82250000Y-64888464D01*
X82375434Y-64863514D01*
X82389244Y-64877324D01*
X82639541Y-64981000D01*
X82910459Y-64981000D01*
X83160756Y-64877324D01*
X83352324Y-64685756D01*
X83456000Y-64435459D01*
X83456000Y-64181000D01*
X83535459Y-64181000D01*
X83785756Y-64077324D01*
X83977324Y-63885756D01*
X84081000Y-63635459D01*
X84081000Y-63364541D01*
X83977324Y-63114244D01*
X83938080Y-63075000D01*
X84027324Y-62985756D01*
X84131000Y-62735459D01*
X84131000Y-62464541D01*
X84065330Y-62306000D01*
X84340409Y-62306000D01*
X85511963Y-63477555D01*
X85540194Y-63519806D01*
X85707569Y-63631641D01*
X85855165Y-63661000D01*
X85904999Y-63670913D01*
X85954833Y-63661000D01*
X87725166Y-63661000D01*
X87775000Y-63670913D01*
X87824834Y-63661000D01*
X87824835Y-63661000D01*
X87972431Y-63631641D01*
X88139806Y-63519806D01*
X88168038Y-63477553D01*
X88352127Y-63293464D01*
X89575000Y-63293464D01*
X89723659Y-63263894D01*
X89849686Y-63179686D01*
X89933894Y-63053659D01*
X89963464Y-62905000D01*
X89963464Y-62305000D01*
X89933894Y-62156341D01*
X89849686Y-62030314D01*
X89723659Y-61946106D01*
X89575000Y-61916536D01*
X88025000Y-61916536D01*
X87876341Y-61946106D01*
X87750314Y-62030314D01*
X87666106Y-62156341D01*
X87636536Y-62305000D01*
X87636536Y-62577873D01*
X87565409Y-62649000D01*
X86114592Y-62649000D01*
X84943038Y-61477447D01*
X84914806Y-61435194D01*
X84747431Y-61323359D01*
X84599835Y-61294000D01*
X84599834Y-61294000D01*
X84550000Y-61284087D01*
X84500166Y-61294000D01*
X82638464Y-61294000D01*
X82638464Y-60700000D01*
X82618573Y-60600000D01*
X82638464Y-60500000D01*
X82638464Y-59900000D01*
X82618573Y-59800000D01*
X82638464Y-59700000D01*
X82638464Y-59204089D01*
X83781929Y-60347555D01*
X83810160Y-60389806D01*
X83977535Y-60501641D01*
X84125131Y-60531000D01*
X84174965Y-60540913D01*
X84224799Y-60531000D01*
X85629999Y-60531000D01*
X85634185Y-60552046D01*
X85769877Y-60755123D01*
X85972954Y-60890815D01*
X86212500Y-60938464D01*
X86687500Y-60938464D01*
X86927046Y-60890815D01*
X87130123Y-60755123D01*
X87253150Y-60571000D01*
X87704420Y-60571000D01*
X87750314Y-60639686D01*
X87876341Y-60723894D01*
X88025000Y-60753464D01*
X89575000Y-60753464D01*
X89723659Y-60723894D01*
X89849686Y-60639686D01*
X89933894Y-60513659D01*
X89963464Y-60365000D01*
X89963464Y-59765000D01*
X89933894Y-59616341D01*
X89849686Y-59490314D01*
X89759419Y-59430000D01*
X89849686Y-59369686D01*
X89933894Y-59243659D01*
X89963464Y-59095000D01*
X89963464Y-58495000D01*
X89933894Y-58346341D01*
X89849686Y-58220314D01*
X89723659Y-58136106D01*
X89575000Y-58106536D01*
X88025000Y-58106536D01*
X87876341Y-58136106D01*
X87750314Y-58220314D01*
X87704420Y-58289000D01*
X87302080Y-58289000D01*
X87185756Y-58172676D01*
X86935459Y-58069000D01*
X86664541Y-58069000D01*
X86414244Y-58172676D01*
X86222676Y-58364244D01*
X86119000Y-58614541D01*
X86119000Y-58885459D01*
X86212644Y-59111536D01*
X86212500Y-59111536D01*
X85972954Y-59159185D01*
X85769877Y-59294877D01*
X85634185Y-59497954D01*
X85629999Y-59519000D01*
X84384558Y-59519000D01*
X83523139Y-58657582D01*
X83535756Y-58652356D01*
X83727324Y-58460788D01*
X83831000Y-58210491D01*
X83831000Y-57939573D01*
X83727324Y-57689276D01*
X83656000Y-57617952D01*
X83656000Y-57535157D01*
X83691360Y-57570517D01*
X83941657Y-57674193D01*
X84212575Y-57674193D01*
X84462872Y-57570517D01*
X84654440Y-57378949D01*
X84758116Y-57128652D01*
X84758116Y-56857734D01*
X84654440Y-56607437D01*
X84583116Y-56536113D01*
X84583116Y-52296196D01*
X84714244Y-52427324D01*
X84964541Y-52531000D01*
X85235459Y-52531000D01*
X85485756Y-52427324D01*
X85677324Y-52235756D01*
X85781000Y-51985459D01*
X85781000Y-51884591D01*
X86419000Y-51246592D01*
X86419000Y-51385459D01*
X86522676Y-51635756D01*
X86714244Y-51827324D01*
X86964541Y-51931000D01*
X87065408Y-51931000D01*
X87206963Y-52072555D01*
X87235194Y-52114806D01*
X87328955Y-52177454D01*
X87402568Y-52226641D01*
X87600000Y-52265913D01*
X87649835Y-52256000D01*
X92762130Y-52256000D01*
X92769080Y-52326184D01*
X92796777Y-52392854D01*
X92791106Y-52401341D01*
X92761536Y-52550000D01*
X92761536Y-53700000D01*
X92791106Y-53848659D01*
X92875314Y-53974686D01*
X93001341Y-54058894D01*
X93150000Y-54088464D01*
X93394001Y-54088464D01*
X93394000Y-54236536D01*
X93150000Y-54236536D01*
X93001341Y-54266106D01*
X92875314Y-54350314D01*
X92791106Y-54476341D01*
X92761536Y-54625000D01*
X92761536Y-55775000D01*
X92802290Y-55909603D01*
X92791106Y-55926341D01*
X92761536Y-56075000D01*
X92761536Y-56997873D01*
X92577447Y-57181962D01*
X92535194Y-57210194D01*
X92423359Y-57377570D01*
X92399462Y-57497708D01*
X92384087Y-57575000D01*
X92394000Y-57624834D01*
X92394001Y-59190161D01*
X92384087Y-59240000D01*
X92411247Y-59376536D01*
X92423360Y-59437431D01*
X92535195Y-59604806D01*
X92577445Y-59633036D01*
X93036536Y-60092128D01*
X93036536Y-60365000D01*
X93066106Y-60513659D01*
X93150314Y-60639686D01*
X93240581Y-60700000D01*
X93150314Y-60760314D01*
X93066106Y-60886341D01*
X93036536Y-61035000D01*
X93036536Y-61635000D01*
X93066106Y-61783659D01*
X93150314Y-61909686D01*
X93240581Y-61970000D01*
X93150314Y-62030314D01*
X93066106Y-62156341D01*
X93036536Y-62305000D01*
X93036536Y-62905000D01*
X93066106Y-63053659D01*
X93150314Y-63179686D01*
X93182930Y-63201479D01*
X92447873Y-63936536D01*
X92012500Y-63936536D01*
X91772954Y-63984185D01*
X91569877Y-64119877D01*
X91434185Y-64322954D01*
X91386536Y-64562500D01*
X91386536Y-65037500D01*
X91434185Y-65277046D01*
X91569877Y-65480123D01*
X91772954Y-65615815D01*
X92012500Y-65663464D01*
X92587500Y-65663464D01*
X92827046Y-65615815D01*
X93030123Y-65480123D01*
X93165815Y-65277046D01*
X93213464Y-65037500D01*
X93213464Y-64602127D01*
X94522128Y-63293464D01*
X94975000Y-63293464D01*
X95123659Y-63263894D01*
X95249686Y-63179686D01*
X95333894Y-63053659D01*
X95363464Y-62905000D01*
X95363464Y-62305000D01*
X95333894Y-62156341D01*
X95249686Y-62030314D01*
X95159419Y-61970000D01*
X95249686Y-61909686D01*
X95333894Y-61783659D01*
X95363464Y-61635000D01*
X95363464Y-61362127D01*
X98422555Y-58303037D01*
X98464806Y-58274806D01*
X98576641Y-58107431D01*
X98606000Y-57959835D01*
X98615913Y-57910001D01*
X98606000Y-57860167D01*
X98606000Y-57338464D01*
X98850000Y-57338464D01*
X98998659Y-57308894D01*
X99124686Y-57224686D01*
X99208894Y-57098659D01*
X99238464Y-56950000D01*
X99238464Y-55950000D01*
X99230920Y-55873816D01*
X99203223Y-55807146D01*
X99208894Y-55798659D01*
X99238464Y-55650000D01*
X99238464Y-54500000D01*
X99208894Y-54351341D01*
X99124686Y-54225314D01*
X98998659Y-54141106D01*
X98850000Y-54111536D01*
X98606000Y-54111536D01*
X98606000Y-54038464D01*
X98850000Y-54038464D01*
X98998659Y-54008894D01*
X99124686Y-53924686D01*
X99204032Y-53805936D01*
X99264541Y-53831000D01*
X99535459Y-53831000D01*
X99785756Y-53727324D01*
X99977324Y-53535756D01*
X100081000Y-53285459D01*
X100081000Y-53014541D01*
X99977324Y-52764244D01*
X99785756Y-52572676D01*
X99535459Y-52469000D01*
X99264541Y-52469000D01*
X99233030Y-52482052D01*
X99197710Y-52365397D01*
X99208894Y-52348659D01*
X99238464Y-52200000D01*
X99238464Y-51200000D01*
X99208894Y-51051341D01*
X99124686Y-50925314D01*
X98998659Y-50841106D01*
X98850000Y-50811536D01*
X97927128Y-50811536D01*
X97418037Y-50302446D01*
X97389805Y-50260193D01*
X97222430Y-50148358D01*
X97074834Y-50118999D01*
X97074833Y-50118999D01*
X97024999Y-50109086D01*
X96975165Y-50118999D01*
X86374834Y-50118999D01*
X86325000Y-50109086D01*
X86275166Y-50118999D01*
X86127570Y-50148358D01*
X85960195Y-50260193D01*
X85931964Y-50302444D01*
X85065409Y-51169000D01*
X84964541Y-51169000D01*
X84714244Y-51272676D01*
X84583116Y-51403804D01*
X84583116Y-50397451D01*
X84593029Y-50347616D01*
X84553757Y-50150184D01*
X84496709Y-50064806D01*
X84441922Y-49982810D01*
X84399672Y-49954580D01*
X81332964Y-46887873D01*
X81332964Y-46515000D01*
X81303394Y-46366341D01*
X81219186Y-46240314D01*
X81203750Y-46230000D01*
X81219186Y-46219686D01*
X81303394Y-46093659D01*
X81332964Y-45945000D01*
X81332964Y-45245000D01*
X81305315Y-45106000D01*
X85450166Y-45106000D01*
X85500000Y-45115913D01*
X85549834Y-45106000D01*
X85549835Y-45106000D01*
X85697431Y-45076641D01*
X85864806Y-44964806D01*
X85893039Y-44922553D01*
X89384593Y-41431000D01*
X89485459Y-41431000D01*
X89735756Y-41327324D01*
X89736080Y-41327000D01*
X90023435Y-41327000D01*
X89986536Y-41512500D01*
X89986536Y-42087500D01*
X90034185Y-42327046D01*
X90169877Y-42530123D01*
X90372954Y-42665815D01*
X90419130Y-42675000D01*
X90372954Y-42684185D01*
X90169877Y-42819877D01*
X90034185Y-43022954D01*
X89986536Y-43262500D01*
X89986536Y-43837500D01*
X90034185Y-44077046D01*
X90169877Y-44280123D01*
X90344000Y-44396469D01*
X90344001Y-45842917D01*
X90172674Y-46014244D01*
X90068998Y-46264541D01*
X90068998Y-46535459D01*
X90172674Y-46785756D01*
X90364242Y-46977324D01*
X90614539Y-47081000D01*
X90885457Y-47081000D01*
X91135754Y-46977324D01*
X91327322Y-46785756D01*
X91430998Y-46535459D01*
X91430998Y-46264541D01*
X91356000Y-46083479D01*
X91356000Y-44396469D01*
X91530123Y-44280123D01*
X91665815Y-44077046D01*
X91684028Y-43985484D01*
X91789806Y-43914806D01*
X91818038Y-43872553D01*
X92272556Y-43418036D01*
X92314806Y-43389806D01*
X92426641Y-43222431D01*
X92456000Y-43074835D01*
X92456000Y-43074834D01*
X92465913Y-43025001D01*
X92456000Y-42975167D01*
X92456000Y-41327000D01*
X99800000Y-41327000D01*
X99848601Y-41317333D01*
X99889803Y-41289803D01*
X99917333Y-41248601D01*
X99927000Y-41200000D01*
X99927000Y-39806152D01*
X100019408Y-39744408D01*
X100101998Y-39620802D01*
X100131000Y-39475000D01*
X100131000Y-36775000D01*
X100101778Y-36628668D01*
X100019002Y-36505187D01*
X99927000Y-36443913D01*
X99927000Y-35127000D01*
X102044001Y-35127000D01*
X102044000Y-66478380D01*
X95798076Y-66573015D01*
X95751399Y-66582667D01*
X95710197Y-66610197D01*
X95682667Y-66651399D01*
X95673000Y-66700000D01*
X95673000Y-72044000D01*
X58927000Y-72044000D01*
X58927000Y-68362500D01*
X74286536Y-68362500D01*
X74286536Y-68837500D01*
X74334185Y-69077046D01*
X74469877Y-69280123D01*
X74672954Y-69415815D01*
X74912500Y-69463464D01*
X75487500Y-69463464D01*
X75727046Y-69415815D01*
X75930123Y-69280123D01*
X76065815Y-69077046D01*
X76113464Y-68837500D01*
X76113464Y-68362500D01*
X76065815Y-68122954D01*
X75930123Y-67919877D01*
X75900922Y-67900365D01*
X75915032Y-67829427D01*
X76039541Y-67881000D01*
X76310459Y-67881000D01*
X76560756Y-67777324D01*
X76752324Y-67585756D01*
X76856000Y-67335459D01*
X76856000Y-67064541D01*
X76752324Y-66814244D01*
X76681000Y-66742920D01*
X76681000Y-66634685D01*
X76700000Y-66638464D01*
X77300000Y-66638464D01*
X77400000Y-66618573D01*
X77500000Y-66638464D01*
X78100000Y-66638464D01*
X78200000Y-66618573D01*
X78300000Y-66638464D01*
X78900000Y-66638464D01*
X79000000Y-66618573D01*
X79100000Y-66638464D01*
X79694001Y-66638464D01*
X79694001Y-66918832D01*
X79644003Y-67039538D01*
X79644003Y-67310456D01*
X79747679Y-67560753D01*
X79939247Y-67752321D01*
X80189544Y-67855997D01*
X80460462Y-67855997D01*
X80710759Y-67752321D01*
X80902327Y-67560753D01*
X81006003Y-67310456D01*
X81006003Y-67039538D01*
X80902327Y-66789241D01*
X80710759Y-66597673D01*
X80706000Y-66595702D01*
X80706000Y-66570580D01*
X80774686Y-66524686D01*
X80858894Y-66398659D01*
X80888464Y-66250000D01*
X80888464Y-65050000D01*
X80858894Y-64901341D01*
X80774686Y-64775314D01*
X80648659Y-64691106D01*
X80500000Y-64661536D01*
X79900000Y-64661536D01*
X79800000Y-64681427D01*
X79700000Y-64661536D01*
X79100000Y-64661536D01*
X79000000Y-64681427D01*
X78900000Y-64661536D01*
X78300000Y-64661536D01*
X78200000Y-64681427D01*
X78100000Y-64661536D01*
X77500000Y-64661536D01*
X77400000Y-64681427D01*
X77300000Y-64661536D01*
X76700000Y-64661536D01*
X76600000Y-64681427D01*
X76500000Y-64661536D01*
X75900000Y-64661536D01*
X75800000Y-64681427D01*
X75700000Y-64661536D01*
X75100000Y-64661536D01*
X74951341Y-64691106D01*
X74825314Y-64775314D01*
X74741106Y-64901341D01*
X74711536Y-65050000D01*
X74711536Y-66250000D01*
X74741106Y-66398659D01*
X74825314Y-66524686D01*
X74894001Y-66570581D01*
X74894000Y-67615409D01*
X74877446Y-67631963D01*
X74835195Y-67660194D01*
X74764517Y-67765972D01*
X74672954Y-67784185D01*
X74469877Y-67919877D01*
X74334185Y-68122954D01*
X74286536Y-68362500D01*
X58927000Y-68362500D01*
X58927000Y-66600000D01*
X58917333Y-66551399D01*
X58889803Y-66510197D01*
X58848601Y-66482667D01*
X58800000Y-66473000D01*
X52956000Y-66473000D01*
X52956000Y-28527000D01*
X56432406Y-28527000D01*
X55677447Y-29281959D01*
G36*
X77769000Y-39915459D02*
X77872676Y-40165756D01*
X77944000Y-40237080D01*
X77944001Y-44840409D01*
X77127442Y-45656969D01*
X77115409Y-45669002D01*
X77014541Y-45669002D01*
X76764244Y-45772678D01*
X76572676Y-45964246D01*
X76469000Y-46214543D01*
X76469000Y-46485461D01*
X76572676Y-46735758D01*
X76764244Y-46927326D01*
X76776859Y-46932551D01*
X76080411Y-47629000D01*
X75874489Y-47629000D01*
X75795186Y-47510314D01*
X75779750Y-47500000D01*
X75795186Y-47489686D01*
X75879394Y-47363659D01*
X75908964Y-47215000D01*
X75908964Y-46515000D01*
X75879394Y-46366341D01*
X75795186Y-46240314D01*
X75669159Y-46156106D01*
X75520500Y-46126536D01*
X73995500Y-46126536D01*
X73846841Y-46156106D01*
X73720814Y-46240314D01*
X73636606Y-46366341D01*
X73607036Y-46515000D01*
X73607036Y-47215000D01*
X73636606Y-47363659D01*
X73720814Y-47489686D01*
X73736250Y-47500000D01*
X73720814Y-47510314D01*
X73636606Y-47636341D01*
X73635693Y-47640929D01*
X73548069Y-47658359D01*
X73380694Y-47770194D01*
X73352461Y-47812448D01*
X73257948Y-47906961D01*
X73215694Y-47935194D01*
X73148198Y-48036211D01*
X73127448Y-48056961D01*
X73085194Y-48085194D01*
X72973359Y-48252570D01*
X72944514Y-48397580D01*
X72934087Y-48450000D01*
X72944000Y-48499835D01*
X72944001Y-49200161D01*
X72934087Y-49250000D01*
X72967340Y-49417166D01*
X72973360Y-49447431D01*
X73085195Y-49614806D01*
X73127446Y-49643037D01*
X73211961Y-49727552D01*
X73240194Y-49769806D01*
X73407569Y-49881641D01*
X73555165Y-49911000D01*
X73604999Y-49920913D01*
X73643074Y-49913339D01*
X73720814Y-50029686D01*
X73846841Y-50113894D01*
X73995500Y-50143464D01*
X74104117Y-50143464D01*
X73984185Y-50322954D01*
X73936536Y-50562500D01*
X73936536Y-51037500D01*
X73984185Y-51277046D01*
X74119877Y-51480123D01*
X74322954Y-51615815D01*
X74562500Y-51663464D01*
X75137500Y-51663464D01*
X75377046Y-51615815D01*
X75580123Y-51480123D01*
X75696469Y-51306000D01*
X77815409Y-51306000D01*
X81144000Y-54634592D01*
X81144001Y-57911536D01*
X81050000Y-57911536D01*
X80901341Y-57941106D01*
X80775314Y-58025314D01*
X80726240Y-58098759D01*
X80602569Y-58123359D01*
X80583492Y-58136106D01*
X80435194Y-58235194D01*
X80406965Y-58277442D01*
X78190409Y-60494000D01*
X74138464Y-60494000D01*
X74138464Y-59900000D01*
X74118573Y-59800000D01*
X74138464Y-59700000D01*
X74138464Y-59100000D01*
X74118573Y-59000000D01*
X74138464Y-58900000D01*
X74138464Y-58300000D01*
X74108894Y-58151341D01*
X74024686Y-58025314D01*
X73898659Y-57941106D01*
X73750000Y-57911536D01*
X72550000Y-57911536D01*
X72401341Y-57941106D01*
X72275314Y-58025314D01*
X72191106Y-58151341D01*
X72161536Y-58300000D01*
X72161536Y-58900000D01*
X72181427Y-59000000D01*
X72161536Y-59100000D01*
X72161536Y-59345944D01*
X68971591Y-56156000D01*
X71492920Y-56156000D01*
X71564244Y-56227324D01*
X71814541Y-56331000D01*
X72085459Y-56331000D01*
X72335756Y-56227324D01*
X72407080Y-56156000D01*
X75340409Y-56156000D01*
X75345945Y-56161536D01*
X75100000Y-56161536D01*
X75000000Y-56181427D01*
X74900000Y-56161536D01*
X74300000Y-56161536D01*
X74151341Y-56191106D01*
X74025314Y-56275314D01*
X73941106Y-56401341D01*
X73911536Y-56550000D01*
X73911536Y-57750000D01*
X73941106Y-57898659D01*
X74025314Y-58024686D01*
X74151341Y-58108894D01*
X74300000Y-58138464D01*
X74900000Y-58138464D01*
X75000000Y-58118573D01*
X75100000Y-58138464D01*
X75700000Y-58138464D01*
X75800000Y-58118573D01*
X75900000Y-58138464D01*
X76500000Y-58138464D01*
X76600000Y-58118573D01*
X76700000Y-58138464D01*
X77300000Y-58138464D01*
X77400000Y-58118573D01*
X77500000Y-58138464D01*
X78100000Y-58138464D01*
X78200000Y-58118573D01*
X78300000Y-58138464D01*
X78900000Y-58138464D01*
X79000000Y-58118573D01*
X79100000Y-58138464D01*
X79700000Y-58138464D01*
X79848659Y-58108894D01*
X79974686Y-58024686D01*
X80058894Y-57898659D01*
X80088464Y-57750000D01*
X80088464Y-56550000D01*
X80058894Y-56401341D01*
X79974686Y-56275314D01*
X79901241Y-56226240D01*
X79876641Y-56102569D01*
X79764806Y-55935194D01*
X79722556Y-55906964D01*
X76093039Y-52277448D01*
X76064806Y-52235194D01*
X75897431Y-52123359D01*
X75749835Y-52094000D01*
X75749834Y-52094000D01*
X75700000Y-52084087D01*
X75650166Y-52094000D01*
X72709592Y-52094000D01*
X72181000Y-51565409D01*
X72181000Y-50299833D01*
X72190913Y-50249999D01*
X72176033Y-50175193D01*
X72151641Y-50052569D01*
X72039806Y-49885194D01*
X71997556Y-49856964D01*
X71618038Y-49477447D01*
X71589806Y-49435194D01*
X71422431Y-49323359D01*
X71274835Y-49294000D01*
X71274834Y-49294000D01*
X71225000Y-49284087D01*
X71175166Y-49294000D01*
X70130499Y-49294000D01*
X70024776Y-49223359D01*
X69877180Y-49194000D01*
X69877179Y-49194000D01*
X69827345Y-49184087D01*
X69777511Y-49194000D01*
X66744904Y-49194000D01*
X66854459Y-49148621D01*
X66921557Y-49081523D01*
X66942801Y-49077297D01*
X66942802Y-49077297D01*
X67090398Y-49047938D01*
X67257773Y-48936103D01*
X67286005Y-48893850D01*
X68193856Y-47986000D01*
X71220166Y-47986000D01*
X71270000Y-47995913D01*
X71319834Y-47986000D01*
X71319835Y-47986000D01*
X71467431Y-47956641D01*
X71634806Y-47844806D01*
X71663039Y-47802553D01*
X73272556Y-46193036D01*
X73314806Y-46164806D01*
X73406587Y-46027445D01*
X73426641Y-45997432D01*
X73439797Y-45931292D01*
X75474907Y-43896183D01*
X76134866Y-43927946D01*
X76228686Y-44021766D01*
X76478983Y-44125442D01*
X76749901Y-44125442D01*
X77000198Y-44021766D01*
X77191766Y-43830198D01*
X77295442Y-43579901D01*
X77295442Y-43308983D01*
X77191766Y-43058686D01*
X77000198Y-42867118D01*
X76749901Y-42763442D01*
X76478983Y-42763442D01*
X76228686Y-42867118D01*
X76178909Y-42916895D01*
X75337360Y-42876392D01*
X75275498Y-42864087D01*
X75188705Y-42881351D01*
X75101209Y-42894419D01*
X75090417Y-42900902D01*
X75078066Y-42903359D01*
X75004494Y-42952518D01*
X74928652Y-42998079D01*
X74891134Y-43048772D01*
X72627447Y-45312460D01*
X72585194Y-45340692D01*
X72473359Y-45508067D01*
X72460203Y-45574205D01*
X71351000Y-46683409D01*
X71351000Y-46524541D01*
X71247324Y-46274244D01*
X71176000Y-46202920D01*
X71176000Y-40869591D01*
X71634592Y-40411000D01*
X71735459Y-40411000D01*
X71985756Y-40307324D01*
X72177324Y-40115756D01*
X72259233Y-39918010D01*
X77769000Y-39905582D01*
X77769000Y-39915459D01*
X77769000Y-39915459D01*
G37*
X77769000Y-39915459D02*
X77872676Y-40165756D01*
X77944000Y-40237080D01*
X77944001Y-44840409D01*
X77127442Y-45656969D01*
X77115409Y-45669002D01*
X77014541Y-45669002D01*
X76764244Y-45772678D01*
X76572676Y-45964246D01*
X76469000Y-46214543D01*
X76469000Y-46485461D01*
X76572676Y-46735758D01*
X76764244Y-46927326D01*
X76776859Y-46932551D01*
X76080411Y-47629000D01*
X75874489Y-47629000D01*
X75795186Y-47510314D01*
X75779750Y-47500000D01*
X75795186Y-47489686D01*
X75879394Y-47363659D01*
X75908964Y-47215000D01*
X75908964Y-46515000D01*
X75879394Y-46366341D01*
X75795186Y-46240314D01*
X75669159Y-46156106D01*
X75520500Y-46126536D01*
X73995500Y-46126536D01*
X73846841Y-46156106D01*
X73720814Y-46240314D01*
X73636606Y-46366341D01*
X73607036Y-46515000D01*
X73607036Y-47215000D01*
X73636606Y-47363659D01*
X73720814Y-47489686D01*
X73736250Y-47500000D01*
X73720814Y-47510314D01*
X73636606Y-47636341D01*
X73635693Y-47640929D01*
X73548069Y-47658359D01*
X73380694Y-47770194D01*
X73352461Y-47812448D01*
X73257948Y-47906961D01*
X73215694Y-47935194D01*
X73148198Y-48036211D01*
X73127448Y-48056961D01*
X73085194Y-48085194D01*
X72973359Y-48252570D01*
X72944514Y-48397580D01*
X72934087Y-48450000D01*
X72944000Y-48499835D01*
X72944001Y-49200161D01*
X72934087Y-49250000D01*
X72967340Y-49417166D01*
X72973360Y-49447431D01*
X73085195Y-49614806D01*
X73127446Y-49643037D01*
X73211961Y-49727552D01*
X73240194Y-49769806D01*
X73407569Y-49881641D01*
X73555165Y-49911000D01*
X73604999Y-49920913D01*
X73643074Y-49913339D01*
X73720814Y-50029686D01*
X73846841Y-50113894D01*
X73995500Y-50143464D01*
X74104117Y-50143464D01*
X73984185Y-50322954D01*
X73936536Y-50562500D01*
X73936536Y-51037500D01*
X73984185Y-51277046D01*
X74119877Y-51480123D01*
X74322954Y-51615815D01*
X74562500Y-51663464D01*
X75137500Y-51663464D01*
X75377046Y-51615815D01*
X75580123Y-51480123D01*
X75696469Y-51306000D01*
X77815409Y-51306000D01*
X81144000Y-54634592D01*
X81144001Y-57911536D01*
X81050000Y-57911536D01*
X80901341Y-57941106D01*
X80775314Y-58025314D01*
X80726240Y-58098759D01*
X80602569Y-58123359D01*
X80583492Y-58136106D01*
X80435194Y-58235194D01*
X80406965Y-58277442D01*
X78190409Y-60494000D01*
X74138464Y-60494000D01*
X74138464Y-59900000D01*
X74118573Y-59800000D01*
X74138464Y-59700000D01*
X74138464Y-59100000D01*
X74118573Y-59000000D01*
X74138464Y-58900000D01*
X74138464Y-58300000D01*
X74108894Y-58151341D01*
X74024686Y-58025314D01*
X73898659Y-57941106D01*
X73750000Y-57911536D01*
X72550000Y-57911536D01*
X72401341Y-57941106D01*
X72275314Y-58025314D01*
X72191106Y-58151341D01*
X72161536Y-58300000D01*
X72161536Y-58900000D01*
X72181427Y-59000000D01*
X72161536Y-59100000D01*
X72161536Y-59345944D01*
X68971591Y-56156000D01*
X71492920Y-56156000D01*
X71564244Y-56227324D01*
X71814541Y-56331000D01*
X72085459Y-56331000D01*
X72335756Y-56227324D01*
X72407080Y-56156000D01*
X75340409Y-56156000D01*
X75345945Y-56161536D01*
X75100000Y-56161536D01*
X75000000Y-56181427D01*
X74900000Y-56161536D01*
X74300000Y-56161536D01*
X74151341Y-56191106D01*
X74025314Y-56275314D01*
X73941106Y-56401341D01*
X73911536Y-56550000D01*
X73911536Y-57750000D01*
X73941106Y-57898659D01*
X74025314Y-58024686D01*
X74151341Y-58108894D01*
X74300000Y-58138464D01*
X74900000Y-58138464D01*
X75000000Y-58118573D01*
X75100000Y-58138464D01*
X75700000Y-58138464D01*
X75800000Y-58118573D01*
X75900000Y-58138464D01*
X76500000Y-58138464D01*
X76600000Y-58118573D01*
X76700000Y-58138464D01*
X77300000Y-58138464D01*
X77400000Y-58118573D01*
X77500000Y-58138464D01*
X78100000Y-58138464D01*
X78200000Y-58118573D01*
X78300000Y-58138464D01*
X78900000Y-58138464D01*
X79000000Y-58118573D01*
X79100000Y-58138464D01*
X79700000Y-58138464D01*
X79848659Y-58108894D01*
X79974686Y-58024686D01*
X80058894Y-57898659D01*
X80088464Y-57750000D01*
X80088464Y-56550000D01*
X80058894Y-56401341D01*
X79974686Y-56275314D01*
X79901241Y-56226240D01*
X79876641Y-56102569D01*
X79764806Y-55935194D01*
X79722556Y-55906964D01*
X76093039Y-52277448D01*
X76064806Y-52235194D01*
X75897431Y-52123359D01*
X75749835Y-52094000D01*
X75749834Y-52094000D01*
X75700000Y-52084087D01*
X75650166Y-52094000D01*
X72709592Y-52094000D01*
X72181000Y-51565409D01*
X72181000Y-50299833D01*
X72190913Y-50249999D01*
X72176033Y-50175193D01*
X72151641Y-50052569D01*
X72039806Y-49885194D01*
X71997556Y-49856964D01*
X71618038Y-49477447D01*
X71589806Y-49435194D01*
X71422431Y-49323359D01*
X71274835Y-49294000D01*
X71274834Y-49294000D01*
X71225000Y-49284087D01*
X71175166Y-49294000D01*
X70130499Y-49294000D01*
X70024776Y-49223359D01*
X69877180Y-49194000D01*
X69877179Y-49194000D01*
X69827345Y-49184087D01*
X69777511Y-49194000D01*
X66744904Y-49194000D01*
X66854459Y-49148621D01*
X66921557Y-49081523D01*
X66942801Y-49077297D01*
X66942802Y-49077297D01*
X67090398Y-49047938D01*
X67257773Y-48936103D01*
X67286005Y-48893850D01*
X68193856Y-47986000D01*
X71220166Y-47986000D01*
X71270000Y-47995913D01*
X71319834Y-47986000D01*
X71319835Y-47986000D01*
X71467431Y-47956641D01*
X71634806Y-47844806D01*
X71663039Y-47802553D01*
X73272556Y-46193036D01*
X73314806Y-46164806D01*
X73406587Y-46027445D01*
X73426641Y-45997432D01*
X73439797Y-45931292D01*
X75474907Y-43896183D01*
X76134866Y-43927946D01*
X76228686Y-44021766D01*
X76478983Y-44125442D01*
X76749901Y-44125442D01*
X77000198Y-44021766D01*
X77191766Y-43830198D01*
X77295442Y-43579901D01*
X77295442Y-43308983D01*
X77191766Y-43058686D01*
X77000198Y-42867118D01*
X76749901Y-42763442D01*
X76478983Y-42763442D01*
X76228686Y-42867118D01*
X76178909Y-42916895D01*
X75337360Y-42876392D01*
X75275498Y-42864087D01*
X75188705Y-42881351D01*
X75101209Y-42894419D01*
X75090417Y-42900902D01*
X75078066Y-42903359D01*
X75004494Y-42952518D01*
X74928652Y-42998079D01*
X74891134Y-43048772D01*
X72627447Y-45312460D01*
X72585194Y-45340692D01*
X72473359Y-45508067D01*
X72460203Y-45574205D01*
X71351000Y-46683409D01*
X71351000Y-46524541D01*
X71247324Y-46274244D01*
X71176000Y-46202920D01*
X71176000Y-40869591D01*
X71634592Y-40411000D01*
X71735459Y-40411000D01*
X71985756Y-40307324D01*
X72177324Y-40115756D01*
X72259233Y-39918010D01*
X77769000Y-39905582D01*
X77769000Y-39915459D01*
G36*
X62873000Y-35000000D02*
X62882667Y-35048601D01*
X62903952Y-35080456D01*
X59252442Y-38731967D01*
X59240409Y-38744000D01*
X59139541Y-38744000D01*
X58889244Y-38847676D01*
X58817920Y-38919000D01*
X56668399Y-38919000D01*
X56519756Y-38770357D01*
X56269459Y-38666681D01*
X55998541Y-38666681D01*
X55956011Y-38684297D01*
X55956011Y-36959580D01*
X59701289Y-33214303D01*
X59719877Y-33242123D01*
X59922954Y-33377815D01*
X60162500Y-33425464D01*
X60637500Y-33425464D01*
X60877046Y-33377815D01*
X61080123Y-33242123D01*
X61215815Y-33039046D01*
X61220001Y-33018000D01*
X62873000Y-33018000D01*
X62873000Y-35000000D01*
X62873000Y-35000000D01*
G37*
X62873000Y-35000000D02*
X62882667Y-35048601D01*
X62903952Y-35080456D01*
X59252442Y-38731967D01*
X59240409Y-38744000D01*
X59139541Y-38744000D01*
X58889244Y-38847676D01*
X58817920Y-38919000D01*
X56668399Y-38919000D01*
X56519756Y-38770357D01*
X56269459Y-38666681D01*
X55998541Y-38666681D01*
X55956011Y-38684297D01*
X55956011Y-36959580D01*
X59701289Y-33214303D01*
X59719877Y-33242123D01*
X59922954Y-33377815D01*
X60162500Y-33425464D01*
X60637500Y-33425464D01*
X60877046Y-33377815D01*
X61080123Y-33242123D01*
X61215815Y-33039046D01*
X61220001Y-33018000D01*
X62873000Y-33018000D01*
X62873000Y-35000000D01*
G36*
X62873000Y-31155990D02*
X58499845Y-31155990D01*
X58450010Y-31146077D01*
X58252578Y-31185349D01*
X58197791Y-31221957D01*
X58085204Y-31297184D01*
X58056973Y-31339435D01*
X57797872Y-31598536D01*
X57362500Y-31598536D01*
X57122954Y-31646185D01*
X56919877Y-31781877D01*
X56784185Y-31984954D01*
X56736536Y-32224500D01*
X56736536Y-32659872D01*
X54881000Y-34515409D01*
X54881000Y-33425464D01*
X55037500Y-33425464D01*
X55277046Y-33377815D01*
X55480123Y-33242123D01*
X55615815Y-33039046D01*
X55663464Y-32799500D01*
X55663464Y-32364128D01*
X55692106Y-32335486D01*
X55692108Y-32335483D01*
X56322555Y-31705037D01*
X56364806Y-31676806D01*
X56476641Y-31509431D01*
X56506000Y-31361835D01*
X56506000Y-31361834D01*
X56515913Y-31312000D01*
X56506000Y-31262166D01*
X56506000Y-29884589D01*
X57684590Y-28706000D01*
X62873000Y-28706000D01*
X62873000Y-31155990D01*
X62873000Y-31155990D01*
G37*
X62873000Y-31155990D02*
X58499845Y-31155990D01*
X58450010Y-31146077D01*
X58252578Y-31185349D01*
X58197791Y-31221957D01*
X58085204Y-31297184D01*
X58056973Y-31339435D01*
X57797872Y-31598536D01*
X57362500Y-31598536D01*
X57122954Y-31646185D01*
X56919877Y-31781877D01*
X56784185Y-31984954D01*
X56736536Y-32224500D01*
X56736536Y-32659872D01*
X54881000Y-34515409D01*
X54881000Y-33425464D01*
X55037500Y-33425464D01*
X55277046Y-33377815D01*
X55480123Y-33242123D01*
X55615815Y-33039046D01*
X55663464Y-32799500D01*
X55663464Y-32364128D01*
X55692106Y-32335486D01*
X55692108Y-32335483D01*
X56322555Y-31705037D01*
X56364806Y-31676806D01*
X56476641Y-31509431D01*
X56506000Y-31361835D01*
X56506000Y-31361834D01*
X56515913Y-31312000D01*
X56506000Y-31262166D01*
X56506000Y-29884589D01*
X57684590Y-28706000D01*
X62873000Y-28706000D01*
X62873000Y-31155990D01*
G04 #@! TD*
M02*
