M48
;DRILL file {KiCad 5.0.0-fee4fd1~65~ubuntu16.04.1} date Tue Oct 30 20:02:55 2018
;FORMAT={-:-/ absolute / inch / decimal}
FMAT,2
INCH,TZ
T1C0.0157
T2C0.0492
T3C0.0531
T4C0.0689
%
G90
G05
M72
T1
X2.1407Y-1.9606
X2.1575Y-1.1417
X2.1654Y-1.9843
X2.1749Y-2.022
X2.1811Y-2.0866
X2.21Y-1.5491
X2.2598Y-2.2756
X2.2677Y-1.1417
X2.2703Y-1.8771
X2.2776Y-1.8465
X2.293Y-1.463
X2.294Y-2.0884
X2.3337Y-1.5522
X2.3387Y-2.1143
X2.3425Y-2.2835
X2.3691Y-1.9813
X2.378Y-1.1417
X2.3937Y-2.0945
X2.4134Y-1.7598
X2.4252Y-2.1181
X2.4626Y-1.6506
X2.5197Y-2.1299
X2.5295Y-0.9409
X2.6083Y-0.9409
X2.6094Y-1.9898
X2.6153Y-1.8321
X2.6169Y-1.9123
X2.6201Y-2.3474
X2.6289Y-1.4646
X2.6289Y-1.4646
X2.6289Y-1.4646
X2.6289Y-1.4902
X2.6289Y-1.5157
X2.6289Y-1.5413
X2.6545Y-1.4646
X2.6545Y-1.4902
X2.6545Y-1.5157
X2.6545Y-1.5413
X2.6801Y-1.4646
X2.6801Y-1.4902
X2.6801Y-1.5157
X2.6801Y-1.5413
X2.687Y-0.9429
X2.7177Y-1.7569
X2.7677Y-0.9429
X2.7823Y-1.837
X2.7883Y-1.9944
X2.7953Y-2.5394
X2.8061Y-1.3602
X2.8061Y-1.3858
X2.8189Y-1.5642
X2.8317Y-1.3602
X2.8317Y-1.3858
X2.8327Y-2.1909
X2.8573Y-1.3602
X2.8573Y-1.3858
X2.8573Y-1.4114
X2.8583Y-2.1545
X2.8829Y-1.3602
X2.8829Y-1.3858
X2.8829Y-1.4114
X2.8996Y-1.4646
X2.8996Y-1.4646
X2.8996Y-1.4646
X2.8996Y-1.4902
X2.8996Y-1.5157
X2.8996Y-1.5413
X2.9085Y-1.3602
X2.9085Y-1.3858
X2.9085Y-1.4114
X2.9252Y-1.4646
X2.9252Y-1.4902
X2.9252Y-1.5157
X2.9252Y-1.5413
X2.9341Y-1.3602
X2.9341Y-1.3858
X2.9341Y-1.4114
X2.9508Y-1.4646
X2.9508Y-1.4902
X2.9508Y-1.5157
X2.9508Y-1.5413
X2.999Y-2.6457
X3.0163Y-1.7104
X3.0374Y-1.8248
X3.0719Y-1.3612
X3.0719Y-1.3868
X3.0886Y-1.5661
X3.0974Y-1.3612
X3.0974Y-1.3868
X3.123Y-1.3612
X3.123Y-1.3868
X3.123Y-1.4124
X3.1486Y-1.3612
X3.1486Y-1.3868
X3.1486Y-1.4124
X3.1624Y-2.6447
X3.1703Y-1.4665
X3.1703Y-1.4921
X3.1703Y-1.5177
X3.1703Y-1.5433
X3.1742Y-1.3612
X3.1742Y-1.3868
X3.1742Y-1.4124
X3.19Y-2.251
X3.1959Y-1.4665
X3.1959Y-1.4921
X3.1959Y-1.5177
X3.1959Y-1.5433
X3.1998Y-1.3612
X3.1998Y-1.3868
X3.1998Y-1.4124
X3.2215Y-1.4665
X3.2215Y-1.4921
X3.2215Y-1.5177
X3.2215Y-1.5433
X3.2589Y-2.5315
X3.2736Y-2.2864
X3.2835Y-2.5
X3.2854Y-2.4646
X3.3101Y-2.2438
X3.3504Y-2.0413
X3.3606Y-1.7161
X3.361Y-1.5681
X3.4173Y-2.313
X3.4291Y-2.0177
X3.4429Y-2.4321
X3.4567Y-1.1319
X3.5177Y-1.6043
X3.5728Y-1.8268
X3.6201Y-1.6024
X3.628Y-1.2008
X3.7402Y-1.5945
X3.7618Y-2.0965
X3.8504Y-1.4016
X3.8799Y-1.1909
X3.8937Y-1.5965
X3.9134Y-2.0925
X3.998Y-1.2283
T2
X3.0689Y-1.1073
X3.1673Y-1.1073
X3.2657Y-1.1073
X3.5016Y-1.3
X3.5016Y-1.3984
X3.6Y-1.3
X3.6Y-1.3984
X3.6984Y-1.3
X3.6984Y-1.3984
T3
X3.2165Y-1.0545
T4
X3.5016Y-1.0173
X3.6984Y-1.0173
T0
M30
